G04 #@! TF.GenerationSoftware,KiCad,Pcbnew,(5.0.2)-1*
G04 #@! TF.CreationDate,2019-04-16T07:35:46+02:00*
G04 #@! TF.ProjectId,devboard_io,64657662-6f61-4726-945f-696f2e6b6963,rev?*
G04 #@! TF.SameCoordinates,Original*
G04 #@! TF.FileFunction,Soldermask,Bot*
G04 #@! TF.FilePolarity,Negative*
%FSLAX46Y46*%
G04 Gerber Fmt 4.6, Leading zero omitted, Abs format (unit mm)*
G04 Created by KiCad (PCBNEW (5.0.2)-1) date 16/04/2019 07:35:46*
%MOMM*%
%LPD*%
G01*
G04 APERTURE LIST*
%ADD10C,0.100000*%
G04 APERTURE END LIST*
D10*
G36*
X456040442Y-124200518D02*
X456106627Y-124207037D01*
X456219853Y-124241384D01*
X456276467Y-124258557D01*
X456415087Y-124332652D01*
X456432991Y-124342222D01*
X456468729Y-124371552D01*
X456570186Y-124454814D01*
X456653448Y-124556271D01*
X456682778Y-124592009D01*
X456682779Y-124592011D01*
X456766443Y-124748533D01*
X456766443Y-124748534D01*
X456817963Y-124918373D01*
X456835359Y-125095000D01*
X456817963Y-125271627D01*
X456783616Y-125384853D01*
X456766443Y-125441467D01*
X456692348Y-125580087D01*
X456682778Y-125597991D01*
X456653448Y-125633729D01*
X456570186Y-125735186D01*
X456468729Y-125818448D01*
X456432991Y-125847778D01*
X456432989Y-125847779D01*
X456276467Y-125931443D01*
X456219853Y-125948616D01*
X456106627Y-125982963D01*
X456040442Y-125989482D01*
X455974260Y-125996000D01*
X455885740Y-125996000D01*
X455819558Y-125989482D01*
X455753373Y-125982963D01*
X455640147Y-125948616D01*
X455583533Y-125931443D01*
X455427011Y-125847779D01*
X455427009Y-125847778D01*
X455391271Y-125818448D01*
X455289814Y-125735186D01*
X455206552Y-125633729D01*
X455177222Y-125597991D01*
X455167652Y-125580087D01*
X455093557Y-125441467D01*
X455076384Y-125384853D01*
X455042037Y-125271627D01*
X455024641Y-125095000D01*
X455042037Y-124918373D01*
X455093557Y-124748534D01*
X455093557Y-124748533D01*
X455177221Y-124592011D01*
X455177222Y-124592009D01*
X455206552Y-124556271D01*
X455289814Y-124454814D01*
X455391271Y-124371552D01*
X455427009Y-124342222D01*
X455444913Y-124332652D01*
X455583533Y-124258557D01*
X455640147Y-124241384D01*
X455753373Y-124207037D01*
X455819558Y-124200518D01*
X455885740Y-124194000D01*
X455974260Y-124194000D01*
X456040442Y-124200518D01*
X456040442Y-124200518D01*
G37*
G36*
X453500442Y-124200518D02*
X453566627Y-124207037D01*
X453679853Y-124241384D01*
X453736467Y-124258557D01*
X453875087Y-124332652D01*
X453892991Y-124342222D01*
X453928729Y-124371552D01*
X454030186Y-124454814D01*
X454113448Y-124556271D01*
X454142778Y-124592009D01*
X454142779Y-124592011D01*
X454226443Y-124748533D01*
X454226443Y-124748534D01*
X454277963Y-124918373D01*
X454295359Y-125095000D01*
X454277963Y-125271627D01*
X454243616Y-125384853D01*
X454226443Y-125441467D01*
X454152348Y-125580087D01*
X454142778Y-125597991D01*
X454113448Y-125633729D01*
X454030186Y-125735186D01*
X453928729Y-125818448D01*
X453892991Y-125847778D01*
X453892989Y-125847779D01*
X453736467Y-125931443D01*
X453679853Y-125948616D01*
X453566627Y-125982963D01*
X453500442Y-125989482D01*
X453434260Y-125996000D01*
X453345740Y-125996000D01*
X453279558Y-125989482D01*
X453213373Y-125982963D01*
X453100147Y-125948616D01*
X453043533Y-125931443D01*
X452887011Y-125847779D01*
X452887009Y-125847778D01*
X452851271Y-125818448D01*
X452749814Y-125735186D01*
X452666552Y-125633729D01*
X452637222Y-125597991D01*
X452627652Y-125580087D01*
X452553557Y-125441467D01*
X452536384Y-125384853D01*
X452502037Y-125271627D01*
X452484641Y-125095000D01*
X452502037Y-124918373D01*
X452553557Y-124748534D01*
X452553557Y-124748533D01*
X452637221Y-124592011D01*
X452637222Y-124592009D01*
X452666552Y-124556271D01*
X452749814Y-124454814D01*
X452851271Y-124371552D01*
X452887009Y-124342222D01*
X452904913Y-124332652D01*
X453043533Y-124258557D01*
X453100147Y-124241384D01*
X453213373Y-124207037D01*
X453279558Y-124200518D01*
X453345740Y-124194000D01*
X453434260Y-124194000D01*
X453500442Y-124200518D01*
X453500442Y-124200518D01*
G37*
G36*
X449211000Y-125996000D02*
X447409000Y-125996000D01*
X447409000Y-124194000D01*
X449211000Y-124194000D01*
X449211000Y-125996000D01*
X449211000Y-125996000D01*
G37*
G36*
X450960442Y-124200518D02*
X451026627Y-124207037D01*
X451139853Y-124241384D01*
X451196467Y-124258557D01*
X451335087Y-124332652D01*
X451352991Y-124342222D01*
X451388729Y-124371552D01*
X451490186Y-124454814D01*
X451573448Y-124556271D01*
X451602778Y-124592009D01*
X451602779Y-124592011D01*
X451686443Y-124748533D01*
X451686443Y-124748534D01*
X451737963Y-124918373D01*
X451755359Y-125095000D01*
X451737963Y-125271627D01*
X451703616Y-125384853D01*
X451686443Y-125441467D01*
X451612348Y-125580087D01*
X451602778Y-125597991D01*
X451573448Y-125633729D01*
X451490186Y-125735186D01*
X451388729Y-125818448D01*
X451352991Y-125847778D01*
X451352989Y-125847779D01*
X451196467Y-125931443D01*
X451139853Y-125948616D01*
X451026627Y-125982963D01*
X450960442Y-125989482D01*
X450894260Y-125996000D01*
X450805740Y-125996000D01*
X450739558Y-125989482D01*
X450673373Y-125982963D01*
X450560147Y-125948616D01*
X450503533Y-125931443D01*
X450347011Y-125847779D01*
X450347009Y-125847778D01*
X450311271Y-125818448D01*
X450209814Y-125735186D01*
X450126552Y-125633729D01*
X450097222Y-125597991D01*
X450087652Y-125580087D01*
X450013557Y-125441467D01*
X449996384Y-125384853D01*
X449962037Y-125271627D01*
X449944641Y-125095000D01*
X449962037Y-124918373D01*
X450013557Y-124748534D01*
X450013557Y-124748533D01*
X450097221Y-124592011D01*
X450097222Y-124592009D01*
X450126552Y-124556271D01*
X450209814Y-124454814D01*
X450311271Y-124371552D01*
X450347009Y-124342222D01*
X450364913Y-124332652D01*
X450503533Y-124258557D01*
X450560147Y-124241384D01*
X450673373Y-124207037D01*
X450739558Y-124200518D01*
X450805740Y-124194000D01*
X450894260Y-124194000D01*
X450960442Y-124200518D01*
X450960442Y-124200518D01*
G37*
G36*
X422606000Y-124116000D02*
X420754000Y-124116000D01*
X420754000Y-122264000D01*
X422606000Y-122264000D01*
X422606000Y-124116000D01*
X422606000Y-124116000D01*
G37*
G36*
X424450104Y-122299585D02*
X424618626Y-122369389D01*
X424770291Y-122470728D01*
X424899272Y-122599709D01*
X425000611Y-122751374D01*
X425070415Y-122919896D01*
X425106000Y-123098797D01*
X425106000Y-123281203D01*
X425070415Y-123460104D01*
X425000611Y-123628626D01*
X424899272Y-123780291D01*
X424770291Y-123909272D01*
X424618626Y-124010611D01*
X424450104Y-124080415D01*
X424271203Y-124116000D01*
X424088797Y-124116000D01*
X423909896Y-124080415D01*
X423741374Y-124010611D01*
X423589709Y-123909272D01*
X423460728Y-123780291D01*
X423359389Y-123628626D01*
X423289585Y-123460104D01*
X423254000Y-123281203D01*
X423254000Y-123098797D01*
X423289585Y-122919896D01*
X423359389Y-122751374D01*
X423460728Y-122599709D01*
X423589709Y-122470728D01*
X423741374Y-122369389D01*
X423909896Y-122299585D01*
X424088797Y-122264000D01*
X424271203Y-122264000D01*
X424450104Y-122299585D01*
X424450104Y-122299585D01*
G37*
G36*
X433935104Y-122299585D02*
X434103626Y-122369389D01*
X434255291Y-122470728D01*
X434384272Y-122599709D01*
X434485611Y-122751374D01*
X434555415Y-122919896D01*
X434591000Y-123098797D01*
X434591000Y-123281203D01*
X434555415Y-123460104D01*
X434485611Y-123628626D01*
X434384272Y-123780291D01*
X434255291Y-123909272D01*
X434103626Y-124010611D01*
X433935104Y-124080415D01*
X433756203Y-124116000D01*
X433573797Y-124116000D01*
X433394896Y-124080415D01*
X433226374Y-124010611D01*
X433074709Y-123909272D01*
X432945728Y-123780291D01*
X432844389Y-123628626D01*
X432774585Y-123460104D01*
X432739000Y-123281203D01*
X432739000Y-123098797D01*
X432774585Y-122919896D01*
X432844389Y-122751374D01*
X432945728Y-122599709D01*
X433074709Y-122470728D01*
X433226374Y-122369389D01*
X433394896Y-122299585D01*
X433573797Y-122264000D01*
X433756203Y-122264000D01*
X433935104Y-122299585D01*
X433935104Y-122299585D01*
G37*
G36*
X432091000Y-124116000D02*
X430239000Y-124116000D01*
X430239000Y-122264000D01*
X432091000Y-122264000D01*
X432091000Y-124116000D01*
X432091000Y-124116000D01*
G37*
G36*
X391270442Y-121660518D02*
X391336627Y-121667037D01*
X391449853Y-121701384D01*
X391506467Y-121718557D01*
X391645087Y-121792652D01*
X391662991Y-121802222D01*
X391698729Y-121831552D01*
X391800186Y-121914814D01*
X391883448Y-122016271D01*
X391912778Y-122052009D01*
X391912779Y-122052011D01*
X391996443Y-122208533D01*
X391996443Y-122208534D01*
X392047963Y-122378373D01*
X392065359Y-122555000D01*
X392047963Y-122731627D01*
X392013616Y-122844853D01*
X391996443Y-122901467D01*
X391986592Y-122919896D01*
X391912778Y-123057991D01*
X391883448Y-123093729D01*
X391800186Y-123195186D01*
X391698729Y-123278448D01*
X391662991Y-123307778D01*
X391662989Y-123307779D01*
X391506467Y-123391443D01*
X391449853Y-123408616D01*
X391336627Y-123442963D01*
X391270442Y-123449482D01*
X391204260Y-123456000D01*
X391115740Y-123456000D01*
X391049558Y-123449482D01*
X390983373Y-123442963D01*
X390870147Y-123408616D01*
X390813533Y-123391443D01*
X390657011Y-123307779D01*
X390657009Y-123307778D01*
X390621271Y-123278448D01*
X390519814Y-123195186D01*
X390436552Y-123093729D01*
X390407222Y-123057991D01*
X390333408Y-122919896D01*
X390323557Y-122901467D01*
X390306384Y-122844853D01*
X390272037Y-122731627D01*
X390254641Y-122555000D01*
X390272037Y-122378373D01*
X390323557Y-122208534D01*
X390323557Y-122208533D01*
X390407221Y-122052011D01*
X390407222Y-122052009D01*
X390436552Y-122016271D01*
X390519814Y-121914814D01*
X390621271Y-121831552D01*
X390657009Y-121802222D01*
X390674913Y-121792652D01*
X390813533Y-121718557D01*
X390870147Y-121701384D01*
X390983373Y-121667037D01*
X391049558Y-121660518D01*
X391115740Y-121654000D01*
X391204260Y-121654000D01*
X391270442Y-121660518D01*
X391270442Y-121660518D01*
G37*
G36*
X409050442Y-121660518D02*
X409116627Y-121667037D01*
X409229853Y-121701384D01*
X409286467Y-121718557D01*
X409425087Y-121792652D01*
X409442991Y-121802222D01*
X409478729Y-121831552D01*
X409580186Y-121914814D01*
X409663448Y-122016271D01*
X409692778Y-122052009D01*
X409692779Y-122052011D01*
X409776443Y-122208533D01*
X409776443Y-122208534D01*
X409827963Y-122378373D01*
X409845359Y-122555000D01*
X409827963Y-122731627D01*
X409793616Y-122844853D01*
X409776443Y-122901467D01*
X409766592Y-122919896D01*
X409692778Y-123057991D01*
X409663448Y-123093729D01*
X409580186Y-123195186D01*
X409478729Y-123278448D01*
X409442991Y-123307778D01*
X409442989Y-123307779D01*
X409286467Y-123391443D01*
X409229853Y-123408616D01*
X409116627Y-123442963D01*
X409050442Y-123449482D01*
X408984260Y-123456000D01*
X408895740Y-123456000D01*
X408829558Y-123449482D01*
X408763373Y-123442963D01*
X408650147Y-123408616D01*
X408593533Y-123391443D01*
X408437011Y-123307779D01*
X408437009Y-123307778D01*
X408401271Y-123278448D01*
X408299814Y-123195186D01*
X408216552Y-123093729D01*
X408187222Y-123057991D01*
X408113408Y-122919896D01*
X408103557Y-122901467D01*
X408086384Y-122844853D01*
X408052037Y-122731627D01*
X408034641Y-122555000D01*
X408052037Y-122378373D01*
X408103557Y-122208534D01*
X408103557Y-122208533D01*
X408187221Y-122052011D01*
X408187222Y-122052009D01*
X408216552Y-122016271D01*
X408299814Y-121914814D01*
X408401271Y-121831552D01*
X408437009Y-121802222D01*
X408454913Y-121792652D01*
X408593533Y-121718557D01*
X408650147Y-121701384D01*
X408763373Y-121667037D01*
X408829558Y-121660518D01*
X408895740Y-121654000D01*
X408984260Y-121654000D01*
X409050442Y-121660518D01*
X409050442Y-121660518D01*
G37*
G36*
X406510442Y-121660518D02*
X406576627Y-121667037D01*
X406689853Y-121701384D01*
X406746467Y-121718557D01*
X406885087Y-121792652D01*
X406902991Y-121802222D01*
X406938729Y-121831552D01*
X407040186Y-121914814D01*
X407123448Y-122016271D01*
X407152778Y-122052009D01*
X407152779Y-122052011D01*
X407236443Y-122208533D01*
X407236443Y-122208534D01*
X407287963Y-122378373D01*
X407305359Y-122555000D01*
X407287963Y-122731627D01*
X407253616Y-122844853D01*
X407236443Y-122901467D01*
X407226592Y-122919896D01*
X407152778Y-123057991D01*
X407123448Y-123093729D01*
X407040186Y-123195186D01*
X406938729Y-123278448D01*
X406902991Y-123307778D01*
X406902989Y-123307779D01*
X406746467Y-123391443D01*
X406689853Y-123408616D01*
X406576627Y-123442963D01*
X406510442Y-123449482D01*
X406444260Y-123456000D01*
X406355740Y-123456000D01*
X406289558Y-123449482D01*
X406223373Y-123442963D01*
X406110147Y-123408616D01*
X406053533Y-123391443D01*
X405897011Y-123307779D01*
X405897009Y-123307778D01*
X405861271Y-123278448D01*
X405759814Y-123195186D01*
X405676552Y-123093729D01*
X405647222Y-123057991D01*
X405573408Y-122919896D01*
X405563557Y-122901467D01*
X405546384Y-122844853D01*
X405512037Y-122731627D01*
X405494641Y-122555000D01*
X405512037Y-122378373D01*
X405563557Y-122208534D01*
X405563557Y-122208533D01*
X405647221Y-122052011D01*
X405647222Y-122052009D01*
X405676552Y-122016271D01*
X405759814Y-121914814D01*
X405861271Y-121831552D01*
X405897009Y-121802222D01*
X405914913Y-121792652D01*
X406053533Y-121718557D01*
X406110147Y-121701384D01*
X406223373Y-121667037D01*
X406289558Y-121660518D01*
X406355740Y-121654000D01*
X406444260Y-121654000D01*
X406510442Y-121660518D01*
X406510442Y-121660518D01*
G37*
G36*
X403970442Y-121660518D02*
X404036627Y-121667037D01*
X404149853Y-121701384D01*
X404206467Y-121718557D01*
X404345087Y-121792652D01*
X404362991Y-121802222D01*
X404398729Y-121831552D01*
X404500186Y-121914814D01*
X404583448Y-122016271D01*
X404612778Y-122052009D01*
X404612779Y-122052011D01*
X404696443Y-122208533D01*
X404696443Y-122208534D01*
X404747963Y-122378373D01*
X404765359Y-122555000D01*
X404747963Y-122731627D01*
X404713616Y-122844853D01*
X404696443Y-122901467D01*
X404686592Y-122919896D01*
X404612778Y-123057991D01*
X404583448Y-123093729D01*
X404500186Y-123195186D01*
X404398729Y-123278448D01*
X404362991Y-123307778D01*
X404362989Y-123307779D01*
X404206467Y-123391443D01*
X404149853Y-123408616D01*
X404036627Y-123442963D01*
X403970442Y-123449482D01*
X403904260Y-123456000D01*
X403815740Y-123456000D01*
X403749558Y-123449482D01*
X403683373Y-123442963D01*
X403570147Y-123408616D01*
X403513533Y-123391443D01*
X403357011Y-123307779D01*
X403357009Y-123307778D01*
X403321271Y-123278448D01*
X403219814Y-123195186D01*
X403136552Y-123093729D01*
X403107222Y-123057991D01*
X403033408Y-122919896D01*
X403023557Y-122901467D01*
X403006384Y-122844853D01*
X402972037Y-122731627D01*
X402954641Y-122555000D01*
X402972037Y-122378373D01*
X403023557Y-122208534D01*
X403023557Y-122208533D01*
X403107221Y-122052011D01*
X403107222Y-122052009D01*
X403136552Y-122016271D01*
X403219814Y-121914814D01*
X403321271Y-121831552D01*
X403357009Y-121802222D01*
X403374913Y-121792652D01*
X403513533Y-121718557D01*
X403570147Y-121701384D01*
X403683373Y-121667037D01*
X403749558Y-121660518D01*
X403815740Y-121654000D01*
X403904260Y-121654000D01*
X403970442Y-121660518D01*
X403970442Y-121660518D01*
G37*
G36*
X401430442Y-121660518D02*
X401496627Y-121667037D01*
X401609853Y-121701384D01*
X401666467Y-121718557D01*
X401805087Y-121792652D01*
X401822991Y-121802222D01*
X401858729Y-121831552D01*
X401960186Y-121914814D01*
X402043448Y-122016271D01*
X402072778Y-122052009D01*
X402072779Y-122052011D01*
X402156443Y-122208533D01*
X402156443Y-122208534D01*
X402207963Y-122378373D01*
X402225359Y-122555000D01*
X402207963Y-122731627D01*
X402173616Y-122844853D01*
X402156443Y-122901467D01*
X402146592Y-122919896D01*
X402072778Y-123057991D01*
X402043448Y-123093729D01*
X401960186Y-123195186D01*
X401858729Y-123278448D01*
X401822991Y-123307778D01*
X401822989Y-123307779D01*
X401666467Y-123391443D01*
X401609853Y-123408616D01*
X401496627Y-123442963D01*
X401430442Y-123449482D01*
X401364260Y-123456000D01*
X401275740Y-123456000D01*
X401209558Y-123449482D01*
X401143373Y-123442963D01*
X401030147Y-123408616D01*
X400973533Y-123391443D01*
X400817011Y-123307779D01*
X400817009Y-123307778D01*
X400781271Y-123278448D01*
X400679814Y-123195186D01*
X400596552Y-123093729D01*
X400567222Y-123057991D01*
X400493408Y-122919896D01*
X400483557Y-122901467D01*
X400466384Y-122844853D01*
X400432037Y-122731627D01*
X400414641Y-122555000D01*
X400432037Y-122378373D01*
X400483557Y-122208534D01*
X400483557Y-122208533D01*
X400567221Y-122052011D01*
X400567222Y-122052009D01*
X400596552Y-122016271D01*
X400679814Y-121914814D01*
X400781271Y-121831552D01*
X400817009Y-121802222D01*
X400834913Y-121792652D01*
X400973533Y-121718557D01*
X401030147Y-121701384D01*
X401143373Y-121667037D01*
X401209558Y-121660518D01*
X401275740Y-121654000D01*
X401364260Y-121654000D01*
X401430442Y-121660518D01*
X401430442Y-121660518D01*
G37*
G36*
X398890442Y-121660518D02*
X398956627Y-121667037D01*
X399069853Y-121701384D01*
X399126467Y-121718557D01*
X399265087Y-121792652D01*
X399282991Y-121802222D01*
X399318729Y-121831552D01*
X399420186Y-121914814D01*
X399503448Y-122016271D01*
X399532778Y-122052009D01*
X399532779Y-122052011D01*
X399616443Y-122208533D01*
X399616443Y-122208534D01*
X399667963Y-122378373D01*
X399685359Y-122555000D01*
X399667963Y-122731627D01*
X399633616Y-122844853D01*
X399616443Y-122901467D01*
X399606592Y-122919896D01*
X399532778Y-123057991D01*
X399503448Y-123093729D01*
X399420186Y-123195186D01*
X399318729Y-123278448D01*
X399282991Y-123307778D01*
X399282989Y-123307779D01*
X399126467Y-123391443D01*
X399069853Y-123408616D01*
X398956627Y-123442963D01*
X398890442Y-123449482D01*
X398824260Y-123456000D01*
X398735740Y-123456000D01*
X398669558Y-123449482D01*
X398603373Y-123442963D01*
X398490147Y-123408616D01*
X398433533Y-123391443D01*
X398277011Y-123307779D01*
X398277009Y-123307778D01*
X398241271Y-123278448D01*
X398139814Y-123195186D01*
X398056552Y-123093729D01*
X398027222Y-123057991D01*
X397953408Y-122919896D01*
X397943557Y-122901467D01*
X397926384Y-122844853D01*
X397892037Y-122731627D01*
X397874641Y-122555000D01*
X397892037Y-122378373D01*
X397943557Y-122208534D01*
X397943557Y-122208533D01*
X398027221Y-122052011D01*
X398027222Y-122052009D01*
X398056552Y-122016271D01*
X398139814Y-121914814D01*
X398241271Y-121831552D01*
X398277009Y-121802222D01*
X398294913Y-121792652D01*
X398433533Y-121718557D01*
X398490147Y-121701384D01*
X398603373Y-121667037D01*
X398669558Y-121660518D01*
X398735740Y-121654000D01*
X398824260Y-121654000D01*
X398890442Y-121660518D01*
X398890442Y-121660518D01*
G37*
G36*
X386190442Y-121660518D02*
X386256627Y-121667037D01*
X386369853Y-121701384D01*
X386426467Y-121718557D01*
X386565087Y-121792652D01*
X386582991Y-121802222D01*
X386618729Y-121831552D01*
X386720186Y-121914814D01*
X386803448Y-122016271D01*
X386832778Y-122052009D01*
X386832779Y-122052011D01*
X386916443Y-122208533D01*
X386916443Y-122208534D01*
X386967963Y-122378373D01*
X386985359Y-122555000D01*
X386967963Y-122731627D01*
X386933616Y-122844853D01*
X386916443Y-122901467D01*
X386906592Y-122919896D01*
X386832778Y-123057991D01*
X386803448Y-123093729D01*
X386720186Y-123195186D01*
X386618729Y-123278448D01*
X386582991Y-123307778D01*
X386582989Y-123307779D01*
X386426467Y-123391443D01*
X386369853Y-123408616D01*
X386256627Y-123442963D01*
X386190442Y-123449482D01*
X386124260Y-123456000D01*
X386035740Y-123456000D01*
X385969558Y-123449482D01*
X385903373Y-123442963D01*
X385790147Y-123408616D01*
X385733533Y-123391443D01*
X385577011Y-123307779D01*
X385577009Y-123307778D01*
X385541271Y-123278448D01*
X385439814Y-123195186D01*
X385356552Y-123093729D01*
X385327222Y-123057991D01*
X385253408Y-122919896D01*
X385243557Y-122901467D01*
X385226384Y-122844853D01*
X385192037Y-122731627D01*
X385174641Y-122555000D01*
X385192037Y-122378373D01*
X385243557Y-122208534D01*
X385243557Y-122208533D01*
X385327221Y-122052011D01*
X385327222Y-122052009D01*
X385356552Y-122016271D01*
X385439814Y-121914814D01*
X385541271Y-121831552D01*
X385577009Y-121802222D01*
X385594913Y-121792652D01*
X385733533Y-121718557D01*
X385790147Y-121701384D01*
X385903373Y-121667037D01*
X385969558Y-121660518D01*
X386035740Y-121654000D01*
X386124260Y-121654000D01*
X386190442Y-121660518D01*
X386190442Y-121660518D01*
G37*
G36*
X383650442Y-121660518D02*
X383716627Y-121667037D01*
X383829853Y-121701384D01*
X383886467Y-121718557D01*
X384025087Y-121792652D01*
X384042991Y-121802222D01*
X384078729Y-121831552D01*
X384180186Y-121914814D01*
X384263448Y-122016271D01*
X384292778Y-122052009D01*
X384292779Y-122052011D01*
X384376443Y-122208533D01*
X384376443Y-122208534D01*
X384427963Y-122378373D01*
X384445359Y-122555000D01*
X384427963Y-122731627D01*
X384393616Y-122844853D01*
X384376443Y-122901467D01*
X384366592Y-122919896D01*
X384292778Y-123057991D01*
X384263448Y-123093729D01*
X384180186Y-123195186D01*
X384078729Y-123278448D01*
X384042991Y-123307778D01*
X384042989Y-123307779D01*
X383886467Y-123391443D01*
X383829853Y-123408616D01*
X383716627Y-123442963D01*
X383650442Y-123449482D01*
X383584260Y-123456000D01*
X383495740Y-123456000D01*
X383429558Y-123449482D01*
X383363373Y-123442963D01*
X383250147Y-123408616D01*
X383193533Y-123391443D01*
X383037011Y-123307779D01*
X383037009Y-123307778D01*
X383001271Y-123278448D01*
X382899814Y-123195186D01*
X382816552Y-123093729D01*
X382787222Y-123057991D01*
X382713408Y-122919896D01*
X382703557Y-122901467D01*
X382686384Y-122844853D01*
X382652037Y-122731627D01*
X382634641Y-122555000D01*
X382652037Y-122378373D01*
X382703557Y-122208534D01*
X382703557Y-122208533D01*
X382787221Y-122052011D01*
X382787222Y-122052009D01*
X382816552Y-122016271D01*
X382899814Y-121914814D01*
X383001271Y-121831552D01*
X383037009Y-121802222D01*
X383054913Y-121792652D01*
X383193533Y-121718557D01*
X383250147Y-121701384D01*
X383363373Y-121667037D01*
X383429558Y-121660518D01*
X383495740Y-121654000D01*
X383584260Y-121654000D01*
X383650442Y-121660518D01*
X383650442Y-121660518D01*
G37*
G36*
X381110442Y-121660518D02*
X381176627Y-121667037D01*
X381289853Y-121701384D01*
X381346467Y-121718557D01*
X381485087Y-121792652D01*
X381502991Y-121802222D01*
X381538729Y-121831552D01*
X381640186Y-121914814D01*
X381723448Y-122016271D01*
X381752778Y-122052009D01*
X381752779Y-122052011D01*
X381836443Y-122208533D01*
X381836443Y-122208534D01*
X381887963Y-122378373D01*
X381905359Y-122555000D01*
X381887963Y-122731627D01*
X381853616Y-122844853D01*
X381836443Y-122901467D01*
X381826592Y-122919896D01*
X381752778Y-123057991D01*
X381723448Y-123093729D01*
X381640186Y-123195186D01*
X381538729Y-123278448D01*
X381502991Y-123307778D01*
X381502989Y-123307779D01*
X381346467Y-123391443D01*
X381289853Y-123408616D01*
X381176627Y-123442963D01*
X381110442Y-123449482D01*
X381044260Y-123456000D01*
X380955740Y-123456000D01*
X380889558Y-123449482D01*
X380823373Y-123442963D01*
X380710147Y-123408616D01*
X380653533Y-123391443D01*
X380497011Y-123307779D01*
X380497009Y-123307778D01*
X380461271Y-123278448D01*
X380359814Y-123195186D01*
X380276552Y-123093729D01*
X380247222Y-123057991D01*
X380173408Y-122919896D01*
X380163557Y-122901467D01*
X380146384Y-122844853D01*
X380112037Y-122731627D01*
X380094641Y-122555000D01*
X380112037Y-122378373D01*
X380163557Y-122208534D01*
X380163557Y-122208533D01*
X380247221Y-122052011D01*
X380247222Y-122052009D01*
X380276552Y-122016271D01*
X380359814Y-121914814D01*
X380461271Y-121831552D01*
X380497009Y-121802222D01*
X380514913Y-121792652D01*
X380653533Y-121718557D01*
X380710147Y-121701384D01*
X380823373Y-121667037D01*
X380889558Y-121660518D01*
X380955740Y-121654000D01*
X381044260Y-121654000D01*
X381110442Y-121660518D01*
X381110442Y-121660518D01*
G37*
G36*
X378570442Y-121660518D02*
X378636627Y-121667037D01*
X378749853Y-121701384D01*
X378806467Y-121718557D01*
X378945087Y-121792652D01*
X378962991Y-121802222D01*
X378998729Y-121831552D01*
X379100186Y-121914814D01*
X379183448Y-122016271D01*
X379212778Y-122052009D01*
X379212779Y-122052011D01*
X379296443Y-122208533D01*
X379296443Y-122208534D01*
X379347963Y-122378373D01*
X379365359Y-122555000D01*
X379347963Y-122731627D01*
X379313616Y-122844853D01*
X379296443Y-122901467D01*
X379286592Y-122919896D01*
X379212778Y-123057991D01*
X379183448Y-123093729D01*
X379100186Y-123195186D01*
X378998729Y-123278448D01*
X378962991Y-123307778D01*
X378962989Y-123307779D01*
X378806467Y-123391443D01*
X378749853Y-123408616D01*
X378636627Y-123442963D01*
X378570442Y-123449482D01*
X378504260Y-123456000D01*
X378415740Y-123456000D01*
X378349558Y-123449482D01*
X378283373Y-123442963D01*
X378170147Y-123408616D01*
X378113533Y-123391443D01*
X377957011Y-123307779D01*
X377957009Y-123307778D01*
X377921271Y-123278448D01*
X377819814Y-123195186D01*
X377736552Y-123093729D01*
X377707222Y-123057991D01*
X377633408Y-122919896D01*
X377623557Y-122901467D01*
X377606384Y-122844853D01*
X377572037Y-122731627D01*
X377554641Y-122555000D01*
X377572037Y-122378373D01*
X377623557Y-122208534D01*
X377623557Y-122208533D01*
X377707221Y-122052011D01*
X377707222Y-122052009D01*
X377736552Y-122016271D01*
X377819814Y-121914814D01*
X377921271Y-121831552D01*
X377957009Y-121802222D01*
X377974913Y-121792652D01*
X378113533Y-121718557D01*
X378170147Y-121701384D01*
X378283373Y-121667037D01*
X378349558Y-121660518D01*
X378415740Y-121654000D01*
X378504260Y-121654000D01*
X378570442Y-121660518D01*
X378570442Y-121660518D01*
G37*
G36*
X376821000Y-123456000D02*
X375019000Y-123456000D01*
X375019000Y-121654000D01*
X376821000Y-121654000D01*
X376821000Y-123456000D01*
X376821000Y-123456000D01*
G37*
G36*
X388730442Y-121660518D02*
X388796627Y-121667037D01*
X388909853Y-121701384D01*
X388966467Y-121718557D01*
X389105087Y-121792652D01*
X389122991Y-121802222D01*
X389158729Y-121831552D01*
X389260186Y-121914814D01*
X389343448Y-122016271D01*
X389372778Y-122052009D01*
X389372779Y-122052011D01*
X389456443Y-122208533D01*
X389456443Y-122208534D01*
X389507963Y-122378373D01*
X389525359Y-122555000D01*
X389507963Y-122731627D01*
X389473616Y-122844853D01*
X389456443Y-122901467D01*
X389446592Y-122919896D01*
X389372778Y-123057991D01*
X389343448Y-123093729D01*
X389260186Y-123195186D01*
X389158729Y-123278448D01*
X389122991Y-123307778D01*
X389122989Y-123307779D01*
X388966467Y-123391443D01*
X388909853Y-123408616D01*
X388796627Y-123442963D01*
X388730442Y-123449482D01*
X388664260Y-123456000D01*
X388575740Y-123456000D01*
X388509558Y-123449482D01*
X388443373Y-123442963D01*
X388330147Y-123408616D01*
X388273533Y-123391443D01*
X388117011Y-123307779D01*
X388117009Y-123307778D01*
X388081271Y-123278448D01*
X387979814Y-123195186D01*
X387896552Y-123093729D01*
X387867222Y-123057991D01*
X387793408Y-122919896D01*
X387783557Y-122901467D01*
X387766384Y-122844853D01*
X387732037Y-122731627D01*
X387714641Y-122555000D01*
X387732037Y-122378373D01*
X387783557Y-122208534D01*
X387783557Y-122208533D01*
X387867221Y-122052011D01*
X387867222Y-122052009D01*
X387896552Y-122016271D01*
X387979814Y-121914814D01*
X388081271Y-121831552D01*
X388117009Y-121802222D01*
X388134913Y-121792652D01*
X388273533Y-121718557D01*
X388330147Y-121701384D01*
X388443373Y-121667037D01*
X388509558Y-121660518D01*
X388575740Y-121654000D01*
X388664260Y-121654000D01*
X388730442Y-121660518D01*
X388730442Y-121660518D01*
G37*
G36*
X396350442Y-121660518D02*
X396416627Y-121667037D01*
X396529853Y-121701384D01*
X396586467Y-121718557D01*
X396725087Y-121792652D01*
X396742991Y-121802222D01*
X396778729Y-121831552D01*
X396880186Y-121914814D01*
X396963448Y-122016271D01*
X396992778Y-122052009D01*
X396992779Y-122052011D01*
X397076443Y-122208533D01*
X397076443Y-122208534D01*
X397127963Y-122378373D01*
X397145359Y-122555000D01*
X397127963Y-122731627D01*
X397093616Y-122844853D01*
X397076443Y-122901467D01*
X397066592Y-122919896D01*
X396992778Y-123057991D01*
X396963448Y-123093729D01*
X396880186Y-123195186D01*
X396778729Y-123278448D01*
X396742991Y-123307778D01*
X396742989Y-123307779D01*
X396586467Y-123391443D01*
X396529853Y-123408616D01*
X396416627Y-123442963D01*
X396350442Y-123449482D01*
X396284260Y-123456000D01*
X396195740Y-123456000D01*
X396129558Y-123449482D01*
X396063373Y-123442963D01*
X395950147Y-123408616D01*
X395893533Y-123391443D01*
X395737011Y-123307779D01*
X395737009Y-123307778D01*
X395701271Y-123278448D01*
X395599814Y-123195186D01*
X395516552Y-123093729D01*
X395487222Y-123057991D01*
X395413408Y-122919896D01*
X395403557Y-122901467D01*
X395386384Y-122844853D01*
X395352037Y-122731627D01*
X395334641Y-122555000D01*
X395352037Y-122378373D01*
X395403557Y-122208534D01*
X395403557Y-122208533D01*
X395487221Y-122052011D01*
X395487222Y-122052009D01*
X395516552Y-122016271D01*
X395599814Y-121914814D01*
X395701271Y-121831552D01*
X395737009Y-121802222D01*
X395754913Y-121792652D01*
X395893533Y-121718557D01*
X395950147Y-121701384D01*
X396063373Y-121667037D01*
X396129558Y-121660518D01*
X396195740Y-121654000D01*
X396284260Y-121654000D01*
X396350442Y-121660518D01*
X396350442Y-121660518D01*
G37*
G36*
X393810442Y-121660518D02*
X393876627Y-121667037D01*
X393989853Y-121701384D01*
X394046467Y-121718557D01*
X394185087Y-121792652D01*
X394202991Y-121802222D01*
X394238729Y-121831552D01*
X394340186Y-121914814D01*
X394423448Y-122016271D01*
X394452778Y-122052009D01*
X394452779Y-122052011D01*
X394536443Y-122208533D01*
X394536443Y-122208534D01*
X394587963Y-122378373D01*
X394605359Y-122555000D01*
X394587963Y-122731627D01*
X394553616Y-122844853D01*
X394536443Y-122901467D01*
X394526592Y-122919896D01*
X394452778Y-123057991D01*
X394423448Y-123093729D01*
X394340186Y-123195186D01*
X394238729Y-123278448D01*
X394202991Y-123307778D01*
X394202989Y-123307779D01*
X394046467Y-123391443D01*
X393989853Y-123408616D01*
X393876627Y-123442963D01*
X393810442Y-123449482D01*
X393744260Y-123456000D01*
X393655740Y-123456000D01*
X393589558Y-123449482D01*
X393523373Y-123442963D01*
X393410147Y-123408616D01*
X393353533Y-123391443D01*
X393197011Y-123307779D01*
X393197009Y-123307778D01*
X393161271Y-123278448D01*
X393059814Y-123195186D01*
X392976552Y-123093729D01*
X392947222Y-123057991D01*
X392873408Y-122919896D01*
X392863557Y-122901467D01*
X392846384Y-122844853D01*
X392812037Y-122731627D01*
X392794641Y-122555000D01*
X392812037Y-122378373D01*
X392863557Y-122208534D01*
X392863557Y-122208533D01*
X392947221Y-122052011D01*
X392947222Y-122052009D01*
X392976552Y-122016271D01*
X393059814Y-121914814D01*
X393161271Y-121831552D01*
X393197009Y-121802222D01*
X393214913Y-121792652D01*
X393353533Y-121718557D01*
X393410147Y-121701384D01*
X393523373Y-121667037D01*
X393589558Y-121660518D01*
X393655740Y-121654000D01*
X393744260Y-121654000D01*
X393810442Y-121660518D01*
X393810442Y-121660518D01*
G37*
G36*
X409841000Y-119011000D02*
X408039000Y-119011000D01*
X408039000Y-117209000D01*
X409841000Y-117209000D01*
X409841000Y-119011000D01*
X409841000Y-119011000D01*
G37*
G36*
X409050443Y-114675519D02*
X409116627Y-114682037D01*
X409229853Y-114716384D01*
X409286467Y-114733557D01*
X409425087Y-114807652D01*
X409442991Y-114817222D01*
X409478729Y-114846552D01*
X409580186Y-114929814D01*
X409663448Y-115031271D01*
X409692778Y-115067009D01*
X409692779Y-115067011D01*
X409776443Y-115223533D01*
X409776443Y-115223534D01*
X409827963Y-115393373D01*
X409845359Y-115570000D01*
X409827963Y-115746627D01*
X409793616Y-115859853D01*
X409776443Y-115916467D01*
X409702348Y-116055087D01*
X409692778Y-116072991D01*
X409663448Y-116108729D01*
X409580186Y-116210186D01*
X409478729Y-116293448D01*
X409442991Y-116322778D01*
X409442989Y-116322779D01*
X409286467Y-116406443D01*
X409229853Y-116423616D01*
X409116627Y-116457963D01*
X409050442Y-116464482D01*
X408984260Y-116471000D01*
X408895740Y-116471000D01*
X408829558Y-116464482D01*
X408763373Y-116457963D01*
X408650147Y-116423616D01*
X408593533Y-116406443D01*
X408437011Y-116322779D01*
X408437009Y-116322778D01*
X408401271Y-116293448D01*
X408299814Y-116210186D01*
X408216552Y-116108729D01*
X408187222Y-116072991D01*
X408177652Y-116055087D01*
X408103557Y-115916467D01*
X408086384Y-115859853D01*
X408052037Y-115746627D01*
X408034641Y-115570000D01*
X408052037Y-115393373D01*
X408103557Y-115223534D01*
X408103557Y-115223533D01*
X408187221Y-115067011D01*
X408187222Y-115067009D01*
X408216552Y-115031271D01*
X408299814Y-114929814D01*
X408401271Y-114846552D01*
X408437009Y-114817222D01*
X408454913Y-114807652D01*
X408593533Y-114733557D01*
X408650147Y-114716384D01*
X408763373Y-114682037D01*
X408829557Y-114675519D01*
X408895740Y-114669000D01*
X408984260Y-114669000D01*
X409050443Y-114675519D01*
X409050443Y-114675519D01*
G37*
G36*
X409050443Y-112135519D02*
X409116627Y-112142037D01*
X409229853Y-112176384D01*
X409286467Y-112193557D01*
X409425087Y-112267652D01*
X409442991Y-112277222D01*
X409478729Y-112306552D01*
X409580186Y-112389814D01*
X409663448Y-112491271D01*
X409692778Y-112527009D01*
X409692779Y-112527011D01*
X409776443Y-112683533D01*
X409776443Y-112683534D01*
X409827963Y-112853373D01*
X409845359Y-113030000D01*
X409827963Y-113206627D01*
X409793616Y-113319853D01*
X409776443Y-113376467D01*
X409702348Y-113515087D01*
X409692778Y-113532991D01*
X409663448Y-113568729D01*
X409580186Y-113670186D01*
X409478729Y-113753448D01*
X409442991Y-113782778D01*
X409442989Y-113782779D01*
X409286467Y-113866443D01*
X409229853Y-113883616D01*
X409116627Y-113917963D01*
X409050443Y-113924481D01*
X408984260Y-113931000D01*
X408895740Y-113931000D01*
X408829557Y-113924481D01*
X408763373Y-113917963D01*
X408650147Y-113883616D01*
X408593533Y-113866443D01*
X408437011Y-113782779D01*
X408437009Y-113782778D01*
X408401271Y-113753448D01*
X408299814Y-113670186D01*
X408216552Y-113568729D01*
X408187222Y-113532991D01*
X408177652Y-113515087D01*
X408103557Y-113376467D01*
X408086384Y-113319853D01*
X408052037Y-113206627D01*
X408034641Y-113030000D01*
X408052037Y-112853373D01*
X408103557Y-112683534D01*
X408103557Y-112683533D01*
X408187221Y-112527011D01*
X408187222Y-112527009D01*
X408216552Y-112491271D01*
X408299814Y-112389814D01*
X408401271Y-112306552D01*
X408437009Y-112277222D01*
X408454913Y-112267652D01*
X408593533Y-112193557D01*
X408650147Y-112176384D01*
X408763373Y-112142037D01*
X408829557Y-112135519D01*
X408895740Y-112129000D01*
X408984260Y-112129000D01*
X409050443Y-112135519D01*
X409050443Y-112135519D01*
G37*
G36*
X385076000Y-113001000D02*
X383274000Y-113001000D01*
X383274000Y-110899000D01*
X385076000Y-110899000D01*
X385076000Y-113001000D01*
X385076000Y-113001000D01*
G37*
G36*
X381416000Y-112946000D02*
X379314000Y-112946000D01*
X379314000Y-111844000D01*
X381416000Y-111844000D01*
X381416000Y-112946000D01*
X381416000Y-112946000D01*
G37*
G36*
X375066000Y-112946000D02*
X372964000Y-112946000D01*
X372964000Y-111844000D01*
X375066000Y-111844000D01*
X375066000Y-112946000D01*
X375066000Y-112946000D01*
G37*
G36*
X409050442Y-109595518D02*
X409116627Y-109602037D01*
X409229853Y-109636384D01*
X409286467Y-109653557D01*
X409425087Y-109727652D01*
X409442991Y-109737222D01*
X409478729Y-109766552D01*
X409580186Y-109849814D01*
X409663448Y-109951271D01*
X409692778Y-109987009D01*
X409692779Y-109987011D01*
X409776443Y-110143533D01*
X409776443Y-110143534D01*
X409827963Y-110313373D01*
X409845359Y-110490000D01*
X409827963Y-110666627D01*
X409793616Y-110779853D01*
X409776443Y-110836467D01*
X409743018Y-110899000D01*
X409692778Y-110992991D01*
X409663448Y-111028729D01*
X409580186Y-111130186D01*
X409478729Y-111213448D01*
X409442991Y-111242778D01*
X409442989Y-111242779D01*
X409286467Y-111326443D01*
X409229853Y-111343616D01*
X409116627Y-111377963D01*
X409050443Y-111384481D01*
X408984260Y-111391000D01*
X408895740Y-111391000D01*
X408829557Y-111384481D01*
X408763373Y-111377963D01*
X408650147Y-111343616D01*
X408593533Y-111326443D01*
X408437011Y-111242779D01*
X408437009Y-111242778D01*
X408401271Y-111213448D01*
X408299814Y-111130186D01*
X408216552Y-111028729D01*
X408187222Y-110992991D01*
X408136982Y-110899000D01*
X408103557Y-110836467D01*
X408086384Y-110779853D01*
X408052037Y-110666627D01*
X408034641Y-110490000D01*
X408052037Y-110313373D01*
X408103557Y-110143534D01*
X408103557Y-110143533D01*
X408187221Y-109987011D01*
X408187222Y-109987009D01*
X408216552Y-109951271D01*
X408299814Y-109849814D01*
X408401271Y-109766552D01*
X408437009Y-109737222D01*
X408454913Y-109727652D01*
X408593533Y-109653557D01*
X408650147Y-109636384D01*
X408763373Y-109602037D01*
X408829558Y-109595518D01*
X408895740Y-109589000D01*
X408984260Y-109589000D01*
X409050442Y-109595518D01*
X409050442Y-109595518D01*
G37*
G36*
X418731000Y-111391000D02*
X416929000Y-111391000D01*
X416929000Y-109589000D01*
X418731000Y-109589000D01*
X418731000Y-111391000D01*
X418731000Y-111391000D01*
G37*
G36*
X381416000Y-109771000D02*
X379314000Y-109771000D01*
X379314000Y-108669000D01*
X381416000Y-108669000D01*
X381416000Y-109771000D01*
X381416000Y-109771000D01*
G37*
G36*
X375066000Y-109771000D02*
X372964000Y-109771000D01*
X372964000Y-108669000D01*
X375066000Y-108669000D01*
X375066000Y-109771000D01*
X375066000Y-109771000D01*
G37*
G36*
X385076000Y-109001000D02*
X383274000Y-109001000D01*
X383274000Y-106899000D01*
X385076000Y-106899000D01*
X385076000Y-109001000D01*
X385076000Y-109001000D01*
G37*
G36*
X417940442Y-107055518D02*
X418006627Y-107062037D01*
X418119853Y-107096384D01*
X418176467Y-107113557D01*
X418315087Y-107187652D01*
X418332991Y-107197222D01*
X418338368Y-107201635D01*
X418470186Y-107309814D01*
X418553448Y-107411271D01*
X418582778Y-107447009D01*
X418582779Y-107447011D01*
X418666443Y-107603533D01*
X418666443Y-107603534D01*
X418717963Y-107773373D01*
X418735359Y-107950000D01*
X418717963Y-108126627D01*
X418692964Y-108209038D01*
X418666443Y-108296467D01*
X418645844Y-108335004D01*
X418582778Y-108452991D01*
X418553448Y-108488729D01*
X418470186Y-108590186D01*
X418374149Y-108669000D01*
X418332991Y-108702778D01*
X418332989Y-108702779D01*
X418176467Y-108786443D01*
X418119853Y-108803616D01*
X418006627Y-108837963D01*
X417940442Y-108844482D01*
X417874260Y-108851000D01*
X417785740Y-108851000D01*
X417719558Y-108844482D01*
X417653373Y-108837963D01*
X417540147Y-108803616D01*
X417483533Y-108786443D01*
X417327011Y-108702779D01*
X417327009Y-108702778D01*
X417285851Y-108669000D01*
X417189814Y-108590186D01*
X417106552Y-108488729D01*
X417077222Y-108452991D01*
X417014156Y-108335004D01*
X416993557Y-108296467D01*
X416967036Y-108209038D01*
X416942037Y-108126627D01*
X416924641Y-107950000D01*
X416942037Y-107773373D01*
X416993557Y-107603534D01*
X416993557Y-107603533D01*
X417077221Y-107447011D01*
X417077222Y-107447009D01*
X417106552Y-107411271D01*
X417189814Y-107309814D01*
X417321632Y-107201635D01*
X417327009Y-107197222D01*
X417344913Y-107187652D01*
X417483533Y-107113557D01*
X417540147Y-107096384D01*
X417653373Y-107062037D01*
X417719558Y-107055518D01*
X417785740Y-107049000D01*
X417874260Y-107049000D01*
X417940442Y-107055518D01*
X417940442Y-107055518D01*
G37*
G36*
X409050442Y-107055518D02*
X409116627Y-107062037D01*
X409229853Y-107096384D01*
X409286467Y-107113557D01*
X409425087Y-107187652D01*
X409442991Y-107197222D01*
X409448368Y-107201635D01*
X409580186Y-107309814D01*
X409663448Y-107411271D01*
X409692778Y-107447009D01*
X409692779Y-107447011D01*
X409776443Y-107603533D01*
X409776443Y-107603534D01*
X409827963Y-107773373D01*
X409845359Y-107950000D01*
X409827963Y-108126627D01*
X409802964Y-108209038D01*
X409776443Y-108296467D01*
X409755844Y-108335004D01*
X409692778Y-108452991D01*
X409663448Y-108488729D01*
X409580186Y-108590186D01*
X409484149Y-108669000D01*
X409442991Y-108702778D01*
X409442989Y-108702779D01*
X409286467Y-108786443D01*
X409229853Y-108803616D01*
X409116627Y-108837963D01*
X409050442Y-108844482D01*
X408984260Y-108851000D01*
X408895740Y-108851000D01*
X408829558Y-108844482D01*
X408763373Y-108837963D01*
X408650147Y-108803616D01*
X408593533Y-108786443D01*
X408437011Y-108702779D01*
X408437009Y-108702778D01*
X408395851Y-108669000D01*
X408299814Y-108590186D01*
X408216552Y-108488729D01*
X408187222Y-108452991D01*
X408124156Y-108335004D01*
X408103557Y-108296467D01*
X408077036Y-108209038D01*
X408052037Y-108126627D01*
X408034641Y-107950000D01*
X408052037Y-107773373D01*
X408103557Y-107603534D01*
X408103557Y-107603533D01*
X408187221Y-107447011D01*
X408187222Y-107447009D01*
X408216552Y-107411271D01*
X408299814Y-107309814D01*
X408431632Y-107201635D01*
X408437009Y-107197222D01*
X408454913Y-107187652D01*
X408593533Y-107113557D01*
X408650147Y-107096384D01*
X408763373Y-107062037D01*
X408829558Y-107055518D01*
X408895740Y-107049000D01*
X408984260Y-107049000D01*
X409050442Y-107055518D01*
X409050442Y-107055518D01*
G37*
G36*
X463885734Y-106208232D02*
X464095202Y-106294996D01*
X464283723Y-106420962D01*
X464444038Y-106581277D01*
X464570004Y-106769798D01*
X464656768Y-106979266D01*
X464701000Y-107201635D01*
X464701000Y-107428365D01*
X464656768Y-107650734D01*
X464570004Y-107860202D01*
X464444038Y-108048723D01*
X464283723Y-108209038D01*
X464095202Y-108335004D01*
X463885734Y-108421768D01*
X463663365Y-108466000D01*
X463436635Y-108466000D01*
X463214266Y-108421768D01*
X463004798Y-108335004D01*
X462816277Y-108209038D01*
X462655962Y-108048723D01*
X462529996Y-107860202D01*
X462443232Y-107650734D01*
X462399000Y-107428365D01*
X462399000Y-107201635D01*
X462443232Y-106979266D01*
X462529996Y-106769798D01*
X462655962Y-106581277D01*
X462816277Y-106420962D01*
X463004798Y-106294996D01*
X463214266Y-106208232D01*
X463436635Y-106164000D01*
X463663365Y-106164000D01*
X463885734Y-106208232D01*
X463885734Y-106208232D01*
G37*
G36*
X458805734Y-106208232D02*
X459015202Y-106294996D01*
X459203723Y-106420962D01*
X459364038Y-106581277D01*
X459490004Y-106769798D01*
X459576768Y-106979266D01*
X459621000Y-107201635D01*
X459621000Y-107428365D01*
X459576768Y-107650734D01*
X459490004Y-107860202D01*
X459364038Y-108048723D01*
X459203723Y-108209038D01*
X459015202Y-108335004D01*
X458805734Y-108421768D01*
X458583365Y-108466000D01*
X458356635Y-108466000D01*
X458134266Y-108421768D01*
X457924798Y-108335004D01*
X457736277Y-108209038D01*
X457575962Y-108048723D01*
X457449996Y-107860202D01*
X457363232Y-107650734D01*
X457319000Y-107428365D01*
X457319000Y-107201635D01*
X457363232Y-106979266D01*
X457449996Y-106769798D01*
X457575962Y-106581277D01*
X457736277Y-106420962D01*
X457924798Y-106294996D01*
X458134266Y-106208232D01*
X458356635Y-106164000D01*
X458583365Y-106164000D01*
X458805734Y-106208232D01*
X458805734Y-106208232D01*
G37*
G36*
X409050443Y-104515519D02*
X409116627Y-104522037D01*
X409229853Y-104556384D01*
X409286467Y-104573557D01*
X409425087Y-104647652D01*
X409442991Y-104657222D01*
X409478729Y-104686552D01*
X409580186Y-104769814D01*
X409663448Y-104871271D01*
X409692778Y-104907009D01*
X409692779Y-104907011D01*
X409776443Y-105063533D01*
X409776443Y-105063534D01*
X409827963Y-105233373D01*
X409845359Y-105410000D01*
X409827963Y-105586627D01*
X409793616Y-105699853D01*
X409776443Y-105756467D01*
X409760865Y-105785611D01*
X409692778Y-105912991D01*
X409663448Y-105948729D01*
X409580186Y-106050186D01*
X409478729Y-106133448D01*
X409442991Y-106162778D01*
X409442989Y-106162779D01*
X409286467Y-106246443D01*
X409229853Y-106263616D01*
X409116627Y-106297963D01*
X409050442Y-106304482D01*
X408984260Y-106311000D01*
X408895740Y-106311000D01*
X408829558Y-106304482D01*
X408763373Y-106297963D01*
X408650147Y-106263616D01*
X408593533Y-106246443D01*
X408437011Y-106162779D01*
X408437009Y-106162778D01*
X408401271Y-106133448D01*
X408299814Y-106050186D01*
X408216552Y-105948729D01*
X408187222Y-105912991D01*
X408119135Y-105785611D01*
X408103557Y-105756467D01*
X408086384Y-105699853D01*
X408052037Y-105586627D01*
X408034641Y-105410000D01*
X408052037Y-105233373D01*
X408103557Y-105063534D01*
X408103557Y-105063533D01*
X408187221Y-104907011D01*
X408187222Y-104907009D01*
X408216552Y-104871271D01*
X408299814Y-104769814D01*
X408401271Y-104686552D01*
X408437009Y-104657222D01*
X408454913Y-104647652D01*
X408593533Y-104573557D01*
X408650147Y-104556384D01*
X408763373Y-104522037D01*
X408829557Y-104515519D01*
X408895740Y-104509000D01*
X408984260Y-104509000D01*
X409050443Y-104515519D01*
X409050443Y-104515519D01*
G37*
G36*
X417940443Y-104515519D02*
X418006627Y-104522037D01*
X418119853Y-104556384D01*
X418176467Y-104573557D01*
X418315087Y-104647652D01*
X418332991Y-104657222D01*
X418368729Y-104686552D01*
X418470186Y-104769814D01*
X418553448Y-104871271D01*
X418582778Y-104907009D01*
X418582779Y-104907011D01*
X418666443Y-105063533D01*
X418666443Y-105063534D01*
X418717963Y-105233373D01*
X418735359Y-105410000D01*
X418717963Y-105586627D01*
X418683616Y-105699853D01*
X418666443Y-105756467D01*
X418650865Y-105785611D01*
X418582778Y-105912991D01*
X418553448Y-105948729D01*
X418470186Y-106050186D01*
X418368729Y-106133448D01*
X418332991Y-106162778D01*
X418332989Y-106162779D01*
X418176467Y-106246443D01*
X418119853Y-106263616D01*
X418006627Y-106297963D01*
X417940442Y-106304482D01*
X417874260Y-106311000D01*
X417785740Y-106311000D01*
X417719558Y-106304482D01*
X417653373Y-106297963D01*
X417540147Y-106263616D01*
X417483533Y-106246443D01*
X417327011Y-106162779D01*
X417327009Y-106162778D01*
X417291271Y-106133448D01*
X417189814Y-106050186D01*
X417106552Y-105948729D01*
X417077222Y-105912991D01*
X417009135Y-105785611D01*
X416993557Y-105756467D01*
X416976384Y-105699853D01*
X416942037Y-105586627D01*
X416924641Y-105410000D01*
X416942037Y-105233373D01*
X416993557Y-105063534D01*
X416993557Y-105063533D01*
X417077221Y-104907011D01*
X417077222Y-104907009D01*
X417106552Y-104871271D01*
X417189814Y-104769814D01*
X417291271Y-104686552D01*
X417327009Y-104657222D01*
X417344913Y-104647652D01*
X417483533Y-104573557D01*
X417540147Y-104556384D01*
X417653373Y-104522037D01*
X417719557Y-104515519D01*
X417785740Y-104509000D01*
X417874260Y-104509000D01*
X417940443Y-104515519D01*
X417940443Y-104515519D01*
G37*
G36*
X461316565Y-103764389D02*
X461507834Y-103843615D01*
X461679976Y-103958637D01*
X461826363Y-104105024D01*
X461941385Y-104277166D01*
X462020611Y-104468435D01*
X462061000Y-104671484D01*
X462061000Y-104878516D01*
X462020611Y-105081565D01*
X461941385Y-105272834D01*
X461826363Y-105444976D01*
X461679976Y-105591363D01*
X461507834Y-105706385D01*
X461316565Y-105785611D01*
X461113516Y-105826000D01*
X460906484Y-105826000D01*
X460703435Y-105785611D01*
X460512166Y-105706385D01*
X460340024Y-105591363D01*
X460193637Y-105444976D01*
X460078615Y-105272834D01*
X459999389Y-105081565D01*
X459959000Y-104878516D01*
X459959000Y-104671484D01*
X459999389Y-104468435D01*
X460078615Y-104277166D01*
X460193637Y-104105024D01*
X460340024Y-103958637D01*
X460512166Y-103843615D01*
X460703435Y-103764389D01*
X460906484Y-103724000D01*
X461113516Y-103724000D01*
X461316565Y-103764389D01*
X461316565Y-103764389D01*
G37*
G36*
X452251000Y-105361000D02*
X449449000Y-105361000D01*
X449449000Y-101509000D01*
X452251000Y-101509000D01*
X452251000Y-105361000D01*
X452251000Y-105361000D01*
G37*
G36*
X409050442Y-101975518D02*
X409116627Y-101982037D01*
X409229853Y-102016384D01*
X409286467Y-102033557D01*
X409425087Y-102107652D01*
X409442991Y-102117222D01*
X409448368Y-102121635D01*
X409580186Y-102229814D01*
X409663448Y-102331271D01*
X409692778Y-102367009D01*
X409692779Y-102367011D01*
X409776443Y-102523533D01*
X409776443Y-102523534D01*
X409827963Y-102693373D01*
X409845359Y-102870000D01*
X409827963Y-103046627D01*
X409802964Y-103129038D01*
X409776443Y-103216467D01*
X409755844Y-103255004D01*
X409692778Y-103372991D01*
X409663448Y-103408729D01*
X409580186Y-103510186D01*
X409478729Y-103593448D01*
X409442991Y-103622778D01*
X409442989Y-103622779D01*
X409286467Y-103706443D01*
X409229853Y-103723616D01*
X409116627Y-103757963D01*
X409051382Y-103764389D01*
X408984260Y-103771000D01*
X408895740Y-103771000D01*
X408828618Y-103764389D01*
X408763373Y-103757963D01*
X408650147Y-103723616D01*
X408593533Y-103706443D01*
X408437011Y-103622779D01*
X408437009Y-103622778D01*
X408401271Y-103593448D01*
X408299814Y-103510186D01*
X408216552Y-103408729D01*
X408187222Y-103372991D01*
X408124156Y-103255004D01*
X408103557Y-103216467D01*
X408077036Y-103129038D01*
X408052037Y-103046627D01*
X408034641Y-102870000D01*
X408052037Y-102693373D01*
X408103557Y-102523534D01*
X408103557Y-102523533D01*
X408187221Y-102367011D01*
X408187222Y-102367009D01*
X408216552Y-102331271D01*
X408299814Y-102229814D01*
X408431632Y-102121635D01*
X408437009Y-102117222D01*
X408454913Y-102107652D01*
X408593533Y-102033557D01*
X408650147Y-102016384D01*
X408763373Y-101982037D01*
X408829558Y-101975518D01*
X408895740Y-101969000D01*
X408984260Y-101969000D01*
X409050442Y-101975518D01*
X409050442Y-101975518D01*
G37*
G36*
X417940442Y-101975518D02*
X418006627Y-101982037D01*
X418119853Y-102016384D01*
X418176467Y-102033557D01*
X418315087Y-102107652D01*
X418332991Y-102117222D01*
X418338368Y-102121635D01*
X418470186Y-102229814D01*
X418553448Y-102331271D01*
X418582778Y-102367009D01*
X418582779Y-102367011D01*
X418666443Y-102523533D01*
X418666443Y-102523534D01*
X418717963Y-102693373D01*
X418735359Y-102870000D01*
X418717963Y-103046627D01*
X418692964Y-103129038D01*
X418666443Y-103216467D01*
X418645844Y-103255004D01*
X418582778Y-103372991D01*
X418553448Y-103408729D01*
X418470186Y-103510186D01*
X418368729Y-103593448D01*
X418332991Y-103622778D01*
X418332989Y-103622779D01*
X418176467Y-103706443D01*
X418119853Y-103723616D01*
X418006627Y-103757963D01*
X417941382Y-103764389D01*
X417874260Y-103771000D01*
X417785740Y-103771000D01*
X417718618Y-103764389D01*
X417653373Y-103757963D01*
X417540147Y-103723616D01*
X417483533Y-103706443D01*
X417327011Y-103622779D01*
X417327009Y-103622778D01*
X417291271Y-103593448D01*
X417189814Y-103510186D01*
X417106552Y-103408729D01*
X417077222Y-103372991D01*
X417014156Y-103255004D01*
X416993557Y-103216467D01*
X416967036Y-103129038D01*
X416942037Y-103046627D01*
X416924641Y-102870000D01*
X416942037Y-102693373D01*
X416993557Y-102523534D01*
X416993557Y-102523533D01*
X417077221Y-102367011D01*
X417077222Y-102367009D01*
X417106552Y-102331271D01*
X417189814Y-102229814D01*
X417321632Y-102121635D01*
X417327009Y-102117222D01*
X417344913Y-102107652D01*
X417483533Y-102033557D01*
X417540147Y-102016384D01*
X417653373Y-101982037D01*
X417719558Y-101975518D01*
X417785740Y-101969000D01*
X417874260Y-101969000D01*
X417940442Y-101975518D01*
X417940442Y-101975518D01*
G37*
G36*
X463885734Y-101128232D02*
X464095202Y-101214996D01*
X464283723Y-101340962D01*
X464444038Y-101501277D01*
X464570004Y-101689798D01*
X464656768Y-101899266D01*
X464701000Y-102121635D01*
X464701000Y-102348365D01*
X464656768Y-102570734D01*
X464570004Y-102780202D01*
X464444038Y-102968723D01*
X464283723Y-103129038D01*
X464095202Y-103255004D01*
X463885734Y-103341768D01*
X463663365Y-103386000D01*
X463436635Y-103386000D01*
X463214266Y-103341768D01*
X463004798Y-103255004D01*
X462816277Y-103129038D01*
X462655962Y-102968723D01*
X462529996Y-102780202D01*
X462443232Y-102570734D01*
X462399000Y-102348365D01*
X462399000Y-102121635D01*
X462443232Y-101899266D01*
X462529996Y-101689798D01*
X462655962Y-101501277D01*
X462816277Y-101340962D01*
X463004798Y-101214996D01*
X463214266Y-101128232D01*
X463436635Y-101084000D01*
X463663365Y-101084000D01*
X463885734Y-101128232D01*
X463885734Y-101128232D01*
G37*
G36*
X458805734Y-101128232D02*
X459015202Y-101214996D01*
X459203723Y-101340962D01*
X459364038Y-101501277D01*
X459490004Y-101689798D01*
X459576768Y-101899266D01*
X459621000Y-102121635D01*
X459621000Y-102348365D01*
X459576768Y-102570734D01*
X459490004Y-102780202D01*
X459364038Y-102968723D01*
X459203723Y-103129038D01*
X459015202Y-103255004D01*
X458805734Y-103341768D01*
X458583365Y-103386000D01*
X458356635Y-103386000D01*
X458134266Y-103341768D01*
X457924798Y-103255004D01*
X457736277Y-103129038D01*
X457575962Y-102968723D01*
X457449996Y-102780202D01*
X457363232Y-102570734D01*
X457319000Y-102348365D01*
X457319000Y-102121635D01*
X457363232Y-101899266D01*
X457449996Y-101689798D01*
X457575962Y-101501277D01*
X457736277Y-101340962D01*
X457924798Y-101214996D01*
X458134266Y-101128232D01*
X458356635Y-101084000D01*
X458583365Y-101084000D01*
X458805734Y-101128232D01*
X458805734Y-101128232D01*
G37*
G36*
X417940443Y-99435519D02*
X418006627Y-99442037D01*
X418119853Y-99476384D01*
X418176467Y-99493557D01*
X418315087Y-99567652D01*
X418332991Y-99577222D01*
X418368729Y-99606552D01*
X418470186Y-99689814D01*
X418553448Y-99791271D01*
X418582778Y-99827009D01*
X418582779Y-99827011D01*
X418666443Y-99983533D01*
X418666443Y-99983534D01*
X418717963Y-100153373D01*
X418735359Y-100330000D01*
X418717963Y-100506627D01*
X418683616Y-100619853D01*
X418666443Y-100676467D01*
X418592348Y-100815087D01*
X418582778Y-100832991D01*
X418553448Y-100868729D01*
X418470186Y-100970186D01*
X418368729Y-101053448D01*
X418332991Y-101082778D01*
X418332989Y-101082779D01*
X418176467Y-101166443D01*
X418119853Y-101183616D01*
X418006627Y-101217963D01*
X417940443Y-101224481D01*
X417874260Y-101231000D01*
X417785740Y-101231000D01*
X417719558Y-101224482D01*
X417653373Y-101217963D01*
X417540147Y-101183616D01*
X417483533Y-101166443D01*
X417327011Y-101082779D01*
X417327009Y-101082778D01*
X417291271Y-101053448D01*
X417189814Y-100970186D01*
X417106552Y-100868729D01*
X417077222Y-100832991D01*
X417067652Y-100815087D01*
X416993557Y-100676467D01*
X416976384Y-100619853D01*
X416942037Y-100506627D01*
X416924641Y-100330000D01*
X416942037Y-100153373D01*
X416993557Y-99983534D01*
X416993557Y-99983533D01*
X417077221Y-99827011D01*
X417077222Y-99827009D01*
X417106552Y-99791271D01*
X417189814Y-99689814D01*
X417291271Y-99606552D01*
X417327009Y-99577222D01*
X417344913Y-99567652D01*
X417483533Y-99493557D01*
X417540147Y-99476384D01*
X417653373Y-99442037D01*
X417719558Y-99435518D01*
X417785740Y-99429000D01*
X417874260Y-99429000D01*
X417940443Y-99435519D01*
X417940443Y-99435519D01*
G37*
G36*
X409050443Y-99435519D02*
X409116627Y-99442037D01*
X409229853Y-99476384D01*
X409286467Y-99493557D01*
X409425087Y-99567652D01*
X409442991Y-99577222D01*
X409478729Y-99606552D01*
X409580186Y-99689814D01*
X409663448Y-99791271D01*
X409692778Y-99827009D01*
X409692779Y-99827011D01*
X409776443Y-99983533D01*
X409776443Y-99983534D01*
X409827963Y-100153373D01*
X409845359Y-100330000D01*
X409827963Y-100506627D01*
X409793616Y-100619853D01*
X409776443Y-100676467D01*
X409702348Y-100815087D01*
X409692778Y-100832991D01*
X409663448Y-100868729D01*
X409580186Y-100970186D01*
X409478729Y-101053448D01*
X409442991Y-101082778D01*
X409442989Y-101082779D01*
X409286467Y-101166443D01*
X409229853Y-101183616D01*
X409116627Y-101217963D01*
X409050443Y-101224481D01*
X408984260Y-101231000D01*
X408895740Y-101231000D01*
X408829558Y-101224482D01*
X408763373Y-101217963D01*
X408650147Y-101183616D01*
X408593533Y-101166443D01*
X408437011Y-101082779D01*
X408437009Y-101082778D01*
X408401271Y-101053448D01*
X408299814Y-100970186D01*
X408216552Y-100868729D01*
X408187222Y-100832991D01*
X408177652Y-100815087D01*
X408103557Y-100676467D01*
X408086384Y-100619853D01*
X408052037Y-100506627D01*
X408034641Y-100330000D01*
X408052037Y-100153373D01*
X408103557Y-99983534D01*
X408103557Y-99983533D01*
X408187221Y-99827011D01*
X408187222Y-99827009D01*
X408216552Y-99791271D01*
X408299814Y-99689814D01*
X408401271Y-99606552D01*
X408437009Y-99577222D01*
X408454913Y-99567652D01*
X408593533Y-99493557D01*
X408650147Y-99476384D01*
X408763373Y-99442037D01*
X408829558Y-99435518D01*
X408895740Y-99429000D01*
X408984260Y-99429000D01*
X409050443Y-99435519D01*
X409050443Y-99435519D01*
G37*
G36*
X448341000Y-99571000D02*
X445739000Y-99571000D01*
X445739000Y-97469000D01*
X448341000Y-97469000D01*
X448341000Y-99571000D01*
X448341000Y-99571000D01*
G37*
G36*
X438416000Y-99031000D02*
X436614000Y-99031000D01*
X436614000Y-96929000D01*
X438416000Y-96929000D01*
X438416000Y-99031000D01*
X438416000Y-99031000D01*
G37*
G36*
X409050442Y-96895518D02*
X409116627Y-96902037D01*
X409205512Y-96929000D01*
X409286467Y-96953557D01*
X409425087Y-97027652D01*
X409442991Y-97037222D01*
X409478729Y-97066552D01*
X409580186Y-97149814D01*
X409663448Y-97251271D01*
X409692778Y-97287009D01*
X409692779Y-97287011D01*
X409776443Y-97443533D01*
X409776443Y-97443534D01*
X409827963Y-97613373D01*
X409845359Y-97790000D01*
X409827963Y-97966627D01*
X409793616Y-98079853D01*
X409776443Y-98136467D01*
X409702348Y-98275087D01*
X409692778Y-98292991D01*
X409663448Y-98328729D01*
X409580186Y-98430186D01*
X409478729Y-98513448D01*
X409442991Y-98542778D01*
X409442989Y-98542779D01*
X409286467Y-98626443D01*
X409229853Y-98643616D01*
X409116627Y-98677963D01*
X409050442Y-98684482D01*
X408984260Y-98691000D01*
X408895740Y-98691000D01*
X408829558Y-98684482D01*
X408763373Y-98677963D01*
X408650147Y-98643616D01*
X408593533Y-98626443D01*
X408437011Y-98542779D01*
X408437009Y-98542778D01*
X408401271Y-98513448D01*
X408299814Y-98430186D01*
X408216552Y-98328729D01*
X408187222Y-98292991D01*
X408177652Y-98275087D01*
X408103557Y-98136467D01*
X408086384Y-98079853D01*
X408052037Y-97966627D01*
X408034641Y-97790000D01*
X408052037Y-97613373D01*
X408103557Y-97443534D01*
X408103557Y-97443533D01*
X408187221Y-97287011D01*
X408187222Y-97287009D01*
X408216552Y-97251271D01*
X408299814Y-97149814D01*
X408401271Y-97066552D01*
X408437009Y-97037222D01*
X408454913Y-97027652D01*
X408593533Y-96953557D01*
X408674488Y-96929000D01*
X408763373Y-96902037D01*
X408829558Y-96895518D01*
X408895740Y-96889000D01*
X408984260Y-96889000D01*
X409050442Y-96895518D01*
X409050442Y-96895518D01*
G37*
G36*
X417940442Y-96895518D02*
X418006627Y-96902037D01*
X418095512Y-96929000D01*
X418176467Y-96953557D01*
X418315087Y-97027652D01*
X418332991Y-97037222D01*
X418368729Y-97066552D01*
X418470186Y-97149814D01*
X418553448Y-97251271D01*
X418582778Y-97287009D01*
X418582779Y-97287011D01*
X418666443Y-97443533D01*
X418666443Y-97443534D01*
X418717963Y-97613373D01*
X418735359Y-97790000D01*
X418717963Y-97966627D01*
X418683616Y-98079853D01*
X418666443Y-98136467D01*
X418592348Y-98275087D01*
X418582778Y-98292991D01*
X418553448Y-98328729D01*
X418470186Y-98430186D01*
X418368729Y-98513448D01*
X418332991Y-98542778D01*
X418332989Y-98542779D01*
X418176467Y-98626443D01*
X418119853Y-98643616D01*
X418006627Y-98677963D01*
X417940442Y-98684482D01*
X417874260Y-98691000D01*
X417785740Y-98691000D01*
X417719558Y-98684482D01*
X417653373Y-98677963D01*
X417540147Y-98643616D01*
X417483533Y-98626443D01*
X417327011Y-98542779D01*
X417327009Y-98542778D01*
X417291271Y-98513448D01*
X417189814Y-98430186D01*
X417106552Y-98328729D01*
X417077222Y-98292991D01*
X417067652Y-98275087D01*
X416993557Y-98136467D01*
X416976384Y-98079853D01*
X416942037Y-97966627D01*
X416924641Y-97790000D01*
X416942037Y-97613373D01*
X416993557Y-97443534D01*
X416993557Y-97443533D01*
X417077221Y-97287011D01*
X417077222Y-97287009D01*
X417106552Y-97251271D01*
X417189814Y-97149814D01*
X417291271Y-97066552D01*
X417327009Y-97037222D01*
X417344913Y-97027652D01*
X417483533Y-96953557D01*
X417564488Y-96929000D01*
X417653373Y-96902037D01*
X417719558Y-96895518D01*
X417785740Y-96889000D01*
X417874260Y-96889000D01*
X417940442Y-96895518D01*
X417940442Y-96895518D01*
G37*
G36*
X435776000Y-98491000D02*
X434174000Y-98491000D01*
X434174000Y-97089000D01*
X435776000Y-97089000D01*
X435776000Y-98491000D01*
X435776000Y-98491000D01*
G37*
G36*
X433076000Y-98491000D02*
X431474000Y-98491000D01*
X431474000Y-97089000D01*
X433076000Y-97089000D01*
X433076000Y-98491000D01*
X433076000Y-98491000D01*
G37*
G36*
X455511000Y-97936000D02*
X453809000Y-97936000D01*
X453809000Y-96834000D01*
X455511000Y-96834000D01*
X455511000Y-97936000D01*
X455511000Y-97936000D01*
G37*
G36*
X452251000Y-97811000D02*
X449449000Y-97811000D01*
X449449000Y-93959000D01*
X452251000Y-93959000D01*
X452251000Y-97811000D01*
X452251000Y-97811000D01*
G37*
G36*
X445176000Y-97281000D02*
X443824000Y-97281000D01*
X443824000Y-95679000D01*
X445176000Y-95679000D01*
X445176000Y-97281000D01*
X445176000Y-97281000D01*
G37*
G36*
X443021000Y-96536000D02*
X442169000Y-96536000D01*
X442169000Y-95234000D01*
X443021000Y-95234000D01*
X443021000Y-96536000D01*
X443021000Y-96536000D01*
G37*
G36*
X409050442Y-94355518D02*
X409116627Y-94362037D01*
X409229853Y-94396384D01*
X409286467Y-94413557D01*
X409425087Y-94487652D01*
X409442991Y-94497222D01*
X409478729Y-94526552D01*
X409580186Y-94609814D01*
X409663448Y-94711271D01*
X409692778Y-94747009D01*
X409692779Y-94747011D01*
X409776443Y-94903533D01*
X409793616Y-94960147D01*
X409827963Y-95073373D01*
X409845359Y-95250000D01*
X409827963Y-95426627D01*
X409793616Y-95539853D01*
X409776443Y-95596467D01*
X409702348Y-95735087D01*
X409692778Y-95752991D01*
X409663448Y-95788729D01*
X409580186Y-95890186D01*
X409478729Y-95973448D01*
X409442991Y-96002778D01*
X409442989Y-96002779D01*
X409286467Y-96086443D01*
X409229853Y-96103616D01*
X409116627Y-96137963D01*
X409050443Y-96144481D01*
X408984260Y-96151000D01*
X408895740Y-96151000D01*
X408829558Y-96144482D01*
X408763373Y-96137963D01*
X408650147Y-96103616D01*
X408593533Y-96086443D01*
X408437011Y-96002779D01*
X408437009Y-96002778D01*
X408401271Y-95973448D01*
X408299814Y-95890186D01*
X408216552Y-95788729D01*
X408187222Y-95752991D01*
X408177652Y-95735087D01*
X408103557Y-95596467D01*
X408086384Y-95539853D01*
X408052037Y-95426627D01*
X408034641Y-95250000D01*
X408052037Y-95073373D01*
X408086384Y-94960147D01*
X408103557Y-94903533D01*
X408187221Y-94747011D01*
X408187222Y-94747009D01*
X408216552Y-94711271D01*
X408299814Y-94609814D01*
X408401271Y-94526552D01*
X408437009Y-94497222D01*
X408454913Y-94487652D01*
X408593533Y-94413557D01*
X408650147Y-94396384D01*
X408763373Y-94362037D01*
X408829557Y-94355519D01*
X408895740Y-94349000D01*
X408984260Y-94349000D01*
X409050442Y-94355518D01*
X409050442Y-94355518D01*
G37*
G36*
X448341000Y-95571000D02*
X445739000Y-95571000D01*
X445739000Y-93469000D01*
X448341000Y-93469000D01*
X448341000Y-95571000D01*
X448341000Y-95571000D01*
G37*
G36*
X438416000Y-95031000D02*
X436614000Y-95031000D01*
X436614000Y-92929000D01*
X438416000Y-92929000D01*
X438416000Y-95031000D01*
X438416000Y-95031000D01*
G37*
G36*
X455511000Y-94936000D02*
X453809000Y-94936000D01*
X453809000Y-93834000D01*
X455511000Y-93834000D01*
X455511000Y-94936000D01*
X455511000Y-94936000D01*
G37*
G36*
X445176000Y-94781000D02*
X443824000Y-94781000D01*
X443824000Y-93179000D01*
X445176000Y-93179000D01*
X445176000Y-94781000D01*
X445176000Y-94781000D01*
G37*
G36*
X443021000Y-94636000D02*
X442169000Y-94636000D01*
X442169000Y-93334000D01*
X443021000Y-93334000D01*
X443021000Y-94636000D01*
X443021000Y-94636000D01*
G37*
G36*
X431581000Y-94246000D02*
X429479000Y-94246000D01*
X429479000Y-92444000D01*
X431581000Y-92444000D01*
X431581000Y-94246000D01*
X431581000Y-94246000D01*
G37*
G36*
X434606000Y-94246000D02*
X432804000Y-94246000D01*
X432804000Y-92444000D01*
X434606000Y-92444000D01*
X434606000Y-94246000D01*
X434606000Y-94246000D01*
G37*
G36*
X427581000Y-94246000D02*
X425479000Y-94246000D01*
X425479000Y-92444000D01*
X427581000Y-92444000D01*
X427581000Y-94246000D01*
X427581000Y-94246000D01*
G37*
G36*
X406510443Y-90545519D02*
X406576627Y-90552037D01*
X406689853Y-90586384D01*
X406746467Y-90603557D01*
X406885087Y-90677652D01*
X406902991Y-90687222D01*
X406938729Y-90716552D01*
X407040186Y-90799814D01*
X407123448Y-90901271D01*
X407152778Y-90937009D01*
X407152779Y-90937011D01*
X407236443Y-91093533D01*
X407236443Y-91093534D01*
X407287963Y-91263373D01*
X407305359Y-91440000D01*
X407287963Y-91616627D01*
X407280435Y-91641443D01*
X407236443Y-91786467D01*
X407162348Y-91925087D01*
X407152778Y-91942991D01*
X407123448Y-91978729D01*
X407040186Y-92080186D01*
X406938729Y-92163448D01*
X406902991Y-92192778D01*
X406902989Y-92192779D01*
X406746467Y-92276443D01*
X406689853Y-92293616D01*
X406576627Y-92327963D01*
X406510443Y-92334481D01*
X406444260Y-92341000D01*
X406355740Y-92341000D01*
X406289557Y-92334481D01*
X406223373Y-92327963D01*
X406110147Y-92293616D01*
X406053533Y-92276443D01*
X405897011Y-92192779D01*
X405897009Y-92192778D01*
X405861271Y-92163448D01*
X405759814Y-92080186D01*
X405676552Y-91978729D01*
X405647222Y-91942991D01*
X405637652Y-91925087D01*
X405563557Y-91786467D01*
X405519565Y-91641443D01*
X405512037Y-91616627D01*
X405494641Y-91440000D01*
X405512037Y-91263373D01*
X405563557Y-91093534D01*
X405563557Y-91093533D01*
X405647221Y-90937011D01*
X405647222Y-90937009D01*
X405676552Y-90901271D01*
X405759814Y-90799814D01*
X405861271Y-90716552D01*
X405897009Y-90687222D01*
X405914913Y-90677652D01*
X406053533Y-90603557D01*
X406110147Y-90586384D01*
X406223373Y-90552037D01*
X406289558Y-90545518D01*
X406355740Y-90539000D01*
X406444260Y-90539000D01*
X406510443Y-90545519D01*
X406510443Y-90545519D01*
G37*
G36*
X401430443Y-90545519D02*
X401496627Y-90552037D01*
X401609853Y-90586384D01*
X401666467Y-90603557D01*
X401805087Y-90677652D01*
X401822991Y-90687222D01*
X401858729Y-90716552D01*
X401960186Y-90799814D01*
X402043448Y-90901271D01*
X402072778Y-90937009D01*
X402072779Y-90937011D01*
X402156443Y-91093533D01*
X402156443Y-91093534D01*
X402207963Y-91263373D01*
X402225359Y-91440000D01*
X402207963Y-91616627D01*
X402200435Y-91641443D01*
X402156443Y-91786467D01*
X402082348Y-91925087D01*
X402072778Y-91942991D01*
X402043448Y-91978729D01*
X401960186Y-92080186D01*
X401858729Y-92163448D01*
X401822991Y-92192778D01*
X401822989Y-92192779D01*
X401666467Y-92276443D01*
X401609853Y-92293616D01*
X401496627Y-92327963D01*
X401430443Y-92334481D01*
X401364260Y-92341000D01*
X401275740Y-92341000D01*
X401209557Y-92334481D01*
X401143373Y-92327963D01*
X401030147Y-92293616D01*
X400973533Y-92276443D01*
X400817011Y-92192779D01*
X400817009Y-92192778D01*
X400781271Y-92163448D01*
X400679814Y-92080186D01*
X400596552Y-91978729D01*
X400567222Y-91942991D01*
X400557652Y-91925087D01*
X400483557Y-91786467D01*
X400439565Y-91641443D01*
X400432037Y-91616627D01*
X400414641Y-91440000D01*
X400432037Y-91263373D01*
X400483557Y-91093534D01*
X400483557Y-91093533D01*
X400567221Y-90937011D01*
X400567222Y-90937009D01*
X400596552Y-90901271D01*
X400679814Y-90799814D01*
X400781271Y-90716552D01*
X400817009Y-90687222D01*
X400834913Y-90677652D01*
X400973533Y-90603557D01*
X401030147Y-90586384D01*
X401143373Y-90552037D01*
X401209558Y-90545518D01*
X401275740Y-90539000D01*
X401364260Y-90539000D01*
X401430443Y-90545519D01*
X401430443Y-90545519D01*
G37*
G36*
X398890443Y-90545519D02*
X398956627Y-90552037D01*
X399069853Y-90586384D01*
X399126467Y-90603557D01*
X399265087Y-90677652D01*
X399282991Y-90687222D01*
X399318729Y-90716552D01*
X399420186Y-90799814D01*
X399503448Y-90901271D01*
X399532778Y-90937009D01*
X399532779Y-90937011D01*
X399616443Y-91093533D01*
X399616443Y-91093534D01*
X399667963Y-91263373D01*
X399685359Y-91440000D01*
X399667963Y-91616627D01*
X399660435Y-91641443D01*
X399616443Y-91786467D01*
X399542348Y-91925087D01*
X399532778Y-91942991D01*
X399503448Y-91978729D01*
X399420186Y-92080186D01*
X399318729Y-92163448D01*
X399282991Y-92192778D01*
X399282989Y-92192779D01*
X399126467Y-92276443D01*
X399069853Y-92293616D01*
X398956627Y-92327963D01*
X398890443Y-92334481D01*
X398824260Y-92341000D01*
X398735740Y-92341000D01*
X398669557Y-92334481D01*
X398603373Y-92327963D01*
X398490147Y-92293616D01*
X398433533Y-92276443D01*
X398277011Y-92192779D01*
X398277009Y-92192778D01*
X398241271Y-92163448D01*
X398139814Y-92080186D01*
X398056552Y-91978729D01*
X398027222Y-91942991D01*
X398017652Y-91925087D01*
X397943557Y-91786467D01*
X397899565Y-91641443D01*
X397892037Y-91616627D01*
X397874641Y-91440000D01*
X397892037Y-91263373D01*
X397943557Y-91093534D01*
X397943557Y-91093533D01*
X398027221Y-90937011D01*
X398027222Y-90937009D01*
X398056552Y-90901271D01*
X398139814Y-90799814D01*
X398241271Y-90716552D01*
X398277009Y-90687222D01*
X398294913Y-90677652D01*
X398433533Y-90603557D01*
X398490147Y-90586384D01*
X398603373Y-90552037D01*
X398669558Y-90545518D01*
X398735740Y-90539000D01*
X398824260Y-90539000D01*
X398890443Y-90545519D01*
X398890443Y-90545519D01*
G37*
G36*
X396350443Y-90545519D02*
X396416627Y-90552037D01*
X396529853Y-90586384D01*
X396586467Y-90603557D01*
X396725087Y-90677652D01*
X396742991Y-90687222D01*
X396778729Y-90716552D01*
X396880186Y-90799814D01*
X396963448Y-90901271D01*
X396992778Y-90937009D01*
X396992779Y-90937011D01*
X397076443Y-91093533D01*
X397076443Y-91093534D01*
X397127963Y-91263373D01*
X397145359Y-91440000D01*
X397127963Y-91616627D01*
X397120435Y-91641443D01*
X397076443Y-91786467D01*
X397002348Y-91925087D01*
X396992778Y-91942991D01*
X396963448Y-91978729D01*
X396880186Y-92080186D01*
X396778729Y-92163448D01*
X396742991Y-92192778D01*
X396742989Y-92192779D01*
X396586467Y-92276443D01*
X396529853Y-92293616D01*
X396416627Y-92327963D01*
X396350443Y-92334481D01*
X396284260Y-92341000D01*
X396195740Y-92341000D01*
X396129557Y-92334481D01*
X396063373Y-92327963D01*
X395950147Y-92293616D01*
X395893533Y-92276443D01*
X395737011Y-92192779D01*
X395737009Y-92192778D01*
X395701271Y-92163448D01*
X395599814Y-92080186D01*
X395516552Y-91978729D01*
X395487222Y-91942991D01*
X395477652Y-91925087D01*
X395403557Y-91786467D01*
X395359565Y-91641443D01*
X395352037Y-91616627D01*
X395334641Y-91440000D01*
X395352037Y-91263373D01*
X395403557Y-91093534D01*
X395403557Y-91093533D01*
X395487221Y-90937011D01*
X395487222Y-90937009D01*
X395516552Y-90901271D01*
X395599814Y-90799814D01*
X395701271Y-90716552D01*
X395737009Y-90687222D01*
X395754913Y-90677652D01*
X395893533Y-90603557D01*
X395950147Y-90586384D01*
X396063373Y-90552037D01*
X396129558Y-90545518D01*
X396195740Y-90539000D01*
X396284260Y-90539000D01*
X396350443Y-90545519D01*
X396350443Y-90545519D01*
G37*
G36*
X393810443Y-90545519D02*
X393876627Y-90552037D01*
X393989853Y-90586384D01*
X394046467Y-90603557D01*
X394185087Y-90677652D01*
X394202991Y-90687222D01*
X394238729Y-90716552D01*
X394340186Y-90799814D01*
X394423448Y-90901271D01*
X394452778Y-90937009D01*
X394452779Y-90937011D01*
X394536443Y-91093533D01*
X394536443Y-91093534D01*
X394587963Y-91263373D01*
X394605359Y-91440000D01*
X394587963Y-91616627D01*
X394580435Y-91641443D01*
X394536443Y-91786467D01*
X394462348Y-91925087D01*
X394452778Y-91942991D01*
X394423448Y-91978729D01*
X394340186Y-92080186D01*
X394238729Y-92163448D01*
X394202991Y-92192778D01*
X394202989Y-92192779D01*
X394046467Y-92276443D01*
X393989853Y-92293616D01*
X393876627Y-92327963D01*
X393810443Y-92334481D01*
X393744260Y-92341000D01*
X393655740Y-92341000D01*
X393589557Y-92334481D01*
X393523373Y-92327963D01*
X393410147Y-92293616D01*
X393353533Y-92276443D01*
X393197011Y-92192779D01*
X393197009Y-92192778D01*
X393161271Y-92163448D01*
X393059814Y-92080186D01*
X392976552Y-91978729D01*
X392947222Y-91942991D01*
X392937652Y-91925087D01*
X392863557Y-91786467D01*
X392819565Y-91641443D01*
X392812037Y-91616627D01*
X392794641Y-91440000D01*
X392812037Y-91263373D01*
X392863557Y-91093534D01*
X392863557Y-91093533D01*
X392947221Y-90937011D01*
X392947222Y-90937009D01*
X392976552Y-90901271D01*
X393059814Y-90799814D01*
X393161271Y-90716552D01*
X393197009Y-90687222D01*
X393214913Y-90677652D01*
X393353533Y-90603557D01*
X393410147Y-90586384D01*
X393523373Y-90552037D01*
X393589558Y-90545518D01*
X393655740Y-90539000D01*
X393744260Y-90539000D01*
X393810443Y-90545519D01*
X393810443Y-90545519D01*
G37*
G36*
X391270443Y-90545519D02*
X391336627Y-90552037D01*
X391449853Y-90586384D01*
X391506467Y-90603557D01*
X391645087Y-90677652D01*
X391662991Y-90687222D01*
X391698729Y-90716552D01*
X391800186Y-90799814D01*
X391883448Y-90901271D01*
X391912778Y-90937009D01*
X391912779Y-90937011D01*
X391996443Y-91093533D01*
X391996443Y-91093534D01*
X392047963Y-91263373D01*
X392065359Y-91440000D01*
X392047963Y-91616627D01*
X392040435Y-91641443D01*
X391996443Y-91786467D01*
X391922348Y-91925087D01*
X391912778Y-91942991D01*
X391883448Y-91978729D01*
X391800186Y-92080186D01*
X391698729Y-92163448D01*
X391662991Y-92192778D01*
X391662989Y-92192779D01*
X391506467Y-92276443D01*
X391449853Y-92293616D01*
X391336627Y-92327963D01*
X391270443Y-92334481D01*
X391204260Y-92341000D01*
X391115740Y-92341000D01*
X391049557Y-92334481D01*
X390983373Y-92327963D01*
X390870147Y-92293616D01*
X390813533Y-92276443D01*
X390657011Y-92192779D01*
X390657009Y-92192778D01*
X390621271Y-92163448D01*
X390519814Y-92080186D01*
X390436552Y-91978729D01*
X390407222Y-91942991D01*
X390397652Y-91925087D01*
X390323557Y-91786467D01*
X390279565Y-91641443D01*
X390272037Y-91616627D01*
X390254641Y-91440000D01*
X390272037Y-91263373D01*
X390323557Y-91093534D01*
X390323557Y-91093533D01*
X390407221Y-90937011D01*
X390407222Y-90937009D01*
X390436552Y-90901271D01*
X390519814Y-90799814D01*
X390621271Y-90716552D01*
X390657009Y-90687222D01*
X390674913Y-90677652D01*
X390813533Y-90603557D01*
X390870147Y-90586384D01*
X390983373Y-90552037D01*
X391049558Y-90545518D01*
X391115740Y-90539000D01*
X391204260Y-90539000D01*
X391270443Y-90545519D01*
X391270443Y-90545519D01*
G37*
G36*
X388730443Y-90545519D02*
X388796627Y-90552037D01*
X388909853Y-90586384D01*
X388966467Y-90603557D01*
X389105087Y-90677652D01*
X389122991Y-90687222D01*
X389158729Y-90716552D01*
X389260186Y-90799814D01*
X389343448Y-90901271D01*
X389372778Y-90937009D01*
X389372779Y-90937011D01*
X389456443Y-91093533D01*
X389456443Y-91093534D01*
X389507963Y-91263373D01*
X389525359Y-91440000D01*
X389507963Y-91616627D01*
X389500435Y-91641443D01*
X389456443Y-91786467D01*
X389382348Y-91925087D01*
X389372778Y-91942991D01*
X389343448Y-91978729D01*
X389260186Y-92080186D01*
X389158729Y-92163448D01*
X389122991Y-92192778D01*
X389122989Y-92192779D01*
X388966467Y-92276443D01*
X388909853Y-92293616D01*
X388796627Y-92327963D01*
X388730443Y-92334481D01*
X388664260Y-92341000D01*
X388575740Y-92341000D01*
X388509557Y-92334481D01*
X388443373Y-92327963D01*
X388330147Y-92293616D01*
X388273533Y-92276443D01*
X388117011Y-92192779D01*
X388117009Y-92192778D01*
X388081271Y-92163448D01*
X387979814Y-92080186D01*
X387896552Y-91978729D01*
X387867222Y-91942991D01*
X387857652Y-91925087D01*
X387783557Y-91786467D01*
X387739565Y-91641443D01*
X387732037Y-91616627D01*
X387714641Y-91440000D01*
X387732037Y-91263373D01*
X387783557Y-91093534D01*
X387783557Y-91093533D01*
X387867221Y-90937011D01*
X387867222Y-90937009D01*
X387896552Y-90901271D01*
X387979814Y-90799814D01*
X388081271Y-90716552D01*
X388117009Y-90687222D01*
X388134913Y-90677652D01*
X388273533Y-90603557D01*
X388330147Y-90586384D01*
X388443373Y-90552037D01*
X388509558Y-90545518D01*
X388575740Y-90539000D01*
X388664260Y-90539000D01*
X388730443Y-90545519D01*
X388730443Y-90545519D01*
G37*
G36*
X381110443Y-90545519D02*
X381176627Y-90552037D01*
X381289853Y-90586384D01*
X381346467Y-90603557D01*
X381485087Y-90677652D01*
X381502991Y-90687222D01*
X381538729Y-90716552D01*
X381640186Y-90799814D01*
X381723448Y-90901271D01*
X381752778Y-90937009D01*
X381752779Y-90937011D01*
X381836443Y-91093533D01*
X381836443Y-91093534D01*
X381887963Y-91263373D01*
X381905359Y-91440000D01*
X381887963Y-91616627D01*
X381880435Y-91641443D01*
X381836443Y-91786467D01*
X381762348Y-91925087D01*
X381752778Y-91942991D01*
X381723448Y-91978729D01*
X381640186Y-92080186D01*
X381538729Y-92163448D01*
X381502991Y-92192778D01*
X381502989Y-92192779D01*
X381346467Y-92276443D01*
X381289853Y-92293616D01*
X381176627Y-92327963D01*
X381110443Y-92334481D01*
X381044260Y-92341000D01*
X380955740Y-92341000D01*
X380889557Y-92334481D01*
X380823373Y-92327963D01*
X380710147Y-92293616D01*
X380653533Y-92276443D01*
X380497011Y-92192779D01*
X380497009Y-92192778D01*
X380461271Y-92163448D01*
X380359814Y-92080186D01*
X380276552Y-91978729D01*
X380247222Y-91942991D01*
X380237652Y-91925087D01*
X380163557Y-91786467D01*
X380119565Y-91641443D01*
X380112037Y-91616627D01*
X380094641Y-91440000D01*
X380112037Y-91263373D01*
X380163557Y-91093534D01*
X380163557Y-91093533D01*
X380247221Y-90937011D01*
X380247222Y-90937009D01*
X380276552Y-90901271D01*
X380359814Y-90799814D01*
X380461271Y-90716552D01*
X380497009Y-90687222D01*
X380514913Y-90677652D01*
X380653533Y-90603557D01*
X380710147Y-90586384D01*
X380823373Y-90552037D01*
X380889558Y-90545518D01*
X380955740Y-90539000D01*
X381044260Y-90539000D01*
X381110443Y-90545519D01*
X381110443Y-90545519D01*
G37*
G36*
X378570443Y-90545519D02*
X378636627Y-90552037D01*
X378749853Y-90586384D01*
X378806467Y-90603557D01*
X378945087Y-90677652D01*
X378962991Y-90687222D01*
X378998729Y-90716552D01*
X379100186Y-90799814D01*
X379183448Y-90901271D01*
X379212778Y-90937009D01*
X379212779Y-90937011D01*
X379296443Y-91093533D01*
X379296443Y-91093534D01*
X379347963Y-91263373D01*
X379365359Y-91440000D01*
X379347963Y-91616627D01*
X379340435Y-91641443D01*
X379296443Y-91786467D01*
X379222348Y-91925087D01*
X379212778Y-91942991D01*
X379183448Y-91978729D01*
X379100186Y-92080186D01*
X378998729Y-92163448D01*
X378962991Y-92192778D01*
X378962989Y-92192779D01*
X378806467Y-92276443D01*
X378749853Y-92293616D01*
X378636627Y-92327963D01*
X378570443Y-92334481D01*
X378504260Y-92341000D01*
X378415740Y-92341000D01*
X378349557Y-92334481D01*
X378283373Y-92327963D01*
X378170147Y-92293616D01*
X378113533Y-92276443D01*
X377957011Y-92192779D01*
X377957009Y-92192778D01*
X377921271Y-92163448D01*
X377819814Y-92080186D01*
X377736552Y-91978729D01*
X377707222Y-91942991D01*
X377697652Y-91925087D01*
X377623557Y-91786467D01*
X377579565Y-91641443D01*
X377572037Y-91616627D01*
X377554641Y-91440000D01*
X377572037Y-91263373D01*
X377623557Y-91093534D01*
X377623557Y-91093533D01*
X377707221Y-90937011D01*
X377707222Y-90937009D01*
X377736552Y-90901271D01*
X377819814Y-90799814D01*
X377921271Y-90716552D01*
X377957009Y-90687222D01*
X377974913Y-90677652D01*
X378113533Y-90603557D01*
X378170147Y-90586384D01*
X378283373Y-90552037D01*
X378349558Y-90545518D01*
X378415740Y-90539000D01*
X378504260Y-90539000D01*
X378570443Y-90545519D01*
X378570443Y-90545519D01*
G37*
G36*
X376030443Y-90545519D02*
X376096627Y-90552037D01*
X376209853Y-90586384D01*
X376266467Y-90603557D01*
X376405087Y-90677652D01*
X376422991Y-90687222D01*
X376458729Y-90716552D01*
X376560186Y-90799814D01*
X376643448Y-90901271D01*
X376672778Y-90937009D01*
X376672779Y-90937011D01*
X376756443Y-91093533D01*
X376756443Y-91093534D01*
X376807963Y-91263373D01*
X376825359Y-91440000D01*
X376807963Y-91616627D01*
X376800435Y-91641443D01*
X376756443Y-91786467D01*
X376682348Y-91925087D01*
X376672778Y-91942991D01*
X376643448Y-91978729D01*
X376560186Y-92080186D01*
X376458729Y-92163448D01*
X376422991Y-92192778D01*
X376422989Y-92192779D01*
X376266467Y-92276443D01*
X376209853Y-92293616D01*
X376096627Y-92327963D01*
X376030443Y-92334481D01*
X375964260Y-92341000D01*
X375875740Y-92341000D01*
X375809557Y-92334481D01*
X375743373Y-92327963D01*
X375630147Y-92293616D01*
X375573533Y-92276443D01*
X375417011Y-92192779D01*
X375417009Y-92192778D01*
X375381271Y-92163448D01*
X375279814Y-92080186D01*
X375196552Y-91978729D01*
X375167222Y-91942991D01*
X375157652Y-91925087D01*
X375083557Y-91786467D01*
X375039565Y-91641443D01*
X375032037Y-91616627D01*
X375014641Y-91440000D01*
X375032037Y-91263373D01*
X375083557Y-91093534D01*
X375083557Y-91093533D01*
X375167221Y-90937011D01*
X375167222Y-90937009D01*
X375196552Y-90901271D01*
X375279814Y-90799814D01*
X375381271Y-90716552D01*
X375417009Y-90687222D01*
X375434913Y-90677652D01*
X375573533Y-90603557D01*
X375630147Y-90586384D01*
X375743373Y-90552037D01*
X375809558Y-90545518D01*
X375875740Y-90539000D01*
X375964260Y-90539000D01*
X376030443Y-90545519D01*
X376030443Y-90545519D01*
G37*
G36*
X403970443Y-90545519D02*
X404036627Y-90552037D01*
X404149853Y-90586384D01*
X404206467Y-90603557D01*
X404345087Y-90677652D01*
X404362991Y-90687222D01*
X404398729Y-90716552D01*
X404500186Y-90799814D01*
X404583448Y-90901271D01*
X404612778Y-90937009D01*
X404612779Y-90937011D01*
X404696443Y-91093533D01*
X404696443Y-91093534D01*
X404747963Y-91263373D01*
X404765359Y-91440000D01*
X404747963Y-91616627D01*
X404740435Y-91641443D01*
X404696443Y-91786467D01*
X404622348Y-91925087D01*
X404612778Y-91942991D01*
X404583448Y-91978729D01*
X404500186Y-92080186D01*
X404398729Y-92163448D01*
X404362991Y-92192778D01*
X404362989Y-92192779D01*
X404206467Y-92276443D01*
X404149853Y-92293616D01*
X404036627Y-92327963D01*
X403970443Y-92334481D01*
X403904260Y-92341000D01*
X403815740Y-92341000D01*
X403749557Y-92334481D01*
X403683373Y-92327963D01*
X403570147Y-92293616D01*
X403513533Y-92276443D01*
X403357011Y-92192779D01*
X403357009Y-92192778D01*
X403321271Y-92163448D01*
X403219814Y-92080186D01*
X403136552Y-91978729D01*
X403107222Y-91942991D01*
X403097652Y-91925087D01*
X403023557Y-91786467D01*
X402979565Y-91641443D01*
X402972037Y-91616627D01*
X402954641Y-91440000D01*
X402972037Y-91263373D01*
X403023557Y-91093534D01*
X403023557Y-91093533D01*
X403107221Y-90937011D01*
X403107222Y-90937009D01*
X403136552Y-90901271D01*
X403219814Y-90799814D01*
X403321271Y-90716552D01*
X403357009Y-90687222D01*
X403374913Y-90677652D01*
X403513533Y-90603557D01*
X403570147Y-90586384D01*
X403683373Y-90552037D01*
X403749558Y-90545518D01*
X403815740Y-90539000D01*
X403904260Y-90539000D01*
X403970443Y-90545519D01*
X403970443Y-90545519D01*
G37*
G36*
X409841000Y-92341000D02*
X408039000Y-92341000D01*
X408039000Y-90539000D01*
X409841000Y-90539000D01*
X409841000Y-92341000D01*
X409841000Y-92341000D01*
G37*
G36*
X383650443Y-90545519D02*
X383716627Y-90552037D01*
X383829853Y-90586384D01*
X383886467Y-90603557D01*
X384025087Y-90677652D01*
X384042991Y-90687222D01*
X384078729Y-90716552D01*
X384180186Y-90799814D01*
X384263448Y-90901271D01*
X384292778Y-90937009D01*
X384292779Y-90937011D01*
X384376443Y-91093533D01*
X384376443Y-91093534D01*
X384427963Y-91263373D01*
X384445359Y-91440000D01*
X384427963Y-91616627D01*
X384420435Y-91641443D01*
X384376443Y-91786467D01*
X384302348Y-91925087D01*
X384292778Y-91942991D01*
X384263448Y-91978729D01*
X384180186Y-92080186D01*
X384078729Y-92163448D01*
X384042991Y-92192778D01*
X384042989Y-92192779D01*
X383886467Y-92276443D01*
X383829853Y-92293616D01*
X383716627Y-92327963D01*
X383650443Y-92334481D01*
X383584260Y-92341000D01*
X383495740Y-92341000D01*
X383429557Y-92334481D01*
X383363373Y-92327963D01*
X383250147Y-92293616D01*
X383193533Y-92276443D01*
X383037011Y-92192779D01*
X383037009Y-92192778D01*
X383001271Y-92163448D01*
X382899814Y-92080186D01*
X382816552Y-91978729D01*
X382787222Y-91942991D01*
X382777652Y-91925087D01*
X382703557Y-91786467D01*
X382659565Y-91641443D01*
X382652037Y-91616627D01*
X382634641Y-91440000D01*
X382652037Y-91263373D01*
X382703557Y-91093534D01*
X382703557Y-91093533D01*
X382787221Y-90937011D01*
X382787222Y-90937009D01*
X382816552Y-90901271D01*
X382899814Y-90799814D01*
X383001271Y-90716552D01*
X383037009Y-90687222D01*
X383054913Y-90677652D01*
X383193533Y-90603557D01*
X383250147Y-90586384D01*
X383363373Y-90552037D01*
X383429558Y-90545518D01*
X383495740Y-90539000D01*
X383584260Y-90539000D01*
X383650443Y-90545519D01*
X383650443Y-90545519D01*
G37*
G36*
X386190443Y-90545519D02*
X386256627Y-90552037D01*
X386369853Y-90586384D01*
X386426467Y-90603557D01*
X386565087Y-90677652D01*
X386582991Y-90687222D01*
X386618729Y-90716552D01*
X386720186Y-90799814D01*
X386803448Y-90901271D01*
X386832778Y-90937009D01*
X386832779Y-90937011D01*
X386916443Y-91093533D01*
X386916443Y-91093534D01*
X386967963Y-91263373D01*
X386985359Y-91440000D01*
X386967963Y-91616627D01*
X386960435Y-91641443D01*
X386916443Y-91786467D01*
X386842348Y-91925087D01*
X386832778Y-91942991D01*
X386803448Y-91978729D01*
X386720186Y-92080186D01*
X386618729Y-92163448D01*
X386582991Y-92192778D01*
X386582989Y-92192779D01*
X386426467Y-92276443D01*
X386369853Y-92293616D01*
X386256627Y-92327963D01*
X386190443Y-92334481D01*
X386124260Y-92341000D01*
X386035740Y-92341000D01*
X385969557Y-92334481D01*
X385903373Y-92327963D01*
X385790147Y-92293616D01*
X385733533Y-92276443D01*
X385577011Y-92192779D01*
X385577009Y-92192778D01*
X385541271Y-92163448D01*
X385439814Y-92080186D01*
X385356552Y-91978729D01*
X385327222Y-91942991D01*
X385317652Y-91925087D01*
X385243557Y-91786467D01*
X385199565Y-91641443D01*
X385192037Y-91616627D01*
X385174641Y-91440000D01*
X385192037Y-91263373D01*
X385243557Y-91093534D01*
X385243557Y-91093533D01*
X385327221Y-90937011D01*
X385327222Y-90937009D01*
X385356552Y-90901271D01*
X385439814Y-90799814D01*
X385541271Y-90716552D01*
X385577009Y-90687222D01*
X385594913Y-90677652D01*
X385733533Y-90603557D01*
X385790147Y-90586384D01*
X385903373Y-90552037D01*
X385969558Y-90545518D01*
X386035740Y-90539000D01*
X386124260Y-90539000D01*
X386190443Y-90545519D01*
X386190443Y-90545519D01*
G37*
G36*
X427581000Y-91706000D02*
X425479000Y-91706000D01*
X425479000Y-89904000D01*
X427581000Y-89904000D01*
X427581000Y-91706000D01*
X427581000Y-91706000D01*
G37*
G36*
X433815442Y-89910518D02*
X433881627Y-89917037D01*
X433994853Y-89951384D01*
X434051467Y-89968557D01*
X434190087Y-90042652D01*
X434207991Y-90052222D01*
X434243729Y-90081552D01*
X434345186Y-90164814D01*
X434428448Y-90266271D01*
X434457778Y-90302009D01*
X434457779Y-90302011D01*
X434541443Y-90458533D01*
X434541443Y-90458534D01*
X434592963Y-90628373D01*
X434610359Y-90805000D01*
X434592963Y-90981627D01*
X434559017Y-91093533D01*
X434541443Y-91151467D01*
X434481627Y-91263373D01*
X434457778Y-91307991D01*
X434428448Y-91343729D01*
X434345186Y-91445186D01*
X434243729Y-91528448D01*
X434207991Y-91557778D01*
X434207989Y-91557779D01*
X434051467Y-91641443D01*
X433994853Y-91658616D01*
X433881627Y-91692963D01*
X433815442Y-91699482D01*
X433749260Y-91706000D01*
X433660740Y-91706000D01*
X433594558Y-91699482D01*
X433528373Y-91692963D01*
X433415147Y-91658616D01*
X433358533Y-91641443D01*
X433202011Y-91557779D01*
X433202009Y-91557778D01*
X433166271Y-91528448D01*
X433064814Y-91445186D01*
X432981552Y-91343729D01*
X432952222Y-91307991D01*
X432928373Y-91263373D01*
X432868557Y-91151467D01*
X432850983Y-91093533D01*
X432817037Y-90981627D01*
X432799641Y-90805000D01*
X432817037Y-90628373D01*
X432868557Y-90458534D01*
X432868557Y-90458533D01*
X432952221Y-90302011D01*
X432952222Y-90302009D01*
X432981552Y-90266271D01*
X433064814Y-90164814D01*
X433166271Y-90081552D01*
X433202009Y-90052222D01*
X433219913Y-90042652D01*
X433358533Y-89968557D01*
X433415147Y-89951384D01*
X433528373Y-89917037D01*
X433594558Y-89910518D01*
X433660740Y-89904000D01*
X433749260Y-89904000D01*
X433815442Y-89910518D01*
X433815442Y-89910518D01*
G37*
G36*
X431581000Y-91706000D02*
X429479000Y-91706000D01*
X429479000Y-89904000D01*
X431581000Y-89904000D01*
X431581000Y-91706000D01*
X431581000Y-91706000D01*
G37*
G36*
X448275100Y-91473900D02*
X447573100Y-91473900D01*
X447573100Y-89571900D01*
X448275100Y-89571900D01*
X448275100Y-91473900D01*
X448275100Y-91473900D01*
G37*
G36*
X451575100Y-91473900D02*
X450873100Y-91473900D01*
X450873100Y-89571900D01*
X451575100Y-89571900D01*
X451575100Y-91473900D01*
X451575100Y-91473900D01*
G37*
G36*
X444975100Y-91473900D02*
X444273100Y-91473900D01*
X444273100Y-89571900D01*
X444975100Y-89571900D01*
X444975100Y-91473900D01*
X444975100Y-91473900D01*
G37*
G36*
X446075100Y-91473900D02*
X445373100Y-91473900D01*
X445373100Y-89571900D01*
X446075100Y-89571900D01*
X446075100Y-91473900D01*
X446075100Y-91473900D01*
G37*
G36*
X447175100Y-91473900D02*
X446473100Y-91473900D01*
X446473100Y-89571900D01*
X447175100Y-89571900D01*
X447175100Y-91473900D01*
X447175100Y-91473900D01*
G37*
G36*
X449375100Y-91473900D02*
X448673100Y-91473900D01*
X448673100Y-89571900D01*
X449375100Y-89571900D01*
X449375100Y-91473900D01*
X449375100Y-91473900D01*
G37*
G36*
X450475100Y-91473900D02*
X449773100Y-91473900D01*
X449773100Y-89571900D01*
X450475100Y-89571900D01*
X450475100Y-91473900D01*
X450475100Y-91473900D01*
G37*
G36*
X443875100Y-91473900D02*
X443173100Y-91473900D01*
X443173100Y-89571900D01*
X443875100Y-89571900D01*
X443875100Y-91473900D01*
X443875100Y-91473900D01*
G37*
G36*
X442775100Y-91473900D02*
X442073100Y-91473900D01*
X442073100Y-89571900D01*
X442775100Y-89571900D01*
X442775100Y-91473900D01*
X442775100Y-91473900D01*
G37*
G36*
X426986000Y-89411000D02*
X425184000Y-89411000D01*
X425184000Y-87309000D01*
X426986000Y-87309000D01*
X426986000Y-89411000D01*
X426986000Y-89411000D01*
G37*
G36*
X433815443Y-87370519D02*
X433881627Y-87377037D01*
X433994853Y-87411384D01*
X434051467Y-87428557D01*
X434190087Y-87502652D01*
X434207991Y-87512222D01*
X434243729Y-87541552D01*
X434345186Y-87624814D01*
X434428448Y-87726271D01*
X434457778Y-87762009D01*
X434457779Y-87762011D01*
X434541443Y-87918533D01*
X434541443Y-87918534D01*
X434592963Y-88088373D01*
X434610359Y-88265000D01*
X434592963Y-88441627D01*
X434558616Y-88554853D01*
X434541443Y-88611467D01*
X434467348Y-88750087D01*
X434457778Y-88767991D01*
X434428448Y-88803729D01*
X434345186Y-88905186D01*
X434243729Y-88988448D01*
X434207991Y-89017778D01*
X434207989Y-89017779D01*
X434051467Y-89101443D01*
X433994853Y-89118616D01*
X433881627Y-89152963D01*
X433815443Y-89159481D01*
X433749260Y-89166000D01*
X433660740Y-89166000D01*
X433594557Y-89159481D01*
X433528373Y-89152963D01*
X433415147Y-89118616D01*
X433358533Y-89101443D01*
X433202011Y-89017779D01*
X433202009Y-89017778D01*
X433166271Y-88988448D01*
X433064814Y-88905186D01*
X432981552Y-88803729D01*
X432952222Y-88767991D01*
X432942652Y-88750087D01*
X432868557Y-88611467D01*
X432851384Y-88554853D01*
X432817037Y-88441627D01*
X432799641Y-88265000D01*
X432817037Y-88088373D01*
X432868557Y-87918534D01*
X432868557Y-87918533D01*
X432952221Y-87762011D01*
X432952222Y-87762009D01*
X432981552Y-87726271D01*
X433064814Y-87624814D01*
X433166271Y-87541552D01*
X433202009Y-87512222D01*
X433219913Y-87502652D01*
X433358533Y-87428557D01*
X433415147Y-87411384D01*
X433528373Y-87377037D01*
X433594557Y-87370519D01*
X433660740Y-87364000D01*
X433749260Y-87364000D01*
X433815443Y-87370519D01*
X433815443Y-87370519D01*
G37*
G36*
X455725100Y-88023900D02*
X453823100Y-88023900D01*
X453823100Y-87321900D01*
X455725100Y-87321900D01*
X455725100Y-88023900D01*
X455725100Y-88023900D01*
G37*
G36*
X439825100Y-88023900D02*
X437923100Y-88023900D01*
X437923100Y-87321900D01*
X439825100Y-87321900D01*
X439825100Y-88023900D01*
X439825100Y-88023900D01*
G37*
G36*
X439825100Y-86923900D02*
X437923100Y-86923900D01*
X437923100Y-86221900D01*
X439825100Y-86221900D01*
X439825100Y-86923900D01*
X439825100Y-86923900D01*
G37*
G36*
X455725100Y-86923900D02*
X453823100Y-86923900D01*
X453823100Y-86221900D01*
X455725100Y-86221900D01*
X455725100Y-86923900D01*
X455725100Y-86923900D01*
G37*
G36*
X433815443Y-84830519D02*
X433881627Y-84837037D01*
X433994853Y-84871384D01*
X434051467Y-84888557D01*
X434190087Y-84962652D01*
X434207991Y-84972222D01*
X434243729Y-85001552D01*
X434345186Y-85084814D01*
X434428448Y-85186271D01*
X434457778Y-85222009D01*
X434457779Y-85222011D01*
X434541443Y-85378533D01*
X434558616Y-85435147D01*
X434592963Y-85548373D01*
X434610359Y-85725000D01*
X434592963Y-85901627D01*
X434558616Y-86014853D01*
X434541443Y-86071467D01*
X434467348Y-86210087D01*
X434457778Y-86227991D01*
X434428448Y-86263729D01*
X434345186Y-86365186D01*
X434243729Y-86448448D01*
X434207991Y-86477778D01*
X434207989Y-86477779D01*
X434051467Y-86561443D01*
X433994853Y-86578616D01*
X433881627Y-86612963D01*
X433815442Y-86619482D01*
X433749260Y-86626000D01*
X433660740Y-86626000D01*
X433594558Y-86619482D01*
X433528373Y-86612963D01*
X433415147Y-86578616D01*
X433358533Y-86561443D01*
X433202011Y-86477779D01*
X433202009Y-86477778D01*
X433166271Y-86448448D01*
X433064814Y-86365186D01*
X432981552Y-86263729D01*
X432952222Y-86227991D01*
X432942652Y-86210087D01*
X432868557Y-86071467D01*
X432851384Y-86014853D01*
X432817037Y-85901627D01*
X432799641Y-85725000D01*
X432817037Y-85548373D01*
X432851384Y-85435147D01*
X432868557Y-85378533D01*
X432952221Y-85222011D01*
X432952222Y-85222009D01*
X432981552Y-85186271D01*
X433064814Y-85084814D01*
X433166271Y-85001552D01*
X433202009Y-84972222D01*
X433219913Y-84962652D01*
X433358533Y-84888557D01*
X433415147Y-84871384D01*
X433528373Y-84837037D01*
X433594558Y-84830518D01*
X433660740Y-84824000D01*
X433749260Y-84824000D01*
X433815443Y-84830519D01*
X433815443Y-84830519D01*
G37*
G36*
X455725100Y-85823900D02*
X453823100Y-85823900D01*
X453823100Y-85121900D01*
X455725100Y-85121900D01*
X455725100Y-85823900D01*
X455725100Y-85823900D01*
G37*
G36*
X439825100Y-85823900D02*
X437923100Y-85823900D01*
X437923100Y-85121900D01*
X439825100Y-85121900D01*
X439825100Y-85823900D01*
X439825100Y-85823900D01*
G37*
G36*
X426986000Y-85411000D02*
X425184000Y-85411000D01*
X425184000Y-83309000D01*
X426986000Y-83309000D01*
X426986000Y-85411000D01*
X426986000Y-85411000D01*
G37*
G36*
X376186000Y-85356000D02*
X374384000Y-85356000D01*
X374384000Y-83554000D01*
X376186000Y-83554000D01*
X376186000Y-85356000D01*
X376186000Y-85356000D01*
G37*
G36*
X455725100Y-84723900D02*
X453823100Y-84723900D01*
X453823100Y-84021900D01*
X455725100Y-84021900D01*
X455725100Y-84723900D01*
X455725100Y-84723900D01*
G37*
G36*
X439825100Y-84723900D02*
X437923100Y-84723900D01*
X437923100Y-84021900D01*
X439825100Y-84021900D01*
X439825100Y-84723900D01*
X439825100Y-84723900D01*
G37*
G36*
X433815443Y-82290519D02*
X433881627Y-82297037D01*
X433994853Y-82331384D01*
X434051467Y-82348557D01*
X434181363Y-82417989D01*
X434207991Y-82432222D01*
X434243729Y-82461552D01*
X434345186Y-82544814D01*
X434428448Y-82646271D01*
X434457778Y-82682009D01*
X434457779Y-82682011D01*
X434541443Y-82838533D01*
X434541443Y-82838534D01*
X434592963Y-83008373D01*
X434610359Y-83185000D01*
X434592963Y-83361627D01*
X434558616Y-83474853D01*
X434541443Y-83531467D01*
X434492036Y-83623900D01*
X434457778Y-83687991D01*
X434428448Y-83723729D01*
X434345186Y-83825186D01*
X434243729Y-83908448D01*
X434207991Y-83937778D01*
X434207989Y-83937779D01*
X434051467Y-84021443D01*
X433994853Y-84038616D01*
X433881627Y-84072963D01*
X433815443Y-84079481D01*
X433749260Y-84086000D01*
X433660740Y-84086000D01*
X433594557Y-84079481D01*
X433528373Y-84072963D01*
X433415147Y-84038616D01*
X433358533Y-84021443D01*
X433202011Y-83937779D01*
X433202009Y-83937778D01*
X433166271Y-83908448D01*
X433064814Y-83825186D01*
X432981552Y-83723729D01*
X432952222Y-83687991D01*
X432917964Y-83623900D01*
X432868557Y-83531467D01*
X432851384Y-83474853D01*
X432817037Y-83361627D01*
X432799641Y-83185000D01*
X432817037Y-83008373D01*
X432868557Y-82838534D01*
X432868557Y-82838533D01*
X432952221Y-82682011D01*
X432952222Y-82682009D01*
X432981552Y-82646271D01*
X433064814Y-82544814D01*
X433166271Y-82461552D01*
X433202009Y-82432222D01*
X433228637Y-82417989D01*
X433358533Y-82348557D01*
X433415147Y-82331384D01*
X433528373Y-82297037D01*
X433594558Y-82290518D01*
X433660740Y-82284000D01*
X433749260Y-82284000D01*
X433815443Y-82290519D01*
X433815443Y-82290519D01*
G37*
G36*
X455725100Y-83623900D02*
X453823100Y-83623900D01*
X453823100Y-82921900D01*
X455725100Y-82921900D01*
X455725100Y-83623900D01*
X455725100Y-83623900D01*
G37*
G36*
X439825100Y-83623900D02*
X437923100Y-83623900D01*
X437923100Y-82921900D01*
X439825100Y-82921900D01*
X439825100Y-83623900D01*
X439825100Y-83623900D01*
G37*
G36*
X375395442Y-81020518D02*
X375461627Y-81027037D01*
X375574853Y-81061384D01*
X375631467Y-81078557D01*
X375761363Y-81147989D01*
X375787991Y-81162222D01*
X375823729Y-81191552D01*
X375925186Y-81274814D01*
X376008448Y-81376271D01*
X376037778Y-81412009D01*
X376037779Y-81412011D01*
X376121443Y-81568533D01*
X376121443Y-81568534D01*
X376172963Y-81738373D01*
X376190359Y-81915000D01*
X376172963Y-82091627D01*
X376138616Y-82204853D01*
X376121443Y-82261467D01*
X376102430Y-82297037D01*
X376037778Y-82417991D01*
X376008448Y-82453729D01*
X375925186Y-82555186D01*
X375823729Y-82638448D01*
X375787991Y-82667778D01*
X375787989Y-82667779D01*
X375631467Y-82751443D01*
X375574853Y-82768616D01*
X375461627Y-82802963D01*
X375395442Y-82809482D01*
X375329260Y-82816000D01*
X375240740Y-82816000D01*
X375174558Y-82809482D01*
X375108373Y-82802963D01*
X374995147Y-82768616D01*
X374938533Y-82751443D01*
X374782011Y-82667779D01*
X374782009Y-82667778D01*
X374746271Y-82638448D01*
X374644814Y-82555186D01*
X374561552Y-82453729D01*
X374532222Y-82417991D01*
X374467570Y-82297037D01*
X374448557Y-82261467D01*
X374431384Y-82204853D01*
X374397037Y-82091627D01*
X374379641Y-81915000D01*
X374397037Y-81738373D01*
X374448557Y-81568534D01*
X374448557Y-81568533D01*
X374532221Y-81412011D01*
X374532222Y-81412009D01*
X374561552Y-81376271D01*
X374644814Y-81274814D01*
X374746271Y-81191552D01*
X374782009Y-81162222D01*
X374808637Y-81147989D01*
X374938533Y-81078557D01*
X374995147Y-81061384D01*
X375108373Y-81027037D01*
X375174558Y-81020518D01*
X375240740Y-81014000D01*
X375329260Y-81014000D01*
X375395442Y-81020518D01*
X375395442Y-81020518D01*
G37*
G36*
X455725100Y-82523900D02*
X453823100Y-82523900D01*
X453823100Y-81821900D01*
X455725100Y-81821900D01*
X455725100Y-82523900D01*
X455725100Y-82523900D01*
G37*
G36*
X439825100Y-82523900D02*
X437923100Y-82523900D01*
X437923100Y-81821900D01*
X439825100Y-81821900D01*
X439825100Y-82523900D01*
X439825100Y-82523900D01*
G37*
G36*
X433815442Y-79750518D02*
X433881627Y-79757037D01*
X433994853Y-79791384D01*
X434051467Y-79808557D01*
X434181363Y-79877989D01*
X434207991Y-79892222D01*
X434243729Y-79921552D01*
X434345186Y-80004814D01*
X434428448Y-80106271D01*
X434457778Y-80142009D01*
X434457779Y-80142011D01*
X434541443Y-80298533D01*
X434541443Y-80298534D01*
X434592963Y-80468373D01*
X434610359Y-80645000D01*
X434592963Y-80821627D01*
X434558616Y-80934853D01*
X434541443Y-80991467D01*
X434522430Y-81027037D01*
X434457778Y-81147991D01*
X434428448Y-81183729D01*
X434345186Y-81285186D01*
X434243729Y-81368448D01*
X434207991Y-81397778D01*
X434207989Y-81397779D01*
X434051467Y-81481443D01*
X433994853Y-81498616D01*
X433881627Y-81532963D01*
X433815442Y-81539482D01*
X433749260Y-81546000D01*
X433660740Y-81546000D01*
X433594558Y-81539482D01*
X433528373Y-81532963D01*
X433415147Y-81498616D01*
X433358533Y-81481443D01*
X433202011Y-81397779D01*
X433202009Y-81397778D01*
X433166271Y-81368448D01*
X433064814Y-81285186D01*
X432981552Y-81183729D01*
X432952222Y-81147991D01*
X432887570Y-81027037D01*
X432868557Y-80991467D01*
X432851384Y-80934853D01*
X432817037Y-80821627D01*
X432799641Y-80645000D01*
X432817037Y-80468373D01*
X432868557Y-80298534D01*
X432868557Y-80298533D01*
X432952221Y-80142011D01*
X432952222Y-80142009D01*
X432981552Y-80106271D01*
X433064814Y-80004814D01*
X433166271Y-79921552D01*
X433202009Y-79892222D01*
X433228637Y-79877989D01*
X433358533Y-79808557D01*
X433415147Y-79791384D01*
X433528373Y-79757037D01*
X433594558Y-79750518D01*
X433660740Y-79744000D01*
X433749260Y-79744000D01*
X433815442Y-79750518D01*
X433815442Y-79750518D01*
G37*
G36*
X439825100Y-81423900D02*
X437923100Y-81423900D01*
X437923100Y-80721900D01*
X439825100Y-80721900D01*
X439825100Y-81423900D01*
X439825100Y-81423900D01*
G37*
G36*
X455725100Y-81423900D02*
X453823100Y-81423900D01*
X453823100Y-80721900D01*
X455725100Y-80721900D01*
X455725100Y-81423900D01*
X455725100Y-81423900D01*
G37*
G36*
X439825100Y-80323900D02*
X437923100Y-80323900D01*
X437923100Y-79621900D01*
X439825100Y-79621900D01*
X439825100Y-80323900D01*
X439825100Y-80323900D01*
G37*
G36*
X455725100Y-80323900D02*
X453823100Y-80323900D01*
X453823100Y-79621900D01*
X455725100Y-79621900D01*
X455725100Y-80323900D01*
X455725100Y-80323900D01*
G37*
G36*
X375395442Y-78480518D02*
X375461627Y-78487037D01*
X375574853Y-78521384D01*
X375631467Y-78538557D01*
X375761363Y-78607989D01*
X375787991Y-78622222D01*
X375823729Y-78651552D01*
X375925186Y-78734814D01*
X376008448Y-78836271D01*
X376037778Y-78872009D01*
X376037779Y-78872011D01*
X376121443Y-79028533D01*
X376121443Y-79028534D01*
X376172963Y-79198373D01*
X376190359Y-79375000D01*
X376172963Y-79551627D01*
X376151646Y-79621900D01*
X376121443Y-79721467D01*
X376102430Y-79757037D01*
X376037778Y-79877991D01*
X376008448Y-79913729D01*
X375925186Y-80015186D01*
X375823729Y-80098448D01*
X375787991Y-80127778D01*
X375787989Y-80127779D01*
X375631467Y-80211443D01*
X375574853Y-80228616D01*
X375461627Y-80262963D01*
X375395442Y-80269482D01*
X375329260Y-80276000D01*
X375240740Y-80276000D01*
X375174558Y-80269482D01*
X375108373Y-80262963D01*
X374995147Y-80228616D01*
X374938533Y-80211443D01*
X374782011Y-80127779D01*
X374782009Y-80127778D01*
X374746271Y-80098448D01*
X374644814Y-80015186D01*
X374561552Y-79913729D01*
X374532222Y-79877991D01*
X374467570Y-79757037D01*
X374448557Y-79721467D01*
X374418354Y-79621900D01*
X374397037Y-79551627D01*
X374379641Y-79375000D01*
X374397037Y-79198373D01*
X374448557Y-79028534D01*
X374448557Y-79028533D01*
X374532221Y-78872011D01*
X374532222Y-78872009D01*
X374561552Y-78836271D01*
X374644814Y-78734814D01*
X374746271Y-78651552D01*
X374782009Y-78622222D01*
X374808637Y-78607989D01*
X374938533Y-78538557D01*
X374995147Y-78521384D01*
X375108373Y-78487037D01*
X375174558Y-78480518D01*
X375240740Y-78474000D01*
X375329260Y-78474000D01*
X375395442Y-78480518D01*
X375395442Y-78480518D01*
G37*
G36*
X455725100Y-79223900D02*
X453823100Y-79223900D01*
X453823100Y-78521900D01*
X455725100Y-78521900D01*
X455725100Y-79223900D01*
X455725100Y-79223900D01*
G37*
G36*
X439825100Y-79223900D02*
X437923100Y-79223900D01*
X437923100Y-78521900D01*
X439825100Y-78521900D01*
X439825100Y-79223900D01*
X439825100Y-79223900D01*
G37*
G36*
X383015443Y-77210519D02*
X383081627Y-77217037D01*
X383194853Y-77251384D01*
X383251467Y-77268557D01*
X383390087Y-77342652D01*
X383407991Y-77352222D01*
X383443729Y-77381552D01*
X383545186Y-77464814D01*
X383628448Y-77566271D01*
X383657778Y-77602009D01*
X383657779Y-77602011D01*
X383741443Y-77758533D01*
X383741443Y-77758534D01*
X383792963Y-77928373D01*
X383810359Y-78105000D01*
X383792963Y-78281627D01*
X383758616Y-78394853D01*
X383741443Y-78451467D01*
X383722430Y-78487037D01*
X383657778Y-78607991D01*
X383628448Y-78643729D01*
X383545186Y-78745186D01*
X383443729Y-78828448D01*
X383407991Y-78857778D01*
X383407989Y-78857779D01*
X383251467Y-78941443D01*
X383194853Y-78958616D01*
X383081627Y-78992963D01*
X383015442Y-78999482D01*
X382949260Y-79006000D01*
X382860740Y-79006000D01*
X382794557Y-78999481D01*
X382728373Y-78992963D01*
X382615147Y-78958616D01*
X382558533Y-78941443D01*
X382402011Y-78857779D01*
X382402009Y-78857778D01*
X382366271Y-78828448D01*
X382264814Y-78745186D01*
X382181552Y-78643729D01*
X382152222Y-78607991D01*
X382087570Y-78487037D01*
X382068557Y-78451467D01*
X382051384Y-78394853D01*
X382017037Y-78281627D01*
X381999641Y-78105000D01*
X382017037Y-77928373D01*
X382068557Y-77758534D01*
X382068557Y-77758533D01*
X382152221Y-77602011D01*
X382152222Y-77602009D01*
X382181552Y-77566271D01*
X382264814Y-77464814D01*
X382366271Y-77381552D01*
X382402009Y-77352222D01*
X382419913Y-77342652D01*
X382558533Y-77268557D01*
X382615147Y-77251384D01*
X382728373Y-77217037D01*
X382794557Y-77210519D01*
X382860740Y-77204000D01*
X382949260Y-77204000D01*
X383015443Y-77210519D01*
X383015443Y-77210519D01*
G37*
G36*
X385555443Y-77210519D02*
X385621627Y-77217037D01*
X385734853Y-77251384D01*
X385791467Y-77268557D01*
X385930087Y-77342652D01*
X385947991Y-77352222D01*
X385983729Y-77381552D01*
X386085186Y-77464814D01*
X386168448Y-77566271D01*
X386197778Y-77602009D01*
X386197779Y-77602011D01*
X386281443Y-77758533D01*
X386281443Y-77758534D01*
X386332963Y-77928373D01*
X386350359Y-78105000D01*
X386332963Y-78281627D01*
X386298616Y-78394853D01*
X386281443Y-78451467D01*
X386262430Y-78487037D01*
X386197778Y-78607991D01*
X386168448Y-78643729D01*
X386085186Y-78745186D01*
X385983729Y-78828448D01*
X385947991Y-78857778D01*
X385947989Y-78857779D01*
X385791467Y-78941443D01*
X385734853Y-78958616D01*
X385621627Y-78992963D01*
X385555442Y-78999482D01*
X385489260Y-79006000D01*
X385400740Y-79006000D01*
X385334557Y-78999481D01*
X385268373Y-78992963D01*
X385155147Y-78958616D01*
X385098533Y-78941443D01*
X384942011Y-78857779D01*
X384942009Y-78857778D01*
X384906271Y-78828448D01*
X384804814Y-78745186D01*
X384721552Y-78643729D01*
X384692222Y-78607991D01*
X384627570Y-78487037D01*
X384608557Y-78451467D01*
X384591384Y-78394853D01*
X384557037Y-78281627D01*
X384539641Y-78105000D01*
X384557037Y-77928373D01*
X384608557Y-77758534D01*
X384608557Y-77758533D01*
X384692221Y-77602011D01*
X384692222Y-77602009D01*
X384721552Y-77566271D01*
X384804814Y-77464814D01*
X384906271Y-77381552D01*
X384942009Y-77352222D01*
X384959913Y-77342652D01*
X385098533Y-77268557D01*
X385155147Y-77251384D01*
X385268373Y-77217037D01*
X385334557Y-77210519D01*
X385400740Y-77204000D01*
X385489260Y-77204000D01*
X385555443Y-77210519D01*
X385555443Y-77210519D01*
G37*
G36*
X433815443Y-77210519D02*
X433881627Y-77217037D01*
X433994853Y-77251384D01*
X434051467Y-77268557D01*
X434190087Y-77342652D01*
X434207991Y-77352222D01*
X434243729Y-77381552D01*
X434345186Y-77464814D01*
X434428448Y-77566271D01*
X434457778Y-77602009D01*
X434457779Y-77602011D01*
X434541443Y-77758533D01*
X434541443Y-77758534D01*
X434592963Y-77928373D01*
X434610359Y-78105000D01*
X434592963Y-78281627D01*
X434558616Y-78394853D01*
X434541443Y-78451467D01*
X434522430Y-78487037D01*
X434457778Y-78607991D01*
X434428448Y-78643729D01*
X434345186Y-78745186D01*
X434243729Y-78828448D01*
X434207991Y-78857778D01*
X434207989Y-78857779D01*
X434051467Y-78941443D01*
X433994853Y-78958616D01*
X433881627Y-78992963D01*
X433815442Y-78999482D01*
X433749260Y-79006000D01*
X433660740Y-79006000D01*
X433594557Y-78999481D01*
X433528373Y-78992963D01*
X433415147Y-78958616D01*
X433358533Y-78941443D01*
X433202011Y-78857779D01*
X433202009Y-78857778D01*
X433166271Y-78828448D01*
X433064814Y-78745186D01*
X432981552Y-78643729D01*
X432952222Y-78607991D01*
X432887570Y-78487037D01*
X432868557Y-78451467D01*
X432851384Y-78394853D01*
X432817037Y-78281627D01*
X432799641Y-78105000D01*
X432817037Y-77928373D01*
X432868557Y-77758534D01*
X432868557Y-77758533D01*
X432952221Y-77602011D01*
X432952222Y-77602009D01*
X432981552Y-77566271D01*
X433064814Y-77464814D01*
X433166271Y-77381552D01*
X433202009Y-77352222D01*
X433219913Y-77342652D01*
X433358533Y-77268557D01*
X433415147Y-77251384D01*
X433528373Y-77217037D01*
X433594557Y-77210519D01*
X433660740Y-77204000D01*
X433749260Y-77204000D01*
X433815443Y-77210519D01*
X433815443Y-77210519D01*
G37*
G36*
X388095443Y-77210519D02*
X388161627Y-77217037D01*
X388274853Y-77251384D01*
X388331467Y-77268557D01*
X388470087Y-77342652D01*
X388487991Y-77352222D01*
X388523729Y-77381552D01*
X388625186Y-77464814D01*
X388708448Y-77566271D01*
X388737778Y-77602009D01*
X388737779Y-77602011D01*
X388821443Y-77758533D01*
X388821443Y-77758534D01*
X388872963Y-77928373D01*
X388890359Y-78105000D01*
X388872963Y-78281627D01*
X388838616Y-78394853D01*
X388821443Y-78451467D01*
X388802430Y-78487037D01*
X388737778Y-78607991D01*
X388708448Y-78643729D01*
X388625186Y-78745186D01*
X388523729Y-78828448D01*
X388487991Y-78857778D01*
X388487989Y-78857779D01*
X388331467Y-78941443D01*
X388274853Y-78958616D01*
X388161627Y-78992963D01*
X388095442Y-78999482D01*
X388029260Y-79006000D01*
X387940740Y-79006000D01*
X387874557Y-78999481D01*
X387808373Y-78992963D01*
X387695147Y-78958616D01*
X387638533Y-78941443D01*
X387482011Y-78857779D01*
X387482009Y-78857778D01*
X387446271Y-78828448D01*
X387344814Y-78745186D01*
X387261552Y-78643729D01*
X387232222Y-78607991D01*
X387167570Y-78487037D01*
X387148557Y-78451467D01*
X387131384Y-78394853D01*
X387097037Y-78281627D01*
X387079641Y-78105000D01*
X387097037Y-77928373D01*
X387148557Y-77758534D01*
X387148557Y-77758533D01*
X387232221Y-77602011D01*
X387232222Y-77602009D01*
X387261552Y-77566271D01*
X387344814Y-77464814D01*
X387446271Y-77381552D01*
X387482009Y-77352222D01*
X387499913Y-77342652D01*
X387638533Y-77268557D01*
X387695147Y-77251384D01*
X387808373Y-77217037D01*
X387874557Y-77210519D01*
X387940740Y-77204000D01*
X388029260Y-77204000D01*
X388095443Y-77210519D01*
X388095443Y-77210519D01*
G37*
G36*
X390635443Y-77210519D02*
X390701627Y-77217037D01*
X390814853Y-77251384D01*
X390871467Y-77268557D01*
X391010087Y-77342652D01*
X391027991Y-77352222D01*
X391063729Y-77381552D01*
X391165186Y-77464814D01*
X391248448Y-77566271D01*
X391277778Y-77602009D01*
X391277779Y-77602011D01*
X391361443Y-77758533D01*
X391361443Y-77758534D01*
X391412963Y-77928373D01*
X391430359Y-78105000D01*
X391412963Y-78281627D01*
X391378616Y-78394853D01*
X391361443Y-78451467D01*
X391342430Y-78487037D01*
X391277778Y-78607991D01*
X391248448Y-78643729D01*
X391165186Y-78745186D01*
X391063729Y-78828448D01*
X391027991Y-78857778D01*
X391027989Y-78857779D01*
X390871467Y-78941443D01*
X390814853Y-78958616D01*
X390701627Y-78992963D01*
X390635442Y-78999482D01*
X390569260Y-79006000D01*
X390480740Y-79006000D01*
X390414557Y-78999481D01*
X390348373Y-78992963D01*
X390235147Y-78958616D01*
X390178533Y-78941443D01*
X390022011Y-78857779D01*
X390022009Y-78857778D01*
X389986271Y-78828448D01*
X389884814Y-78745186D01*
X389801552Y-78643729D01*
X389772222Y-78607991D01*
X389707570Y-78487037D01*
X389688557Y-78451467D01*
X389671384Y-78394853D01*
X389637037Y-78281627D01*
X389619641Y-78105000D01*
X389637037Y-77928373D01*
X389688557Y-77758534D01*
X389688557Y-77758533D01*
X389772221Y-77602011D01*
X389772222Y-77602009D01*
X389801552Y-77566271D01*
X389884814Y-77464814D01*
X389986271Y-77381552D01*
X390022009Y-77352222D01*
X390039913Y-77342652D01*
X390178533Y-77268557D01*
X390235147Y-77251384D01*
X390348373Y-77217037D01*
X390414557Y-77210519D01*
X390480740Y-77204000D01*
X390569260Y-77204000D01*
X390635443Y-77210519D01*
X390635443Y-77210519D01*
G37*
G36*
X393175443Y-77210519D02*
X393241627Y-77217037D01*
X393354853Y-77251384D01*
X393411467Y-77268557D01*
X393550087Y-77342652D01*
X393567991Y-77352222D01*
X393603729Y-77381552D01*
X393705186Y-77464814D01*
X393788448Y-77566271D01*
X393817778Y-77602009D01*
X393817779Y-77602011D01*
X393901443Y-77758533D01*
X393901443Y-77758534D01*
X393952963Y-77928373D01*
X393970359Y-78105000D01*
X393952963Y-78281627D01*
X393918616Y-78394853D01*
X393901443Y-78451467D01*
X393882430Y-78487037D01*
X393817778Y-78607991D01*
X393788448Y-78643729D01*
X393705186Y-78745186D01*
X393603729Y-78828448D01*
X393567991Y-78857778D01*
X393567989Y-78857779D01*
X393411467Y-78941443D01*
X393354853Y-78958616D01*
X393241627Y-78992963D01*
X393175442Y-78999482D01*
X393109260Y-79006000D01*
X393020740Y-79006000D01*
X392954557Y-78999481D01*
X392888373Y-78992963D01*
X392775147Y-78958616D01*
X392718533Y-78941443D01*
X392562011Y-78857779D01*
X392562009Y-78857778D01*
X392526271Y-78828448D01*
X392424814Y-78745186D01*
X392341552Y-78643729D01*
X392312222Y-78607991D01*
X392247570Y-78487037D01*
X392228557Y-78451467D01*
X392211384Y-78394853D01*
X392177037Y-78281627D01*
X392159641Y-78105000D01*
X392177037Y-77928373D01*
X392228557Y-77758534D01*
X392228557Y-77758533D01*
X392312221Y-77602011D01*
X392312222Y-77602009D01*
X392341552Y-77566271D01*
X392424814Y-77464814D01*
X392526271Y-77381552D01*
X392562009Y-77352222D01*
X392579913Y-77342652D01*
X392718533Y-77268557D01*
X392775147Y-77251384D01*
X392888373Y-77217037D01*
X392954557Y-77210519D01*
X393020740Y-77204000D01*
X393109260Y-77204000D01*
X393175443Y-77210519D01*
X393175443Y-77210519D01*
G37*
G36*
X381266000Y-79006000D02*
X379464000Y-79006000D01*
X379464000Y-77204000D01*
X381266000Y-77204000D01*
X381266000Y-79006000D01*
X381266000Y-79006000D01*
G37*
G36*
X455725100Y-78123900D02*
X453823100Y-78123900D01*
X453823100Y-77421900D01*
X455725100Y-77421900D01*
X455725100Y-78123900D01*
X455725100Y-78123900D01*
G37*
G36*
X439825100Y-78123900D02*
X437923100Y-78123900D01*
X437923100Y-77421900D01*
X439825100Y-77421900D01*
X439825100Y-78123900D01*
X439825100Y-78123900D01*
G37*
G36*
X455725100Y-77023900D02*
X453823100Y-77023900D01*
X453823100Y-76321900D01*
X455725100Y-76321900D01*
X455725100Y-77023900D01*
X455725100Y-77023900D01*
G37*
G36*
X439825100Y-77023900D02*
X437923100Y-77023900D01*
X437923100Y-76321900D01*
X439825100Y-76321900D01*
X439825100Y-77023900D01*
X439825100Y-77023900D01*
G37*
G36*
X439825100Y-75923900D02*
X437923100Y-75923900D01*
X437923100Y-75221900D01*
X439825100Y-75221900D01*
X439825100Y-75923900D01*
X439825100Y-75923900D01*
G37*
G36*
X455725100Y-75923900D02*
X453823100Y-75923900D01*
X453823100Y-75221900D01*
X455725100Y-75221900D01*
X455725100Y-75923900D01*
X455725100Y-75923900D01*
G37*
G36*
X459850443Y-73400519D02*
X459916627Y-73407037D01*
X460029853Y-73441384D01*
X460086467Y-73458557D01*
X460225087Y-73532652D01*
X460242991Y-73542222D01*
X460278729Y-73571552D01*
X460380186Y-73654814D01*
X460463448Y-73756271D01*
X460492778Y-73792009D01*
X460492779Y-73792011D01*
X460576443Y-73948533D01*
X460576443Y-73948534D01*
X460627963Y-74118373D01*
X460645359Y-74295000D01*
X460627963Y-74471627D01*
X460593616Y-74584853D01*
X460576443Y-74641467D01*
X460502348Y-74780087D01*
X460492778Y-74797991D01*
X460463448Y-74833729D01*
X460380186Y-74935186D01*
X460278729Y-75018448D01*
X460242991Y-75047778D01*
X460242989Y-75047779D01*
X460086467Y-75131443D01*
X460029853Y-75148616D01*
X459916627Y-75182963D01*
X459850442Y-75189482D01*
X459784260Y-75196000D01*
X459695740Y-75196000D01*
X459629558Y-75189482D01*
X459563373Y-75182963D01*
X459450147Y-75148616D01*
X459393533Y-75131443D01*
X459237011Y-75047779D01*
X459237009Y-75047778D01*
X459201271Y-75018448D01*
X459099814Y-74935186D01*
X459016552Y-74833729D01*
X458987222Y-74797991D01*
X458977652Y-74780087D01*
X458903557Y-74641467D01*
X458886384Y-74584853D01*
X458852037Y-74471627D01*
X458834641Y-74295000D01*
X458852037Y-74118373D01*
X458903557Y-73948534D01*
X458903557Y-73948533D01*
X458987221Y-73792011D01*
X458987222Y-73792009D01*
X459016552Y-73756271D01*
X459099814Y-73654814D01*
X459201271Y-73571552D01*
X459237009Y-73542222D01*
X459254913Y-73532652D01*
X459393533Y-73458557D01*
X459450147Y-73441384D01*
X459563373Y-73407037D01*
X459629558Y-73400518D01*
X459695740Y-73394000D01*
X459784260Y-73394000D01*
X459850443Y-73400519D01*
X459850443Y-73400519D01*
G37*
G36*
X434606000Y-75196000D02*
X432804000Y-75196000D01*
X432804000Y-73394000D01*
X434606000Y-73394000D01*
X434606000Y-75196000D01*
X434606000Y-75196000D01*
G37*
G36*
X449375100Y-73673900D02*
X448673100Y-73673900D01*
X448673100Y-71771900D01*
X449375100Y-71771900D01*
X449375100Y-73673900D01*
X449375100Y-73673900D01*
G37*
G36*
X447175100Y-73673900D02*
X446473100Y-73673900D01*
X446473100Y-71771900D01*
X447175100Y-71771900D01*
X447175100Y-73673900D01*
X447175100Y-73673900D01*
G37*
G36*
X450475100Y-73673900D02*
X449773100Y-73673900D01*
X449773100Y-71771900D01*
X450475100Y-71771900D01*
X450475100Y-73673900D01*
X450475100Y-73673900D01*
G37*
G36*
X451575100Y-73673900D02*
X450873100Y-73673900D01*
X450873100Y-71771900D01*
X451575100Y-71771900D01*
X451575100Y-73673900D01*
X451575100Y-73673900D01*
G37*
G36*
X448275100Y-73673900D02*
X447573100Y-73673900D01*
X447573100Y-71771900D01*
X448275100Y-71771900D01*
X448275100Y-73673900D01*
X448275100Y-73673900D01*
G37*
G36*
X446075100Y-73673900D02*
X445373100Y-73673900D01*
X445373100Y-71771900D01*
X446075100Y-71771900D01*
X446075100Y-73673900D01*
X446075100Y-73673900D01*
G37*
G36*
X444975100Y-73673900D02*
X444273100Y-73673900D01*
X444273100Y-71771900D01*
X444975100Y-71771900D01*
X444975100Y-73673900D01*
X444975100Y-73673900D01*
G37*
G36*
X443875100Y-73673900D02*
X443173100Y-73673900D01*
X443173100Y-71771900D01*
X443875100Y-71771900D01*
X443875100Y-73673900D01*
X443875100Y-73673900D01*
G37*
G36*
X442775100Y-73673900D02*
X442073100Y-73673900D01*
X442073100Y-71771900D01*
X442775100Y-71771900D01*
X442775100Y-73673900D01*
X442775100Y-73673900D01*
G37*
G36*
X433815442Y-70860518D02*
X433881627Y-70867037D01*
X433994853Y-70901384D01*
X434051467Y-70918557D01*
X434190087Y-70992652D01*
X434207991Y-71002222D01*
X434243729Y-71031552D01*
X434345186Y-71114814D01*
X434428448Y-71216271D01*
X434457778Y-71252009D01*
X434457779Y-71252011D01*
X434541443Y-71408533D01*
X434541443Y-71408534D01*
X434592963Y-71578373D01*
X434610359Y-71755000D01*
X434592963Y-71931627D01*
X434558616Y-72044853D01*
X434541443Y-72101467D01*
X434467348Y-72240087D01*
X434457778Y-72257991D01*
X434428448Y-72293729D01*
X434345186Y-72395186D01*
X434243729Y-72478448D01*
X434207991Y-72507778D01*
X434207989Y-72507779D01*
X434051467Y-72591443D01*
X433994853Y-72608616D01*
X433881627Y-72642963D01*
X433815443Y-72649481D01*
X433749260Y-72656000D01*
X433660740Y-72656000D01*
X433594557Y-72649481D01*
X433528373Y-72642963D01*
X433415147Y-72608616D01*
X433358533Y-72591443D01*
X433202011Y-72507779D01*
X433202009Y-72507778D01*
X433166271Y-72478448D01*
X433064814Y-72395186D01*
X432981552Y-72293729D01*
X432952222Y-72257991D01*
X432942652Y-72240087D01*
X432868557Y-72101467D01*
X432851384Y-72044853D01*
X432817037Y-71931627D01*
X432799641Y-71755000D01*
X432817037Y-71578373D01*
X432868557Y-71408534D01*
X432868557Y-71408533D01*
X432952221Y-71252011D01*
X432952222Y-71252009D01*
X432981552Y-71216271D01*
X433064814Y-71114814D01*
X433166271Y-71031552D01*
X433202009Y-71002222D01*
X433219913Y-70992652D01*
X433358533Y-70918557D01*
X433415147Y-70901384D01*
X433528373Y-70867037D01*
X433594557Y-70860519D01*
X433660740Y-70854000D01*
X433749260Y-70854000D01*
X433815442Y-70860518D01*
X433815442Y-70860518D01*
G37*
G36*
X460641000Y-72656000D02*
X458839000Y-72656000D01*
X458839000Y-70854000D01*
X460641000Y-70854000D01*
X460641000Y-72656000D01*
X460641000Y-72656000D01*
G37*
G36*
X397620104Y-68324585D02*
X397788626Y-68394389D01*
X397940291Y-68495728D01*
X398069272Y-68624709D01*
X398170611Y-68776374D01*
X398240415Y-68944896D01*
X398276000Y-69123797D01*
X398276000Y-69306203D01*
X398240415Y-69485104D01*
X398170611Y-69653626D01*
X398069272Y-69805291D01*
X397940291Y-69934272D01*
X397788626Y-70035611D01*
X397620104Y-70105415D01*
X397441203Y-70141000D01*
X397258797Y-70141000D01*
X397079896Y-70105415D01*
X396911374Y-70035611D01*
X396759709Y-69934272D01*
X396630728Y-69805291D01*
X396529389Y-69653626D01*
X396459585Y-69485104D01*
X396424000Y-69306203D01*
X396424000Y-69123797D01*
X396459585Y-68944896D01*
X396529389Y-68776374D01*
X396630728Y-68624709D01*
X396759709Y-68495728D01*
X396911374Y-68394389D01*
X397079896Y-68324585D01*
X397258797Y-68289000D01*
X397441203Y-68289000D01*
X397620104Y-68324585D01*
X397620104Y-68324585D01*
G37*
G36*
X395120104Y-68324585D02*
X395288626Y-68394389D01*
X395440291Y-68495728D01*
X395569272Y-68624709D01*
X395670611Y-68776374D01*
X395740415Y-68944896D01*
X395776000Y-69123797D01*
X395776000Y-69306203D01*
X395740415Y-69485104D01*
X395670611Y-69653626D01*
X395569272Y-69805291D01*
X395440291Y-69934272D01*
X395288626Y-70035611D01*
X395120104Y-70105415D01*
X394941203Y-70141000D01*
X394758797Y-70141000D01*
X394579896Y-70105415D01*
X394411374Y-70035611D01*
X394259709Y-69934272D01*
X394130728Y-69805291D01*
X394029389Y-69653626D01*
X393959585Y-69485104D01*
X393924000Y-69306203D01*
X393924000Y-69123797D01*
X393959585Y-68944896D01*
X394029389Y-68776374D01*
X394130728Y-68624709D01*
X394259709Y-68495728D01*
X394411374Y-68394389D01*
X394579896Y-68324585D01*
X394758797Y-68289000D01*
X394941203Y-68289000D01*
X395120104Y-68324585D01*
X395120104Y-68324585D01*
G37*
G36*
X392620104Y-68324585D02*
X392788626Y-68394389D01*
X392940291Y-68495728D01*
X393069272Y-68624709D01*
X393170611Y-68776374D01*
X393240415Y-68944896D01*
X393276000Y-69123797D01*
X393276000Y-69306203D01*
X393240415Y-69485104D01*
X393170611Y-69653626D01*
X393069272Y-69805291D01*
X392940291Y-69934272D01*
X392788626Y-70035611D01*
X392620104Y-70105415D01*
X392441203Y-70141000D01*
X392258797Y-70141000D01*
X392079896Y-70105415D01*
X391911374Y-70035611D01*
X391759709Y-69934272D01*
X391630728Y-69805291D01*
X391529389Y-69653626D01*
X391459585Y-69485104D01*
X391424000Y-69306203D01*
X391424000Y-69123797D01*
X391459585Y-68944896D01*
X391529389Y-68776374D01*
X391630728Y-68624709D01*
X391759709Y-68495728D01*
X391911374Y-68394389D01*
X392079896Y-68324585D01*
X392258797Y-68289000D01*
X392441203Y-68289000D01*
X392620104Y-68324585D01*
X392620104Y-68324585D01*
G37*
G36*
X390120104Y-68324585D02*
X390288626Y-68394389D01*
X390440291Y-68495728D01*
X390569272Y-68624709D01*
X390670611Y-68776374D01*
X390740415Y-68944896D01*
X390776000Y-69123797D01*
X390776000Y-69306203D01*
X390740415Y-69485104D01*
X390670611Y-69653626D01*
X390569272Y-69805291D01*
X390440291Y-69934272D01*
X390288626Y-70035611D01*
X390120104Y-70105415D01*
X389941203Y-70141000D01*
X389758797Y-70141000D01*
X389579896Y-70105415D01*
X389411374Y-70035611D01*
X389259709Y-69934272D01*
X389130728Y-69805291D01*
X389029389Y-69653626D01*
X388959585Y-69485104D01*
X388924000Y-69306203D01*
X388924000Y-69123797D01*
X388959585Y-68944896D01*
X389029389Y-68776374D01*
X389130728Y-68624709D01*
X389259709Y-68495728D01*
X389411374Y-68394389D01*
X389579896Y-68324585D01*
X389758797Y-68289000D01*
X389941203Y-68289000D01*
X390120104Y-68324585D01*
X390120104Y-68324585D01*
G37*
G36*
X388276000Y-70141000D02*
X386424000Y-70141000D01*
X386424000Y-68289000D01*
X388276000Y-68289000D01*
X388276000Y-70141000D01*
X388276000Y-70141000D01*
G37*
G36*
X436990442Y-68320518D02*
X437056627Y-68327037D01*
X437169853Y-68361384D01*
X437226467Y-68378557D01*
X437365087Y-68452652D01*
X437382991Y-68462222D01*
X437418729Y-68491552D01*
X437520186Y-68574814D01*
X437603448Y-68676271D01*
X437632778Y-68712009D01*
X437632779Y-68712011D01*
X437716443Y-68868533D01*
X437716443Y-68868534D01*
X437767963Y-69038373D01*
X437785359Y-69215000D01*
X437767963Y-69391627D01*
X437760435Y-69416443D01*
X437716443Y-69561467D01*
X437667183Y-69653625D01*
X437632778Y-69717991D01*
X437603448Y-69753729D01*
X437520186Y-69855186D01*
X437423822Y-69934269D01*
X437382991Y-69967778D01*
X437382989Y-69967779D01*
X437226467Y-70051443D01*
X437169853Y-70068616D01*
X437056627Y-70102963D01*
X436990442Y-70109482D01*
X436924260Y-70116000D01*
X436835740Y-70116000D01*
X436769558Y-70109482D01*
X436703373Y-70102963D01*
X436590147Y-70068616D01*
X436533533Y-70051443D01*
X436377011Y-69967779D01*
X436377009Y-69967778D01*
X436336178Y-69934269D01*
X436239814Y-69855186D01*
X436156552Y-69753729D01*
X436127222Y-69717991D01*
X436092817Y-69653625D01*
X436043557Y-69561467D01*
X435999565Y-69416443D01*
X435992037Y-69391627D01*
X435974641Y-69215000D01*
X435992037Y-69038373D01*
X436043557Y-68868534D01*
X436043557Y-68868533D01*
X436127221Y-68712011D01*
X436127222Y-68712009D01*
X436156552Y-68676271D01*
X436239814Y-68574814D01*
X436341271Y-68491552D01*
X436377009Y-68462222D01*
X436394913Y-68452652D01*
X436533533Y-68378557D01*
X436590147Y-68361384D01*
X436703373Y-68327037D01*
X436769558Y-68320518D01*
X436835740Y-68314000D01*
X436924260Y-68314000D01*
X436990442Y-68320518D01*
X436990442Y-68320518D01*
G37*
G36*
X452230443Y-67685519D02*
X452296627Y-67692037D01*
X452409853Y-67726384D01*
X452466467Y-67743557D01*
X452605087Y-67817652D01*
X452622991Y-67827222D01*
X452658729Y-67856552D01*
X452760186Y-67939814D01*
X452843448Y-68041271D01*
X452872778Y-68077009D01*
X452872779Y-68077011D01*
X452956443Y-68233533D01*
X452956443Y-68233534D01*
X453007963Y-68403373D01*
X453025359Y-68580000D01*
X453007963Y-68756627D01*
X452996019Y-68796000D01*
X452956443Y-68926467D01*
X452946592Y-68944896D01*
X452872778Y-69082991D01*
X452843448Y-69118729D01*
X452760186Y-69220186D01*
X452658729Y-69303448D01*
X452622991Y-69332778D01*
X452622989Y-69332779D01*
X452466467Y-69416443D01*
X452409853Y-69433616D01*
X452296627Y-69467963D01*
X452230442Y-69474482D01*
X452164260Y-69481000D01*
X452075740Y-69481000D01*
X452009558Y-69474482D01*
X451943373Y-69467963D01*
X451830147Y-69433616D01*
X451773533Y-69416443D01*
X451617011Y-69332779D01*
X451617009Y-69332778D01*
X451581271Y-69303448D01*
X451479814Y-69220186D01*
X451396552Y-69118729D01*
X451367222Y-69082991D01*
X451293408Y-68944896D01*
X451283557Y-68926467D01*
X451243981Y-68796000D01*
X451232037Y-68756627D01*
X451214641Y-68580000D01*
X451232037Y-68403373D01*
X451283557Y-68233534D01*
X451283557Y-68233533D01*
X451367221Y-68077011D01*
X451367222Y-68077009D01*
X451396552Y-68041271D01*
X451479814Y-67939814D01*
X451581271Y-67856552D01*
X451617009Y-67827222D01*
X451634913Y-67817652D01*
X451773533Y-67743557D01*
X451830147Y-67726384D01*
X451943373Y-67692037D01*
X452009558Y-67685518D01*
X452075740Y-67679000D01*
X452164260Y-67679000D01*
X452230443Y-67685519D01*
X452230443Y-67685519D01*
G37*
G36*
X444610443Y-67685519D02*
X444676627Y-67692037D01*
X444789853Y-67726384D01*
X444846467Y-67743557D01*
X444985087Y-67817652D01*
X445002991Y-67827222D01*
X445038729Y-67856552D01*
X445140186Y-67939814D01*
X445223448Y-68041271D01*
X445252778Y-68077009D01*
X445252779Y-68077011D01*
X445336443Y-68233533D01*
X445336443Y-68233534D01*
X445387963Y-68403373D01*
X445405359Y-68580000D01*
X445387963Y-68756627D01*
X445376019Y-68796000D01*
X445336443Y-68926467D01*
X445326592Y-68944896D01*
X445252778Y-69082991D01*
X445223448Y-69118729D01*
X445140186Y-69220186D01*
X445038729Y-69303448D01*
X445002991Y-69332778D01*
X445002989Y-69332779D01*
X444846467Y-69416443D01*
X444789853Y-69433616D01*
X444676627Y-69467963D01*
X444610442Y-69474482D01*
X444544260Y-69481000D01*
X444455740Y-69481000D01*
X444389558Y-69474482D01*
X444323373Y-69467963D01*
X444210147Y-69433616D01*
X444153533Y-69416443D01*
X443997011Y-69332779D01*
X443997009Y-69332778D01*
X443961271Y-69303448D01*
X443859814Y-69220186D01*
X443776552Y-69118729D01*
X443747222Y-69082991D01*
X443673408Y-68944896D01*
X443663557Y-68926467D01*
X443623981Y-68796000D01*
X443612037Y-68756627D01*
X443594641Y-68580000D01*
X443612037Y-68403373D01*
X443663557Y-68233534D01*
X443663557Y-68233533D01*
X443747221Y-68077011D01*
X443747222Y-68077009D01*
X443776552Y-68041271D01*
X443859814Y-67939814D01*
X443961271Y-67856552D01*
X443997009Y-67827222D01*
X444014913Y-67817652D01*
X444153533Y-67743557D01*
X444210147Y-67726384D01*
X444323373Y-67692037D01*
X444389558Y-67685518D01*
X444455740Y-67679000D01*
X444544260Y-67679000D01*
X444610443Y-67685519D01*
X444610443Y-67685519D01*
G37*
G36*
X449690443Y-67685519D02*
X449756627Y-67692037D01*
X449869853Y-67726384D01*
X449926467Y-67743557D01*
X450065087Y-67817652D01*
X450082991Y-67827222D01*
X450118729Y-67856552D01*
X450220186Y-67939814D01*
X450303448Y-68041271D01*
X450332778Y-68077009D01*
X450332779Y-68077011D01*
X450416443Y-68233533D01*
X450416443Y-68233534D01*
X450467963Y-68403373D01*
X450485359Y-68580000D01*
X450467963Y-68756627D01*
X450456019Y-68796000D01*
X450416443Y-68926467D01*
X450406592Y-68944896D01*
X450332778Y-69082991D01*
X450303448Y-69118729D01*
X450220186Y-69220186D01*
X450118729Y-69303448D01*
X450082991Y-69332778D01*
X450082989Y-69332779D01*
X449926467Y-69416443D01*
X449869853Y-69433616D01*
X449756627Y-69467963D01*
X449690442Y-69474482D01*
X449624260Y-69481000D01*
X449535740Y-69481000D01*
X449469558Y-69474482D01*
X449403373Y-69467963D01*
X449290147Y-69433616D01*
X449233533Y-69416443D01*
X449077011Y-69332779D01*
X449077009Y-69332778D01*
X449041271Y-69303448D01*
X448939814Y-69220186D01*
X448856552Y-69118729D01*
X448827222Y-69082991D01*
X448753408Y-68944896D01*
X448743557Y-68926467D01*
X448703981Y-68796000D01*
X448692037Y-68756627D01*
X448674641Y-68580000D01*
X448692037Y-68403373D01*
X448743557Y-68233534D01*
X448743557Y-68233533D01*
X448827221Y-68077011D01*
X448827222Y-68077009D01*
X448856552Y-68041271D01*
X448939814Y-67939814D01*
X449041271Y-67856552D01*
X449077009Y-67827222D01*
X449094913Y-67817652D01*
X449233533Y-67743557D01*
X449290147Y-67726384D01*
X449403373Y-67692037D01*
X449469558Y-67685518D01*
X449535740Y-67679000D01*
X449624260Y-67679000D01*
X449690443Y-67685519D01*
X449690443Y-67685519D01*
G37*
G36*
X442861000Y-69481000D02*
X441059000Y-69481000D01*
X441059000Y-67679000D01*
X442861000Y-67679000D01*
X442861000Y-69481000D01*
X442861000Y-69481000D01*
G37*
G36*
X447150443Y-67685519D02*
X447216627Y-67692037D01*
X447329853Y-67726384D01*
X447386467Y-67743557D01*
X447525087Y-67817652D01*
X447542991Y-67827222D01*
X447578729Y-67856552D01*
X447680186Y-67939814D01*
X447763448Y-68041271D01*
X447792778Y-68077009D01*
X447792779Y-68077011D01*
X447876443Y-68233533D01*
X447876443Y-68233534D01*
X447927963Y-68403373D01*
X447945359Y-68580000D01*
X447927963Y-68756627D01*
X447916019Y-68796000D01*
X447876443Y-68926467D01*
X447866592Y-68944896D01*
X447792778Y-69082991D01*
X447763448Y-69118729D01*
X447680186Y-69220186D01*
X447578729Y-69303448D01*
X447542991Y-69332778D01*
X447542989Y-69332779D01*
X447386467Y-69416443D01*
X447329853Y-69433616D01*
X447216627Y-69467963D01*
X447150442Y-69474482D01*
X447084260Y-69481000D01*
X446995740Y-69481000D01*
X446929558Y-69474482D01*
X446863373Y-69467963D01*
X446750147Y-69433616D01*
X446693533Y-69416443D01*
X446537011Y-69332779D01*
X446537009Y-69332778D01*
X446501271Y-69303448D01*
X446399814Y-69220186D01*
X446316552Y-69118729D01*
X446287222Y-69082991D01*
X446213408Y-68944896D01*
X446203557Y-68926467D01*
X446163981Y-68796000D01*
X446152037Y-68756627D01*
X446134641Y-68580000D01*
X446152037Y-68403373D01*
X446203557Y-68233534D01*
X446203557Y-68233533D01*
X446287221Y-68077011D01*
X446287222Y-68077009D01*
X446316552Y-68041271D01*
X446399814Y-67939814D01*
X446501271Y-67856552D01*
X446537009Y-67827222D01*
X446554913Y-67817652D01*
X446693533Y-67743557D01*
X446750147Y-67726384D01*
X446863373Y-67692037D01*
X446929558Y-67685518D01*
X446995740Y-67679000D01*
X447084260Y-67679000D01*
X447150443Y-67685519D01*
X447150443Y-67685519D01*
G37*
G36*
X460886000Y-68796000D02*
X458784000Y-68796000D01*
X458784000Y-67094000D01*
X460886000Y-67094000D01*
X460886000Y-68796000D01*
X460886000Y-68796000D01*
G37*
G36*
X456886000Y-68796000D02*
X454784000Y-68796000D01*
X454784000Y-67094000D01*
X456886000Y-67094000D01*
X456886000Y-68796000D01*
X456886000Y-68796000D01*
G37*
G36*
X437781000Y-67576000D02*
X435979000Y-67576000D01*
X435979000Y-65774000D01*
X437781000Y-65774000D01*
X437781000Y-67576000D01*
X437781000Y-67576000D01*
G37*
G36*
X442176000Y-66011000D02*
X440474000Y-66011000D01*
X440474000Y-63909000D01*
X442176000Y-63909000D01*
X442176000Y-66011000D01*
X442176000Y-66011000D01*
G37*
G36*
X442176000Y-62011000D02*
X440474000Y-62011000D01*
X440474000Y-59909000D01*
X442176000Y-59909000D01*
X442176000Y-62011000D01*
X442176000Y-62011000D01*
G37*
G36*
X450481000Y-60201000D02*
X448679000Y-60201000D01*
X448679000Y-58099000D01*
X450481000Y-58099000D01*
X450481000Y-60201000D01*
X450481000Y-60201000D01*
G37*
G36*
X447941000Y-60106000D02*
X446139000Y-60106000D01*
X446139000Y-58004000D01*
X447941000Y-58004000D01*
X447941000Y-60106000D01*
X447941000Y-60106000D01*
G37*
G36*
X445401000Y-60106000D02*
X443599000Y-60106000D01*
X443599000Y-58004000D01*
X445401000Y-58004000D01*
X445401000Y-60106000D01*
X445401000Y-60106000D01*
G37*
G36*
X398890442Y-56890518D02*
X398956627Y-56897037D01*
X399069853Y-56931384D01*
X399126467Y-56948557D01*
X399265087Y-57022652D01*
X399282991Y-57032222D01*
X399318729Y-57061552D01*
X399420186Y-57144814D01*
X399503448Y-57246271D01*
X399532778Y-57282009D01*
X399532779Y-57282011D01*
X399616443Y-57438533D01*
X399616443Y-57438534D01*
X399667963Y-57608373D01*
X399685359Y-57785000D01*
X399667963Y-57961627D01*
X399655109Y-58004000D01*
X399616443Y-58131467D01*
X399542348Y-58270087D01*
X399532778Y-58287991D01*
X399503448Y-58323729D01*
X399420186Y-58425186D01*
X399318729Y-58508448D01*
X399282991Y-58537778D01*
X399282989Y-58537779D01*
X399126467Y-58621443D01*
X399069853Y-58638616D01*
X398956627Y-58672963D01*
X398890442Y-58679482D01*
X398824260Y-58686000D01*
X398735740Y-58686000D01*
X398669558Y-58679482D01*
X398603373Y-58672963D01*
X398490147Y-58638616D01*
X398433533Y-58621443D01*
X398277011Y-58537779D01*
X398277009Y-58537778D01*
X398241271Y-58508448D01*
X398139814Y-58425186D01*
X398056552Y-58323729D01*
X398027222Y-58287991D01*
X398017652Y-58270087D01*
X397943557Y-58131467D01*
X397904891Y-58004000D01*
X397892037Y-57961627D01*
X397874641Y-57785000D01*
X397892037Y-57608373D01*
X397943557Y-57438534D01*
X397943557Y-57438533D01*
X398027221Y-57282011D01*
X398027222Y-57282009D01*
X398056552Y-57246271D01*
X398139814Y-57144814D01*
X398241271Y-57061552D01*
X398277009Y-57032222D01*
X398294913Y-57022652D01*
X398433533Y-56948557D01*
X398490147Y-56931384D01*
X398603373Y-56897037D01*
X398669558Y-56890518D01*
X398735740Y-56884000D01*
X398824260Y-56884000D01*
X398890442Y-56890518D01*
X398890442Y-56890518D01*
G37*
G36*
X394601000Y-58686000D02*
X392799000Y-58686000D01*
X392799000Y-56884000D01*
X394601000Y-56884000D01*
X394601000Y-58686000D01*
X394601000Y-58686000D01*
G37*
G36*
X396350442Y-56890518D02*
X396416627Y-56897037D01*
X396529853Y-56931384D01*
X396586467Y-56948557D01*
X396725087Y-57022652D01*
X396742991Y-57032222D01*
X396778729Y-57061552D01*
X396880186Y-57144814D01*
X396963448Y-57246271D01*
X396992778Y-57282009D01*
X396992779Y-57282011D01*
X397076443Y-57438533D01*
X397076443Y-57438534D01*
X397127963Y-57608373D01*
X397145359Y-57785000D01*
X397127963Y-57961627D01*
X397115109Y-58004000D01*
X397076443Y-58131467D01*
X397002348Y-58270087D01*
X396992778Y-58287991D01*
X396963448Y-58323729D01*
X396880186Y-58425186D01*
X396778729Y-58508448D01*
X396742991Y-58537778D01*
X396742989Y-58537779D01*
X396586467Y-58621443D01*
X396529853Y-58638616D01*
X396416627Y-58672963D01*
X396350442Y-58679482D01*
X396284260Y-58686000D01*
X396195740Y-58686000D01*
X396129558Y-58679482D01*
X396063373Y-58672963D01*
X395950147Y-58638616D01*
X395893533Y-58621443D01*
X395737011Y-58537779D01*
X395737009Y-58537778D01*
X395701271Y-58508448D01*
X395599814Y-58425186D01*
X395516552Y-58323729D01*
X395487222Y-58287991D01*
X395477652Y-58270087D01*
X395403557Y-58131467D01*
X395364891Y-58004000D01*
X395352037Y-57961627D01*
X395334641Y-57785000D01*
X395352037Y-57608373D01*
X395403557Y-57438534D01*
X395403557Y-57438533D01*
X395487221Y-57282011D01*
X395487222Y-57282009D01*
X395516552Y-57246271D01*
X395599814Y-57144814D01*
X395701271Y-57061552D01*
X395737009Y-57032222D01*
X395754913Y-57022652D01*
X395893533Y-56948557D01*
X395950147Y-56931384D01*
X396063373Y-56897037D01*
X396129558Y-56890518D01*
X396195740Y-56884000D01*
X396284260Y-56884000D01*
X396350442Y-56890518D01*
X396350442Y-56890518D01*
G37*
G36*
X401430442Y-56890518D02*
X401496627Y-56897037D01*
X401609853Y-56931384D01*
X401666467Y-56948557D01*
X401805087Y-57022652D01*
X401822991Y-57032222D01*
X401858729Y-57061552D01*
X401960186Y-57144814D01*
X402043448Y-57246271D01*
X402072778Y-57282009D01*
X402072779Y-57282011D01*
X402156443Y-57438533D01*
X402156443Y-57438534D01*
X402207963Y-57608373D01*
X402225359Y-57785000D01*
X402207963Y-57961627D01*
X402195109Y-58004000D01*
X402156443Y-58131467D01*
X402082348Y-58270087D01*
X402072778Y-58287991D01*
X402043448Y-58323729D01*
X401960186Y-58425186D01*
X401858729Y-58508448D01*
X401822991Y-58537778D01*
X401822989Y-58537779D01*
X401666467Y-58621443D01*
X401609853Y-58638616D01*
X401496627Y-58672963D01*
X401430442Y-58679482D01*
X401364260Y-58686000D01*
X401275740Y-58686000D01*
X401209558Y-58679482D01*
X401143373Y-58672963D01*
X401030147Y-58638616D01*
X400973533Y-58621443D01*
X400817011Y-58537779D01*
X400817009Y-58537778D01*
X400781271Y-58508448D01*
X400679814Y-58425186D01*
X400596552Y-58323729D01*
X400567222Y-58287991D01*
X400557652Y-58270087D01*
X400483557Y-58131467D01*
X400444891Y-58004000D01*
X400432037Y-57961627D01*
X400414641Y-57785000D01*
X400432037Y-57608373D01*
X400483557Y-57438534D01*
X400483557Y-57438533D01*
X400567221Y-57282011D01*
X400567222Y-57282009D01*
X400596552Y-57246271D01*
X400679814Y-57144814D01*
X400781271Y-57061552D01*
X400817009Y-57032222D01*
X400834913Y-57022652D01*
X400973533Y-56948557D01*
X401030147Y-56931384D01*
X401143373Y-56897037D01*
X401209558Y-56890518D01*
X401275740Y-56884000D01*
X401364260Y-56884000D01*
X401430442Y-56890518D01*
X401430442Y-56890518D01*
G37*
G36*
X403970442Y-56890518D02*
X404036627Y-56897037D01*
X404149853Y-56931384D01*
X404206467Y-56948557D01*
X404345087Y-57022652D01*
X404362991Y-57032222D01*
X404398729Y-57061552D01*
X404500186Y-57144814D01*
X404583448Y-57246271D01*
X404612778Y-57282009D01*
X404612779Y-57282011D01*
X404696443Y-57438533D01*
X404696443Y-57438534D01*
X404747963Y-57608373D01*
X404765359Y-57785000D01*
X404747963Y-57961627D01*
X404735109Y-58004000D01*
X404696443Y-58131467D01*
X404622348Y-58270087D01*
X404612778Y-58287991D01*
X404583448Y-58323729D01*
X404500186Y-58425186D01*
X404398729Y-58508448D01*
X404362991Y-58537778D01*
X404362989Y-58537779D01*
X404206467Y-58621443D01*
X404149853Y-58638616D01*
X404036627Y-58672963D01*
X403970442Y-58679482D01*
X403904260Y-58686000D01*
X403815740Y-58686000D01*
X403749558Y-58679482D01*
X403683373Y-58672963D01*
X403570147Y-58638616D01*
X403513533Y-58621443D01*
X403357011Y-58537779D01*
X403357009Y-58537778D01*
X403321271Y-58508448D01*
X403219814Y-58425186D01*
X403136552Y-58323729D01*
X403107222Y-58287991D01*
X403097652Y-58270087D01*
X403023557Y-58131467D01*
X402984891Y-58004000D01*
X402972037Y-57961627D01*
X402954641Y-57785000D01*
X402972037Y-57608373D01*
X403023557Y-57438534D01*
X403023557Y-57438533D01*
X403107221Y-57282011D01*
X403107222Y-57282009D01*
X403136552Y-57246271D01*
X403219814Y-57144814D01*
X403321271Y-57061552D01*
X403357009Y-57032222D01*
X403374913Y-57022652D01*
X403513533Y-56948557D01*
X403570147Y-56931384D01*
X403683373Y-56897037D01*
X403749558Y-56890518D01*
X403815740Y-56884000D01*
X403904260Y-56884000D01*
X403970442Y-56890518D01*
X403970442Y-56890518D01*
G37*
G36*
X406510442Y-56890518D02*
X406576627Y-56897037D01*
X406689853Y-56931384D01*
X406746467Y-56948557D01*
X406885087Y-57022652D01*
X406902991Y-57032222D01*
X406938729Y-57061552D01*
X407040186Y-57144814D01*
X407123448Y-57246271D01*
X407152778Y-57282009D01*
X407152779Y-57282011D01*
X407236443Y-57438533D01*
X407236443Y-57438534D01*
X407287963Y-57608373D01*
X407305359Y-57785000D01*
X407287963Y-57961627D01*
X407275109Y-58004000D01*
X407236443Y-58131467D01*
X407162348Y-58270087D01*
X407152778Y-58287991D01*
X407123448Y-58323729D01*
X407040186Y-58425186D01*
X406938729Y-58508448D01*
X406902991Y-58537778D01*
X406902989Y-58537779D01*
X406746467Y-58621443D01*
X406689853Y-58638616D01*
X406576627Y-58672963D01*
X406510442Y-58679482D01*
X406444260Y-58686000D01*
X406355740Y-58686000D01*
X406289558Y-58679482D01*
X406223373Y-58672963D01*
X406110147Y-58638616D01*
X406053533Y-58621443D01*
X405897011Y-58537779D01*
X405897009Y-58537778D01*
X405861271Y-58508448D01*
X405759814Y-58425186D01*
X405676552Y-58323729D01*
X405647222Y-58287991D01*
X405637652Y-58270087D01*
X405563557Y-58131467D01*
X405524891Y-58004000D01*
X405512037Y-57961627D01*
X405494641Y-57785000D01*
X405512037Y-57608373D01*
X405563557Y-57438534D01*
X405563557Y-57438533D01*
X405647221Y-57282011D01*
X405647222Y-57282009D01*
X405676552Y-57246271D01*
X405759814Y-57144814D01*
X405861271Y-57061552D01*
X405897009Y-57032222D01*
X405914913Y-57022652D01*
X406053533Y-56948557D01*
X406110147Y-56931384D01*
X406223373Y-56897037D01*
X406289558Y-56890518D01*
X406355740Y-56884000D01*
X406444260Y-56884000D01*
X406510442Y-56890518D01*
X406510442Y-56890518D01*
G37*
G36*
X450481000Y-56201000D02*
X448679000Y-56201000D01*
X448679000Y-54099000D01*
X450481000Y-54099000D01*
X450481000Y-56201000D01*
X450481000Y-56201000D01*
G37*
G36*
X445401000Y-56106000D02*
X443599000Y-56106000D01*
X443599000Y-54004000D01*
X445401000Y-54004000D01*
X445401000Y-56106000D01*
X445401000Y-56106000D01*
G37*
G36*
X447941000Y-56106000D02*
X446139000Y-56106000D01*
X446139000Y-54004000D01*
X447941000Y-54004000D01*
X447941000Y-56106000D01*
X447941000Y-56106000D01*
G37*
G36*
X378570442Y-53715518D02*
X378636627Y-53722037D01*
X378749853Y-53756384D01*
X378806467Y-53773557D01*
X378945087Y-53847652D01*
X378962991Y-53857222D01*
X378998729Y-53886552D01*
X379100186Y-53969814D01*
X379183448Y-54071271D01*
X379212778Y-54107009D01*
X379212779Y-54107011D01*
X379296443Y-54263533D01*
X379296443Y-54263534D01*
X379347963Y-54433373D01*
X379365359Y-54610000D01*
X379347963Y-54786627D01*
X379313616Y-54899853D01*
X379296443Y-54956467D01*
X379222348Y-55095087D01*
X379212778Y-55112991D01*
X379183448Y-55148729D01*
X379100186Y-55250186D01*
X378998729Y-55333448D01*
X378962991Y-55362778D01*
X378962989Y-55362779D01*
X378806467Y-55446443D01*
X378749853Y-55463616D01*
X378636627Y-55497963D01*
X378570442Y-55504482D01*
X378504260Y-55511000D01*
X378415740Y-55511000D01*
X378349558Y-55504482D01*
X378283373Y-55497963D01*
X378170147Y-55463616D01*
X378113533Y-55446443D01*
X377957011Y-55362779D01*
X377957009Y-55362778D01*
X377921271Y-55333448D01*
X377819814Y-55250186D01*
X377736552Y-55148729D01*
X377707222Y-55112991D01*
X377697652Y-55095087D01*
X377623557Y-54956467D01*
X377606384Y-54899853D01*
X377572037Y-54786627D01*
X377554641Y-54610000D01*
X377572037Y-54433373D01*
X377623557Y-54263534D01*
X377623557Y-54263533D01*
X377707221Y-54107011D01*
X377707222Y-54107009D01*
X377736552Y-54071271D01*
X377819814Y-53969814D01*
X377921271Y-53886552D01*
X377957009Y-53857222D01*
X377974913Y-53847652D01*
X378113533Y-53773557D01*
X378170147Y-53756384D01*
X378283373Y-53722037D01*
X378349558Y-53715518D01*
X378415740Y-53709000D01*
X378504260Y-53709000D01*
X378570442Y-53715518D01*
X378570442Y-53715518D01*
G37*
G36*
X378570443Y-51175519D02*
X378636627Y-51182037D01*
X378749853Y-51216384D01*
X378806467Y-51233557D01*
X378945087Y-51307652D01*
X378962991Y-51317222D01*
X378998729Y-51346552D01*
X379100186Y-51429814D01*
X379183448Y-51531271D01*
X379212778Y-51567009D01*
X379212779Y-51567011D01*
X379296443Y-51723533D01*
X379296443Y-51723534D01*
X379347963Y-51893373D01*
X379365359Y-52070000D01*
X379347963Y-52246627D01*
X379313616Y-52359853D01*
X379296443Y-52416467D01*
X379222348Y-52555087D01*
X379212778Y-52572991D01*
X379183448Y-52608729D01*
X379100186Y-52710186D01*
X378998729Y-52793448D01*
X378962991Y-52822778D01*
X378962989Y-52822779D01*
X378806467Y-52906443D01*
X378749853Y-52923616D01*
X378636627Y-52957963D01*
X378570442Y-52964482D01*
X378504260Y-52971000D01*
X378415740Y-52971000D01*
X378349558Y-52964482D01*
X378283373Y-52957963D01*
X378170147Y-52923616D01*
X378113533Y-52906443D01*
X377957011Y-52822779D01*
X377957009Y-52822778D01*
X377921271Y-52793448D01*
X377819814Y-52710186D01*
X377736552Y-52608729D01*
X377707222Y-52572991D01*
X377697652Y-52555087D01*
X377623557Y-52416467D01*
X377606384Y-52359853D01*
X377572037Y-52246627D01*
X377554641Y-52070000D01*
X377572037Y-51893373D01*
X377623557Y-51723534D01*
X377623557Y-51723533D01*
X377707221Y-51567011D01*
X377707222Y-51567009D01*
X377736552Y-51531271D01*
X377819814Y-51429814D01*
X377921271Y-51346552D01*
X377957009Y-51317222D01*
X377974913Y-51307652D01*
X378113533Y-51233557D01*
X378170147Y-51216384D01*
X378283373Y-51182037D01*
X378349557Y-51175519D01*
X378415740Y-51169000D01*
X378504260Y-51169000D01*
X378570443Y-51175519D01*
X378570443Y-51175519D01*
G37*
G36*
X379361000Y-50431000D02*
X377559000Y-50431000D01*
X377559000Y-48629000D01*
X379361000Y-48629000D01*
X379361000Y-50431000D01*
X379361000Y-50431000D01*
G37*
G36*
X373490442Y-46095518D02*
X373556627Y-46102037D01*
X373669853Y-46136384D01*
X373726467Y-46153557D01*
X373865087Y-46227652D01*
X373882991Y-46237222D01*
X373918729Y-46266552D01*
X374020186Y-46349814D01*
X374103448Y-46451271D01*
X374132778Y-46487009D01*
X374132779Y-46487011D01*
X374216443Y-46643533D01*
X374216443Y-46643534D01*
X374267963Y-46813373D01*
X374285359Y-46990000D01*
X374267963Y-47166627D01*
X374233616Y-47279853D01*
X374216443Y-47336467D01*
X374142348Y-47475087D01*
X374132778Y-47492991D01*
X374103448Y-47528729D01*
X374020186Y-47630186D01*
X373918729Y-47713448D01*
X373882991Y-47742778D01*
X373882989Y-47742779D01*
X373726467Y-47826443D01*
X373669853Y-47843616D01*
X373556627Y-47877963D01*
X373490443Y-47884481D01*
X373424260Y-47891000D01*
X373335740Y-47891000D01*
X373269557Y-47884481D01*
X373203373Y-47877963D01*
X373090147Y-47843616D01*
X373033533Y-47826443D01*
X372877011Y-47742779D01*
X372877009Y-47742778D01*
X372841271Y-47713448D01*
X372739814Y-47630186D01*
X372656552Y-47528729D01*
X372627222Y-47492991D01*
X372617652Y-47475087D01*
X372543557Y-47336467D01*
X372526384Y-47279853D01*
X372492037Y-47166627D01*
X372474641Y-46990000D01*
X372492037Y-46813373D01*
X372543557Y-46643534D01*
X372543557Y-46643533D01*
X372627221Y-46487011D01*
X372627222Y-46487009D01*
X372656552Y-46451271D01*
X372739814Y-46349814D01*
X372841271Y-46266552D01*
X372877009Y-46237222D01*
X372894913Y-46227652D01*
X373033533Y-46153557D01*
X373090147Y-46136384D01*
X373203373Y-46102037D01*
X373269558Y-46095518D01*
X373335740Y-46089000D01*
X373424260Y-46089000D01*
X373490442Y-46095518D01*
X373490442Y-46095518D01*
G37*
G36*
X390741000Y-45691000D02*
X389039000Y-45691000D01*
X389039000Y-43589000D01*
X390741000Y-43589000D01*
X390741000Y-45691000D01*
X390741000Y-45691000D01*
G37*
G36*
X373490443Y-43555519D02*
X373556627Y-43562037D01*
X373645512Y-43589000D01*
X373726467Y-43613557D01*
X373865087Y-43687652D01*
X373882991Y-43697222D01*
X373918729Y-43726552D01*
X374020186Y-43809814D01*
X374103448Y-43911271D01*
X374132778Y-43947009D01*
X374132779Y-43947011D01*
X374216443Y-44103533D01*
X374216443Y-44103534D01*
X374267963Y-44273373D01*
X374285359Y-44450000D01*
X374267963Y-44626627D01*
X374233616Y-44739853D01*
X374216443Y-44796467D01*
X374179276Y-44866000D01*
X374132778Y-44952991D01*
X374103448Y-44988729D01*
X374020186Y-45090186D01*
X373918729Y-45173448D01*
X373882991Y-45202778D01*
X373882989Y-45202779D01*
X373726467Y-45286443D01*
X373669853Y-45303616D01*
X373556627Y-45337963D01*
X373490442Y-45344482D01*
X373424260Y-45351000D01*
X373335740Y-45351000D01*
X373269558Y-45344482D01*
X373203373Y-45337963D01*
X373090147Y-45303616D01*
X373033533Y-45286443D01*
X372877011Y-45202779D01*
X372877009Y-45202778D01*
X372841271Y-45173448D01*
X372739814Y-45090186D01*
X372656552Y-44988729D01*
X372627222Y-44952991D01*
X372580724Y-44866000D01*
X372543557Y-44796467D01*
X372526384Y-44739853D01*
X372492037Y-44626627D01*
X372474641Y-44450000D01*
X372492037Y-44273373D01*
X372543557Y-44103534D01*
X372543557Y-44103533D01*
X372627221Y-43947011D01*
X372627222Y-43947009D01*
X372656552Y-43911271D01*
X372739814Y-43809814D01*
X372841271Y-43726552D01*
X372877009Y-43697222D01*
X372894913Y-43687652D01*
X373033533Y-43613557D01*
X373114488Y-43589000D01*
X373203373Y-43562037D01*
X373269558Y-43555518D01*
X373335740Y-43549000D01*
X373424260Y-43549000D01*
X373490443Y-43555519D01*
X373490443Y-43555519D01*
G37*
G36*
X443241000Y-44866000D02*
X438139000Y-44866000D01*
X438139000Y-42764000D01*
X443241000Y-42764000D01*
X443241000Y-44866000D01*
X443241000Y-44866000D01*
G37*
G36*
X458481000Y-44866000D02*
X453379000Y-44866000D01*
X453379000Y-42764000D01*
X458481000Y-42764000D01*
X458481000Y-44866000D01*
X458481000Y-44866000D01*
G37*
G36*
X405451000Y-44081000D02*
X403349000Y-44081000D01*
X403349000Y-42279000D01*
X405451000Y-42279000D01*
X405451000Y-44081000D01*
X405451000Y-44081000D01*
G37*
G36*
X409451000Y-44081000D02*
X407349000Y-44081000D01*
X407349000Y-42279000D01*
X409451000Y-42279000D01*
X409451000Y-44081000D01*
X409451000Y-44081000D01*
G37*
G36*
X399421000Y-43881000D02*
X397819000Y-43881000D01*
X397819000Y-42479000D01*
X399421000Y-42479000D01*
X399421000Y-43881000D01*
X399421000Y-43881000D01*
G37*
G36*
X402121000Y-43881000D02*
X400519000Y-43881000D01*
X400519000Y-42479000D01*
X402121000Y-42479000D01*
X402121000Y-43881000D01*
X402121000Y-43881000D01*
G37*
G36*
X373490442Y-41015518D02*
X373556627Y-41022037D01*
X373669853Y-41056384D01*
X373726467Y-41073557D01*
X373865087Y-41147652D01*
X373882991Y-41157222D01*
X373918729Y-41186552D01*
X374020186Y-41269814D01*
X374103448Y-41371271D01*
X374132778Y-41407009D01*
X374132779Y-41407011D01*
X374216443Y-41563533D01*
X374216443Y-41563534D01*
X374267963Y-41733373D01*
X374285359Y-41910000D01*
X374267963Y-42086627D01*
X374260435Y-42111443D01*
X374216443Y-42256467D01*
X374179276Y-42326000D01*
X374132778Y-42412991D01*
X374103448Y-42448729D01*
X374020186Y-42550186D01*
X373918729Y-42633448D01*
X373882991Y-42662778D01*
X373882989Y-42662779D01*
X373726467Y-42746443D01*
X373669853Y-42763616D01*
X373556627Y-42797963D01*
X373490442Y-42804482D01*
X373424260Y-42811000D01*
X373335740Y-42811000D01*
X373269557Y-42804481D01*
X373203373Y-42797963D01*
X373090147Y-42763616D01*
X373033533Y-42746443D01*
X372877011Y-42662779D01*
X372877009Y-42662778D01*
X372841271Y-42633448D01*
X372739814Y-42550186D01*
X372656552Y-42448729D01*
X372627222Y-42412991D01*
X372580724Y-42326000D01*
X372543557Y-42256467D01*
X372499565Y-42111443D01*
X372492037Y-42086627D01*
X372474641Y-41910000D01*
X372492037Y-41733373D01*
X372543557Y-41563534D01*
X372543557Y-41563533D01*
X372627221Y-41407011D01*
X372627222Y-41407009D01*
X372656552Y-41371271D01*
X372739814Y-41269814D01*
X372841271Y-41186552D01*
X372877009Y-41157222D01*
X372894913Y-41147652D01*
X373033533Y-41073557D01*
X373090147Y-41056384D01*
X373203373Y-41022037D01*
X373269558Y-41015518D01*
X373335740Y-41009000D01*
X373424260Y-41009000D01*
X373490442Y-41015518D01*
X373490442Y-41015518D01*
G37*
G36*
X458481000Y-42326000D02*
X453379000Y-42326000D01*
X453379000Y-40224000D01*
X458481000Y-40224000D01*
X458481000Y-42326000D01*
X458481000Y-42326000D01*
G37*
G36*
X443241000Y-42326000D02*
X438139000Y-42326000D01*
X438139000Y-40224000D01*
X443241000Y-40224000D01*
X443241000Y-42326000D01*
X443241000Y-42326000D01*
G37*
G36*
X380475443Y-40380519D02*
X380541627Y-40387037D01*
X380654853Y-40421384D01*
X380711467Y-40438557D01*
X380850087Y-40512652D01*
X380867991Y-40522222D01*
X380903729Y-40551552D01*
X381005186Y-40634814D01*
X381088448Y-40736271D01*
X381117778Y-40772009D01*
X381117779Y-40772011D01*
X381201443Y-40928533D01*
X381201443Y-40928534D01*
X381252963Y-41098373D01*
X381270359Y-41275000D01*
X381252963Y-41451627D01*
X381219017Y-41563533D01*
X381201443Y-41621467D01*
X381164276Y-41691000D01*
X381117778Y-41777991D01*
X381088448Y-41813729D01*
X381005186Y-41915186D01*
X380903729Y-41998448D01*
X380867991Y-42027778D01*
X380867989Y-42027779D01*
X380711467Y-42111443D01*
X380654853Y-42128616D01*
X380541627Y-42162963D01*
X380475443Y-42169481D01*
X380409260Y-42176000D01*
X380320740Y-42176000D01*
X380254557Y-42169481D01*
X380188373Y-42162963D01*
X380075147Y-42128616D01*
X380018533Y-42111443D01*
X379862011Y-42027779D01*
X379862009Y-42027778D01*
X379826271Y-41998448D01*
X379724814Y-41915186D01*
X379641552Y-41813729D01*
X379612222Y-41777991D01*
X379565724Y-41691000D01*
X379528557Y-41621467D01*
X379510983Y-41563533D01*
X379477037Y-41451627D01*
X379459641Y-41275000D01*
X379477037Y-41098373D01*
X379528557Y-40928534D01*
X379528557Y-40928533D01*
X379612221Y-40772011D01*
X379612222Y-40772009D01*
X379641552Y-40736271D01*
X379724814Y-40634814D01*
X379826271Y-40551552D01*
X379862009Y-40522222D01*
X379879913Y-40512652D01*
X380018533Y-40438557D01*
X380075147Y-40421384D01*
X380188373Y-40387037D01*
X380254558Y-40380518D01*
X380320740Y-40374000D01*
X380409260Y-40374000D01*
X380475443Y-40380519D01*
X380475443Y-40380519D01*
G37*
G36*
X390741000Y-41691000D02*
X389039000Y-41691000D01*
X389039000Y-39589000D01*
X390741000Y-39589000D01*
X390741000Y-41691000D01*
X390741000Y-41691000D01*
G37*
G36*
X409451000Y-40906000D02*
X407349000Y-40906000D01*
X407349000Y-39104000D01*
X409451000Y-39104000D01*
X409451000Y-40906000D01*
X409451000Y-40906000D01*
G37*
G36*
X405451000Y-40906000D02*
X403349000Y-40906000D01*
X403349000Y-39104000D01*
X405451000Y-39104000D01*
X405451000Y-40906000D01*
X405451000Y-40906000D01*
G37*
G36*
X399581000Y-40706000D02*
X397979000Y-40706000D01*
X397979000Y-39304000D01*
X399581000Y-39304000D01*
X399581000Y-40706000D01*
X399581000Y-40706000D01*
G37*
G36*
X402281000Y-40706000D02*
X400679000Y-40706000D01*
X400679000Y-39304000D01*
X402281000Y-39304000D01*
X402281000Y-40706000D01*
X402281000Y-40706000D01*
G37*
G36*
X374281000Y-40271000D02*
X372479000Y-40271000D01*
X372479000Y-38469000D01*
X374281000Y-38469000D01*
X374281000Y-40271000D01*
X374281000Y-40271000D01*
G37*
G36*
X458481000Y-39786000D02*
X453379000Y-39786000D01*
X453379000Y-37684000D01*
X458481000Y-37684000D01*
X458481000Y-39786000D01*
X458481000Y-39786000D01*
G37*
G36*
X443241000Y-39786000D02*
X438139000Y-39786000D01*
X438139000Y-37684000D01*
X443241000Y-37684000D01*
X443241000Y-39786000D01*
X443241000Y-39786000D01*
G37*
G36*
X381266000Y-39636000D02*
X379464000Y-39636000D01*
X379464000Y-37834000D01*
X381266000Y-37834000D01*
X381266000Y-39636000D01*
X381266000Y-39636000D01*
G37*
G36*
X404141000Y-36421000D02*
X401039000Y-36421000D01*
X401039000Y-34919000D01*
X404141000Y-34919000D01*
X404141000Y-36421000D01*
X404141000Y-36421000D01*
G37*
G36*
X402391000Y-34021000D02*
X400389000Y-34021000D01*
X400389000Y-32019000D01*
X402391000Y-32019000D01*
X402391000Y-34021000D01*
X402391000Y-34021000D01*
G37*
G36*
X399591000Y-34021000D02*
X397589000Y-34021000D01*
X397589000Y-32019000D01*
X399591000Y-32019000D01*
X399591000Y-34021000D01*
X399591000Y-34021000D01*
G37*
G36*
X404791000Y-34021000D02*
X402789000Y-34021000D01*
X402789000Y-32019000D01*
X404791000Y-32019000D01*
X404791000Y-34021000D01*
X404791000Y-34021000D01*
G37*
G36*
X407591000Y-34021000D02*
X405589000Y-34021000D01*
X405589000Y-32019000D01*
X407591000Y-32019000D01*
X407591000Y-34021000D01*
X407591000Y-34021000D01*
G37*
M02*
