G04 #@! TF.GenerationSoftware,KiCad,Pcbnew,(5.0.2)-1*
G04 #@! TF.CreationDate,2019-04-16T07:35:45+02:00*
G04 #@! TF.ProjectId,devboard_io,64657662-6f61-4726-945f-696f2e6b6963,rev?*
G04 #@! TF.SameCoordinates,Original*
G04 #@! TF.FileFunction,Paste,Top*
G04 #@! TF.FilePolarity,Positive*
%FSLAX46Y46*%
G04 Gerber Fmt 4.6, Leading zero omitted, Abs format (unit mm)*
G04 Created by KiCad (PCBNEW (5.0.2)-1) date 16/04/2019 07:35:45*
%MOMM*%
%LPD*%
G01*
G04 APERTURE LIST*
%ADD10R,3.000000X2.200000*%
%ADD11R,1.700000X2.000000*%
%ADD12R,2.000000X1.700000*%
%ADD13R,2.000000X1.000000*%
%ADD14R,1.750000X0.450000*%
%ADD15R,0.750000X0.400000*%
%ADD16O,0.900000X2.500000*%
%ADD17O,2.500000X0.900000*%
%ADD18R,6.000000X6.000000*%
%ADD19R,2.000000X2.500000*%
G04 APERTURE END LIST*
D10*
G04 #@! TO.C,F1*
X447675000Y-120015000D03*
X447675000Y-114215000D03*
G04 #@! TD*
G04 #@! TO.C,F2*
X452755000Y-114300000D03*
X452755000Y-120100000D03*
G04 #@! TD*
G04 #@! TO.C,F3*
X457200000Y-120100000D03*
X457200000Y-114300000D03*
G04 #@! TD*
D11*
G04 #@! TO.C,R9*
X445935100Y-81304900D03*
X445935100Y-77304900D03*
G04 #@! TD*
G04 #@! TO.C,R11*
X379095000Y-86550000D03*
X379095000Y-82550000D03*
G04 #@! TD*
G04 #@! TO.C,R13*
X389255000Y-83090000D03*
X389255000Y-87090000D03*
G04 #@! TD*
G04 #@! TO.C,R14*
X397510000Y-74930000D03*
X397510000Y-78930000D03*
G04 #@! TD*
D12*
G04 #@! TO.C,R15*
X407670000Y-85725000D03*
X411670000Y-85725000D03*
G04 #@! TD*
D11*
G04 #@! TO.C,R16*
X371475000Y-78740000D03*
X371475000Y-82740000D03*
G04 #@! TD*
G04 #@! TO.C,R17*
X413385000Y-99695000D03*
X413385000Y-95695000D03*
G04 #@! TD*
D12*
G04 #@! TO.C,R18*
X424910000Y-118110000D03*
X420910000Y-118110000D03*
G04 #@! TD*
D11*
G04 #@! TO.C,R19*
X413385000Y-107950000D03*
X413385000Y-103950000D03*
G04 #@! TD*
D12*
G04 #@! TO.C,R20*
X434435000Y-117475000D03*
X430435000Y-117475000D03*
G04 #@! TD*
D13*
G04 #@! TO.C,SW2*
X407670000Y-76200000D03*
X401320000Y-76200000D03*
X407670000Y-79375000D03*
X401320000Y-79375000D03*
G04 #@! TD*
D14*
G04 #@! TO.C,U1*
X393490000Y-37685000D03*
X393490000Y-38335000D03*
X393490000Y-38985000D03*
X393490000Y-39635000D03*
X393490000Y-40285000D03*
X393490000Y-40935000D03*
X393490000Y-41585000D03*
X393490000Y-42235000D03*
X393490000Y-42885000D03*
X393490000Y-43535000D03*
X393490000Y-44185000D03*
X393490000Y-44835000D03*
X393490000Y-45485000D03*
X393490000Y-46135000D03*
X386290000Y-46135000D03*
X386290000Y-45485000D03*
X386290000Y-44835000D03*
X386290000Y-44185000D03*
X386290000Y-43535000D03*
X386290000Y-42885000D03*
X386290000Y-42235000D03*
X386290000Y-41585000D03*
X386290000Y-40935000D03*
X386290000Y-40285000D03*
X386290000Y-39635000D03*
X386290000Y-38985000D03*
X386290000Y-38335000D03*
X386290000Y-37685000D03*
G04 #@! TD*
D15*
G04 #@! TO.C,U2*
X447990000Y-63500000D03*
X446090000Y-62850000D03*
X446090000Y-64150000D03*
X446090000Y-63500000D03*
X447990000Y-64150000D03*
X447990000Y-62850000D03*
G04 #@! TD*
D16*
G04 #@! TO.C,U4*
X384640000Y-97680000D03*
X385910000Y-97680000D03*
X387180000Y-97680000D03*
X388450000Y-97680000D03*
X389720000Y-97680000D03*
X390990000Y-97680000D03*
X392260000Y-97680000D03*
X393530000Y-97680000D03*
X394800000Y-97680000D03*
X396070000Y-97680000D03*
X397340000Y-97680000D03*
X398610000Y-97680000D03*
X399880000Y-97680000D03*
X401150000Y-97680000D03*
D17*
X402640000Y-100965000D03*
X402640000Y-102235000D03*
X402640000Y-103505000D03*
X402640000Y-104775000D03*
X402640000Y-106045000D03*
X402640000Y-107315000D03*
X402640000Y-108585000D03*
X402640000Y-109855000D03*
X402640000Y-111125000D03*
X402640000Y-112395000D03*
D16*
X401150000Y-115680000D03*
X399880000Y-115680000D03*
X398610000Y-115680000D03*
X397340000Y-115680000D03*
X396070000Y-115680000D03*
X394800000Y-115680000D03*
X393530000Y-115680000D03*
X392260000Y-115680000D03*
X390990000Y-115680000D03*
X389720000Y-115680000D03*
X388450000Y-115680000D03*
X387180000Y-115680000D03*
X385910000Y-115680000D03*
X384640000Y-115680000D03*
D18*
X392340000Y-106980000D03*
G04 #@! TD*
D19*
G04 #@! TO.C,C8*
X379825000Y-118110000D03*
X375825000Y-118110000D03*
G04 #@! TD*
M02*
