M48
;DRILL file {KiCad (5.0.2)-1} date 16/04/2019 07:35:59
;FORMAT={-:-/ absolute / metric / decimal}
FMAT,2
METRIC,TZ
T1C0.400
T2C1.000
T3C1.050
T4C1.500
T5C1.700
%
G90
G05
T1
X371.475Y-74.295
X378.46Y-86.36
X379.73Y-118.11
X382.27Y-83.82
X383.54Y-40.64
X384.175Y-107.95
X384.81Y-36.83
X385.445Y-82.55
X386.715Y-112.395
X387.913Y-40.077
X388.62Y-50.8
X388.62Y-74.93
X389.255Y-40.64
X389.255Y-40.64
X389.255Y-40.64
X389.255Y-86.995
X389.89Y-88.265
X390.525Y-89.535
X391.25Y-45.085
X392.122Y-44.103
X394.335Y-71.755
X395.432Y-43.642
X395.605Y-40.64
X395.605Y-41.91
X396.875Y-109.22
X398.145Y-33.02
X398.145Y-64.77
X398.145Y-78.105
X398.145Y-79.375
X400.05Y-37.465
X400.05Y-113.03
X401.32Y-32.385
X401.32Y-38.1
X401.32Y-64.135
X402.59Y-36.83
X403.225Y-93.345
X403.225Y-99.06
X403.86Y-33.02
X403.86Y-35.56
X403.86Y-88.9
X403.86Y-91.44
X404.31Y-90.17
X404.495Y-83.82
X405.13Y-93.98
X405.13Y-94.615
X405.13Y-96.52
X406.4Y-33.02
X407.67Y-83.185
X411.48Y-85.09
X411.48Y-93.98
X412.115Y-110.49
X413.385Y-95.695
X413.385Y-99.695
X413.385Y-107.95
X414.02Y-113.03
X414.655Y-85.725
X415.925Y-78.74
X426.72Y-83.82
X432.435Y-97.79
X439.42Y-80.01
X441.325Y-64.77
X441.325Y-64.77
X441.325Y-64.77
X441.96Y-73.66
X441.96Y-73.66
X441.96Y-73.66
X442.595Y-72.39
X442.595Y-95.885
X443.865Y-62.23
X444.5Y-96.52
X445.135Y-50.165
X445.77Y-87.63
X446.405Y-98.425
X447.04Y-65.405
X447.675Y-90.805
X448.945Y-73.025
X448.945Y-90.805
X450.85Y-44.45
X450.85Y-66.675
X450.85Y-102.87
X450.85Y-102.87
X450.85Y-102.87
X450.85Y-102.87
X450.85Y-102.87
X450.85Y-104.14
X450.85Y-104.14
X450.85Y-104.14
X450.85Y-104.14
X450.85Y-104.14
X451.485Y-72.39
X454.025Y-101.6
X454.66Y-81.28
X454.66Y-84.455
X454.66Y-87.63
X454.66Y-97.79
X455.93Y-38.735
X457.835Y-114.3
X460.375Y-67.945
T2
X436.88Y-66.675
X436.88Y-69.215
X417.83Y-97.79
X417.83Y-100.33
X417.83Y-102.87
X417.83Y-105.41
X417.83Y-107.95
X417.83Y-110.49
X433.705Y-78.105
X433.705Y-80.645
X433.705Y-83.185
X433.705Y-85.725
X433.705Y-88.265
X433.705Y-90.805
X433.705Y-93.345
X387.35Y-69.215
X389.85Y-69.215
X392.35Y-69.215
X394.85Y-69.215
X397.35Y-69.215
X380.365Y-38.735
X380.365Y-41.275
X375.92Y-122.555
X378.46Y-122.555
X381.Y-122.555
X383.54Y-122.555
X386.08Y-122.555
X388.62Y-122.555
X391.16Y-122.555
X393.7Y-122.555
X396.24Y-122.555
X398.78Y-122.555
X401.32Y-122.555
X403.86Y-122.555
X406.4Y-122.555
X408.94Y-122.555
X433.705Y-71.755
X433.705Y-74.295
X441.96Y-68.58
X444.5Y-68.58
X447.04Y-68.58
X449.58Y-68.58
X452.12Y-68.58
X375.285Y-79.375
X375.285Y-81.915
X375.285Y-84.455
X459.74Y-71.755
X459.74Y-74.295
X393.7Y-57.785
X396.24Y-57.785
X398.78Y-57.785
X401.32Y-57.785
X403.86Y-57.785
X406.4Y-57.785
X375.92Y-91.44
X378.46Y-91.44
X381.Y-91.44
X383.54Y-91.44
X386.08Y-91.44
X388.62Y-91.44
X391.16Y-91.44
X393.7Y-91.44
X396.24Y-91.44
X398.78Y-91.44
X401.32Y-91.44
X403.86Y-91.44
X406.4Y-91.44
X408.94Y-91.44
X448.31Y-125.095
X450.85Y-125.095
X453.39Y-125.095
X455.93Y-125.095
X408.94Y-95.25
X408.94Y-97.79
X408.94Y-100.33
X408.94Y-102.87
X408.94Y-105.41
X408.94Y-107.95
X408.94Y-110.49
X408.94Y-113.03
X408.94Y-115.57
X408.94Y-118.11
X380.365Y-78.105
X382.905Y-78.105
X385.445Y-78.105
X387.985Y-78.105
X390.525Y-78.105
X393.065Y-78.105
X378.46Y-49.53
X378.46Y-52.07
X378.46Y-54.61
X373.38Y-39.37
X373.38Y-41.91
X373.38Y-44.45
X373.38Y-46.99
T3
X421.68Y-123.19
X424.18Y-123.19
X431.165Y-123.19
X433.665Y-123.19
T4
X461.01Y-104.775
T5
X458.47Y-102.235
X458.47Y-107.315
X463.55Y-102.235
X463.55Y-107.315
T0
M30
