G04 #@! TF.GenerationSoftware,KiCad,Pcbnew,(5.0.2)-1*
G04 #@! TF.CreationDate,2019-04-16T07:35:45+02:00*
G04 #@! TF.ProjectId,devboard_io,64657662-6f61-4726-945f-696f2e6b6963,rev?*
G04 #@! TF.SameCoordinates,Original*
G04 #@! TF.FileFunction,Paste,Bot*
G04 #@! TF.FilePolarity,Positive*
%FSLAX46Y46*%
G04 Gerber Fmt 4.6, Leading zero omitted, Abs format (unit mm)*
G04 Created by KiCad (PCBNEW (5.0.2)-1) date 16/04/2019 07:35:45*
%MOMM*%
%LPD*%
G01*
G04 APERTURE LIST*
%ADD10R,1.600000X2.000000*%
%ADD11R,2.000000X1.600000*%
%ADD12R,2.700000X3.750000*%
%ADD13R,2.500000X2.000000*%
%ADD14R,0.750000X1.200000*%
%ADD15R,1.250000X1.500000*%
%ADD16R,1.500000X1.300000*%
%ADD17R,1.600000X1.000000*%
%ADD18R,0.400000X1.400000*%
%ADD19R,1.520000X1.520000*%
%ADD20R,5.000000X2.000000*%
%ADD21R,2.000000X1.700000*%
%ADD22R,1.700000X2.000000*%
%ADD23R,2.000000X1.000000*%
%ADD24R,0.600000X1.800000*%
%ADD25R,1.800000X0.600000*%
G04 APERTURE END LIST*
D10*
G04 #@! TO.C,C1*
X389890000Y-40640000D03*
X389890000Y-44640000D03*
G04 #@! TD*
D11*
G04 #@! TO.C,C2*
X459835000Y-67945000D03*
X455835000Y-67945000D03*
G04 #@! TD*
D12*
G04 #@! TO.C,C3*
X450850000Y-103435000D03*
X450850000Y-95885000D03*
G04 #@! TD*
D13*
G04 #@! TO.C,C4*
X447040000Y-94520000D03*
X447040000Y-98520000D03*
G04 #@! TD*
D14*
G04 #@! TO.C,C5*
X442595000Y-93985000D03*
X442595000Y-95885000D03*
G04 #@! TD*
D15*
G04 #@! TO.C,C6*
X444500000Y-93980000D03*
X444500000Y-96480000D03*
G04 #@! TD*
D10*
G04 #@! TO.C,C7*
X441325000Y-64960000D03*
X441325000Y-60960000D03*
G04 #@! TD*
D16*
G04 #@! TO.C,D1*
X401480000Y-40005000D03*
X398780000Y-40005000D03*
G04 #@! TD*
G04 #@! TO.C,D2*
X401320000Y-43180000D03*
X398620000Y-43180000D03*
G04 #@! TD*
D17*
G04 #@! TO.C,D3*
X454660000Y-97385000D03*
X454660000Y-94385000D03*
G04 #@! TD*
D16*
G04 #@! TO.C,D4*
X432275000Y-97790000D03*
X434975000Y-97790000D03*
G04 #@! TD*
D18*
G04 #@! TO.C,J2*
X401290000Y-35670000D03*
X401940000Y-35670000D03*
X402590000Y-35670000D03*
X403240000Y-35670000D03*
X403890000Y-35670000D03*
D19*
X398590000Y-33020000D03*
X401390000Y-33020000D03*
X403790000Y-33020000D03*
X406590000Y-33020000D03*
G04 #@! TD*
D20*
G04 #@! TO.C,J9*
X440690000Y-38735000D03*
X440690000Y-41275000D03*
X440690000Y-43815000D03*
X455930000Y-38735000D03*
X455930000Y-41275000D03*
X455930000Y-43815000D03*
G04 #@! TD*
D21*
G04 #@! TO.C,R1*
X404400000Y-40005000D03*
X408400000Y-40005000D03*
G04 #@! TD*
G04 #@! TO.C,R2*
X408400000Y-43180000D03*
X404400000Y-43180000D03*
G04 #@! TD*
D22*
G04 #@! TO.C,R3*
X449580000Y-59150000D03*
X449580000Y-55150000D03*
G04 #@! TD*
G04 #@! TO.C,R4*
X447040000Y-55055000D03*
X447040000Y-59055000D03*
G04 #@! TD*
G04 #@! TO.C,R5*
X444500000Y-55055000D03*
X444500000Y-59055000D03*
G04 #@! TD*
D21*
G04 #@! TO.C,R6*
X426530000Y-93345000D03*
X430530000Y-93345000D03*
G04 #@! TD*
G04 #@! TO.C,R7*
X426530000Y-90805000D03*
X430530000Y-90805000D03*
G04 #@! TD*
D22*
G04 #@! TO.C,R8*
X426085000Y-88360000D03*
X426085000Y-84360000D03*
G04 #@! TD*
G04 #@! TO.C,R10*
X437515000Y-93980000D03*
X437515000Y-97980000D03*
G04 #@! TD*
G04 #@! TO.C,R12*
X384175000Y-111950000D03*
X384175000Y-107950000D03*
G04 #@! TD*
D23*
G04 #@! TO.C,SW1*
X374015000Y-109220000D03*
X380365000Y-109220000D03*
X374015000Y-112395000D03*
X380365000Y-112395000D03*
G04 #@! TD*
D24*
G04 #@! TO.C,U3*
X442424100Y-72722900D03*
X451224100Y-90522900D03*
D25*
X454774100Y-75572900D03*
X438874100Y-87672900D03*
X438874100Y-86572900D03*
X438874100Y-85472900D03*
X438874100Y-84372900D03*
X438874100Y-83272900D03*
X438874100Y-82172900D03*
X438874100Y-81072900D03*
X438874100Y-79972900D03*
X438874100Y-78872900D03*
X438874100Y-77772900D03*
X438874100Y-76672900D03*
X438874100Y-75572900D03*
X454774100Y-76672900D03*
X454774100Y-77772900D03*
X454774100Y-78872900D03*
X454774100Y-79972900D03*
X454774100Y-81072900D03*
X454774100Y-82172900D03*
X454774100Y-83272900D03*
X454774100Y-84372900D03*
X454774100Y-85472900D03*
X454774100Y-86572900D03*
X454774100Y-87672900D03*
D24*
X443524100Y-72722900D03*
X444624100Y-72722900D03*
X445724100Y-72722900D03*
X446824100Y-72722900D03*
X447924100Y-72722900D03*
X449024100Y-72722900D03*
X450124100Y-72722900D03*
X451224100Y-72722900D03*
X450124100Y-90522900D03*
X449024100Y-90522900D03*
X447924100Y-90522900D03*
X446824100Y-90522900D03*
X445724100Y-90522900D03*
X444624100Y-90522900D03*
X443524100Y-90522900D03*
X442424100Y-90522900D03*
G04 #@! TD*
M02*
